<?xml version="1.0" encoding="UTF-8"?>
<svg width="176px" height="17px" viewBox="0 0 176 17" version="1.1" xmlns="http://www.w3.org/2000/svg" xmlns:xlink="http://www.w3.org/1999/xlink">
    <!-- Generator: Sketch 51.3 (57544) - http://www.bohemiancoding.com/sketch -->
    <title>above-the-law-horizontal</title>
    <desc>Created with Sketch.</desc>
    <defs></defs>
    <g id="Page-1" stroke="none" stroke-width="1" fill="none" fill-rule="evenodd">
        <g id="hi-fi-v6" transform="translate(-423.000000, -1012.000000)" fill="#A8D5D4" fill-rule="nonzero">
            <g id="Press-Bar-5-up-2" transform="translate(62.000000, 970.000000)">
                <g id="above-the-law-horizontal" transform="translate(361.000000, 42.000000)">
                    <path d="M171.6365,0.3105 L171.6365,1.4785 L172.108,1.4785 C172.3755,1.4785 172.486,1.5545 172.5375,1.62 C171.598,5.1835 170.517,8.75 169.3365,12.242 C167.945,8.2975 166.6265,4.3435 165.433,0.4785 L165.3785,0.3085 L165.201,0.3105 L162.281,0.331 L162.0435,0.335 C162.0415,0.335 162.0415,0.5725 162.0415,0.5725 L162.0415,1.4785 L162.5085,1.4785 C162.7065,1.4785 162.829,1.5225 162.908,1.591 C161.8905,5.4115 160.7655,9.047 159.5605,12.433 C158.3425,8.551 157.168,4.5435 156.076,0.4875 L156.027,0.3105 L152.4675,0.3105 L152.4675,1.4785 L152.937,1.4785 C153.15,1.4785 153.238,1.5185 153.2855,1.5515 C155.27,7.729 156.7885,12.579 157.929,16.366 L157.9825,16.535 L160.177,16.535 L160.229,16.368 C161.3385,12.8125 162.5875,8.9755 163.942,4.9685 C165.395,9.0565 166.645,12.8925 167.643,16.362 L167.691,16.535 L169.933,16.535 L169.9865,16.372 C172.2765,9.3965 174.046,4.0995 175.256,0.628 L175.3655,0.3105 L171.6365,0.3105 Z M148.707,9.1045 C148.2325,9.117 147.8845,9.123 147.673,9.123 C147.677,9.123 146.468,9.0965 145.8645,9.085 C146.673,6.842 147.299,5.202 147.7465,4.158 C148.5705,6.239 149.1985,7.861 149.6595,9.0865 C149.3855,9.09 149.081,9.0945 148.707,9.1045 Z M155.033,15.173 C152.2935,8.636 150.2305,3.6435 148.901,0.34 L148.8415,0.1895 L147.48,0.1895 L147.4225,0.339 C143.983,8.717 141.701,14.0225 140.6395,16.1135 L140.4635,16.462 L144.0855,16.462 L144.0855,15.293 L143.616,15.293 C143.579,15.293 143.5615,15.291 143.531,15.291 C143.99,13.878 144.563,12.3565 145.2525,10.748 C145.824,10.7205 146.656,10.708 147.7585,10.708 C148.867,10.708 149.706,10.7205 150.285,10.748 C150.997,12.449 151.6885,14.3115 152.3385,16.297 L152.393,16.462 L156.0285,16.462 L156.0285,15.293 L155.581,15.293 C155.338,15.293 155.16,15.248 155.033,15.173 Z M138.55,14.1105 C138.55,14.2395 138.5275,14.4515 138.425,14.54 C137.456,14.6815 136.212,14.753 134.714,14.753 C134.2365,14.753 133.8975,14.747 133.636,14.7385 C133.5815,13.0635 133.554,10.962 133.554,8.461 C133.554,6.305 133.6155,3.6455 133.7365,0.5585 L133.7465,0.3105 L129.898,0.3105 L129.898,1.502 L130.3685,1.502 C130.649,1.502 130.754,1.58 130.798,1.635 C130.875,3.718 130.916,5.9995 130.916,8.424 C130.916,10.879 130.865,13.509 130.7665,16.2435 L130.7565,16.505 L131.017,16.4905 C132.058,16.4415 133.091,16.4175 134.09,16.4175 C134.891,16.4175 136.6535,16.441 139.474,16.4905 L139.719,16.4965 L139.719,13.645 L138.549,13.645 L138.549,14.1105 L138.55,14.1105 Z M118.906,13.9895 C118.906,14.386 118.8505,14.547 118.817,14.6115 C116.993,14.754 115.2955,14.8285 113.781,14.8285 L113.6745,14.8285 L113.631,9.343 L113.631,8.7785 C115.1675,8.7835 116.944,8.831 118.951,8.926 L119.202,8.936 L119.202,7.0775 L118.957,7.0815 L113.6315,7.187 L113.6315,6.6725 C113.6315,5.1335 113.6465,3.5525 113.675,1.9735 L113.7365,1.9735 C115.3985,1.9735 116.9935,2.033 118.4785,2.1475 C118.5205,2.205 118.59,2.3655 118.59,2.783 L118.59,3.0215 L119.76,3.0215 L119.76,0.3115 L109.885,0.3115 L109.885,1.503 L110.354,1.503 C110.586,1.503 110.739,1.551 110.7945,1.633 C110.8425,1.8305 110.9195,2.964 110.9195,8.2415 C110.9195,11.5775 110.8635,14.268 110.7555,16.2405 L110.74,16.4915 L120.075,16.4915 L120.075,13.75 L118.907,13.75 L118.907,13.9895 L118.906,13.9895 Z M106.9235,15.12 C106.8255,12.46 106.7755,9.997 106.7755,7.7995 C106.7755,5.274 106.829,2.8395 106.936,0.56 L106.947,0.31 L103.0435,0.31 L103.0435,1.508 L103.4915,1.508 C103.6375,1.508 103.8215,1.6175 104.0215,1.799 C104.0975,3.122 104.1375,4.676 104.1375,6.4375 L104.1375,6.8435 C103.782,6.8475 103.212,6.864 102.388,6.8905 C101.6275,6.907 100.9625,6.917 100.417,6.917 C99.8515,6.917 99.1015,6.907 98.1875,6.8905 C97.1975,6.865 96.5585,6.8495 96.212,6.8435 L96.212,6.4375 C96.212,3.4295 96.2645,1.459 96.371,0.577 L96.402,0.3095 L92.511,0.3095 L92.511,1.5075 L92.957,1.5075 C93.254,1.5075 93.417,1.57 93.4545,1.688 C93.5125,3.019 93.545,5.073 93.545,7.8015 C93.545,11.2095 93.4735,14.039 93.3355,16.206 L93.3175,16.461 L97.2245,16.461 L97.2245,15.292 L96.824,15.292 C96.49,15.292 96.304,15.218 96.2545,15.08 C96.2265,14.1935 96.2115,12.2675 96.2115,9.334 L96.2115,8.741 C97.609,8.706 99.02,8.6835 100.4165,8.6835 C101.5165,8.6835 102.774,8.704 104.137,8.74 L104.137,9.334 C104.137,11.8975 104.0775,14.209 103.9575,16.206 L103.942,16.461 L107.8565,16.461 L107.8565,15.292 L107.4575,15.292 C107.256,15.293 107.0105,15.256 106.9235,15.12 Z M79.16,3.1115 L80.328,3.1115 L80.328,2.66 C80.328,2.2645 80.399,2.123 80.4365,2.076 C81.2605,1.988 82.362,1.943 83.7255,1.943 L83.8775,1.943 L83.8995,7.616 C83.8995,8.6415 83.8625,11.537 83.789,16.2175 L83.785,16.4615 L87.5645,16.4615 L87.5645,15.2915 L87.095,15.2915 C86.8315,15.2915 86.7405,15.2465 86.702,15.2175 C86.65,14.9165 86.5765,13.491 86.5765,7.7545 C86.5765,5.0775 86.612,3.142 86.679,1.943 L86.887,1.943 C87.8855,1.943 88.938,2.025 90.015,2.1785 C90.052,2.2555 90.092,2.3785 90.092,2.6425 L90.092,3.1115 L91.26,3.1115 L91.26,0.3105 L79.16,0.3105 L79.16,3.1115 Z M70.4615,13.9895 C70.4615,14.386 70.4065,14.547 70.374,14.6115 C68.5495,14.754 66.853,14.8285 65.337,14.8285 L65.231,14.8285 L65.187,9.343 L65.187,8.7785 C66.7235,8.7835 68.501,8.831 70.5065,8.926 L70.7575,8.936 L70.7575,7.0775 L70.514,7.0815 L65.187,7.187 L65.187,6.6725 C65.187,5.1335 65.202,3.5525 65.231,1.9735 L65.292,1.9735 C66.9555,1.9735 68.549,2.033 70.034,2.1475 C70.0755,2.205 70.147,2.3655 70.147,2.783 L70.147,3.0215 L71.315,3.0215 L71.315,0.3115 L61.4425,0.3115 L61.4425,1.503 L61.9105,1.503 C62.1425,1.503 62.294,1.551 62.3495,1.633 C62.3995,1.8305 62.4755,2.964 62.4755,8.2415 C62.4755,11.5775 62.42,14.268 62.31,16.2405 L62.2955,16.4915 L71.629,16.4915 L71.629,13.75 L70.461,13.75 L70.461,13.9895 L70.4615,13.9895 Z M56.628,1.4795 L57.099,1.4795 C57.2745,1.4795 57.3875,1.5205 57.4655,1.584 C55.626,6.831 54.2365,10.629 53.3175,12.924 C51.22,8.001 49.553,3.8 48.3825,0.47 L48.324,0.311 L44.891,0.311 L44.891,1.48 L45.3605,1.48 C45.5215,1.48 45.606,1.5055 45.6615,1.532 C47.6185,5.8925 49.671,10.8865 51.7665,16.3825 L51.825,16.536 L53.904,16.536 L53.962,16.3835 C55.7655,11.6765 57.9095,6.3805 60.3355,0.6435 L60.4755,0.3115 L56.628,0.3115 L56.628,1.4795 Z M41.2695,13.4405 C40.316,14.6105 38.9885,15.203 37.322,15.203 C35.6425,15.203 34.3085,14.621 33.363,13.4725 C32.405,12.3115 31.921,10.6365 31.921,8.496 C31.921,6.3545 32.438,4.6425 33.455,3.405 C34.4305,2.2095 35.694,1.6285 37.322,1.6285 C39.019,1.6285 40.353,2.2135 41.2925,3.3685 C42.2415,4.5395 42.7225,6.2395 42.7225,8.427 C42.7225,10.5685 42.2335,12.255 41.2695,13.4405 Z M37.322,0.04 C34.737,0.04 32.6505,0.8105 31.123,2.331 C29.594,3.8515 28.8195,5.911 28.8195,8.45 C28.8195,11.0055 29.58,13.0565 31.076,14.5465 C32.574,16.036 34.6755,16.7905 37.3225,16.7905 C39.8935,16.7905 41.9755,16.016 43.512,14.488 C45.045,12.9605 45.8245,10.9295 45.8245,8.45 C45.8245,5.8795 45.0625,3.8125 43.5565,2.3085 C42.053,0.8035 39.9545,0.04 37.322,0.04 Z M21.2115,14.9035 C20.8835,14.9035 20.511,14.846 20.1265,14.7695 C20.0595,13.84 20.026,12.456 20.026,10.615 L20.026,8.743 C20.53,8.697 20.918,8.6705 21.12,8.6705 C23.912,8.6705 25.2695,9.681 25.2695,11.7645 C25.269,13.877 23.942,14.9035 21.2115,14.9035 Z M20.0255,4.376 C20.0255,3.4475 20.054,2.636 20.104,1.9295 C20.527,1.8855 20.93,1.8535 21.256,1.8535 C22.346,1.8535 23.1945,2.081 23.7765,2.5285 C24.3475,2.968 24.6245,3.549 24.6245,4.308 C24.6245,6.174 23.372,7.0815 20.7965,7.0815 C20.563,7.0815 20.2945,7.066 20.0255,7.0475 L20.0255,4.376 Z M24.902,7.7225 C26.625,6.9665 27.5465,5.79 27.5465,4.164 C27.5465,2.8055 27.004,1.799 25.932,1.172 C24.9815,0.6005 23.4995,0.3105 21.5315,0.3105 L16.6525,0.331 L16.4145,0.333 L16.4145,1.4795 L16.8845,1.4795 C17.1165,1.4795 17.256,1.5315 17.315,1.625 C17.388,3.494 17.426,6.048 17.426,9.2305 C17.426,11.957 17.358,14.329 17.2245,16.2805 L17.2045,16.5645 L17.4875,16.535 C18.0975,16.4715 18.5555,16.4385 18.844,16.4385 C19.072,16.4385 19.4755,16.455 20.036,16.4875 C20.632,16.5205 21.108,16.5355 21.4885,16.5355 C23.5695,16.5355 25.2185,16.107 26.389,15.259 C27.584,14.393 28.191,13.131 28.191,11.508 C28.1905,9.6355 27.0765,8.37 24.902,7.7225 Z M8.6085,9.1045 C8.135,9.117 7.7875,9.123 7.5745,9.123 C7.578,9.123 6.3705,9.0965 5.7675,9.085 C6.5745,6.842 7.2,5.202 7.6475,4.158 C8.4715,6.239 9.1015,7.861 9.5615,9.0865 C9.2885,9.09 8.983,9.0945 8.6085,9.1045 Z M14.935,15.173 C12.1975,8.6355 10.1325,3.6435 8.803,0.34 L8.743,0.1895 L7.3825,0.1895 L7.323,0.339 C3.8855,8.717 1.6035,14.0225 0.5415,16.1135 L0.3665,16.462 L3.988,16.462 L3.988,15.293 L3.518,15.293 C3.4825,15.293 3.464,15.291 3.4335,15.291 C3.8925,13.878 4.4655,12.3565 5.155,10.748 C5.726,10.7205 6.559,10.708 7.6605,10.708 C8.7695,10.708 9.6085,10.7205 10.188,10.748 C10.899,12.449 11.5905,14.3115 12.2415,16.297 L12.296,16.462 L15.931,16.462 L15.931,15.293 L15.484,15.293 C15.2405,15.293 15.062,15.248 14.935,15.173 Z" id="Shape"></path>
                </g>
            </g>
        </g>
    </g>
</svg>