<?xml version="1.0" encoding="UTF-8"?>
<svg width="158px" height="36px" viewBox="0 0 158 36" version="1.1" xmlns="http://www.w3.org/2000/svg" xmlns:xlink="http://www.w3.org/1999/xlink">
    <!-- Generator: Sketch 51.3 (57544) - http://www.bohemiancoding.com/sketch -->
    <title>backstage-capital</title>
    <desc>Created with Sketch.</desc>
    <defs></defs>
    <g id="Page-1" stroke="none" stroke-width="1" fill="none" fill-rule="evenodd" opacity="0.900223214">
        <g id="hi-fi-v6" transform="translate(-573.000000, -1804.000000)" fill="#A8D5D4" fill-rule="nonzero">
            <g id="Group-6" transform="translate(43.000000, 1790.000000)">
                <g id="backstage-capital" transform="translate(530.000000, 14.000000)">
                    <g id="Group">
                        <polygon id="Shape" points="23.2633166 15.825402 29.2180905 15.825402 26.201005 7.25218593"></polygon>
                        <path d="M79.6351759,23.6976633 C76.1152429,23.2123869 74.3155779,20.1659296 74.2891122,17.3890704 L78.5500838,17.3890704 C78.6559464,19.2223367 79.8733668,20.4085678 81.3025126,20.4085678 C82.8110553,20.4085678 83.9226131,19.1144975 83.9226131,17.6856281 C83.9226131,15.3670854 81.4348409,14.4774121 79.158794,13.6955779 C77.438526,13.1294221 74.6860972,11.7814322 74.6860972,7.89922111 C74.6860972,4.20572864 77.1474037,2.29158291 79.6616415,1.67150754 L79.6616415,0 L0,0 L0,25.746608 L79.6351759,25.746608 L79.6351759,23.6976633 Z M14.8207705,21.8913568 C13.1534338,23.1854271 11.8566164,23.3741457 8.89246231,23.3741457 L2.48777219,23.3741457 L2.48777219,2.23766332 L9.3159129,2.23766332 C11.3273032,2.23766332 12.9152429,2.6690201 13.9738693,3.50477387 C15.3765494,4.44836683 15.9852596,5.98507538 15.9852596,7.73746231 C15.9852596,9.67856784 15.0060302,11.1883166 13.4445561,12.0779899 C16.9115578,13.2911809 17.0703518,16.2567588 17.0703518,17.173392 C17.0438861,19.0605779 16.2763819,20.8668844 14.8207705,21.8913568 Z M31.8646566,23.3741457 L30.3561139,19.2223367 L22.1517588,19.2223367 L20.6696817,23.3741457 L16.1175879,23.3741457 L24.5336683,2.23766332 L28.2123953,2.23766332 L36.4432161,23.3741457 L31.8646566,23.3741457 Z M45.9443886,20.0311307 C49.6495812,20.0311307 51.3433836,17.0655528 51.7139028,16.2837186 L56.1072027,16.2837186 C54.8368509,20.651206 50.8140704,23.7785427 45.9443886,23.7785427 C39.5926298,23.7785427 35.0670017,18.6561809 35.0670017,12.7789447 C35.0670017,7.14434673 39.3544389,1.83326633 45.9179229,1.83326633 C51.9256281,1.86022613 55.3132328,6.33555276 56.1336683,9.43592965 L51.7403685,9.43592965 C51.1051926,7.9801005 49.2525963,5.60763819 45.9443886,5.58067839 C41.8951424,5.58067839 39.3015075,9.03153266 39.3015075,12.7789447 C39.2750419,16.634196 42.001005,20.0311307 45.9443886,20.0311307 Z M69.4194305,23.3741457 L62.4854271,13.8842965 L62.4854271,23.3741457 L58.3038526,23.3741457 L58.3038526,2.23766332 L62.4854271,2.23766332 L62.4854271,12.0510302 L69.3664992,2.23766332 L73.759799,2.23766332 L66.2435511,12.7789447 L74.5273032,23.3741457 L69.4194305,23.3741457 Z" id="Shape"></path>
                        <path d="M11.5919598,14.5582915 C10.9303183,14.2617337 10.2157454,14.2617337 9.47470687,14.2617337 L6.66934673,14.2617337 L6.66934673,19.6267337 L9.60703518,19.6267337 C10.1363484,19.6267337 10.9038526,19.5997739 11.5390285,19.3032161 C12.3859296,18.9257789 13.0211055,18.2248241 13.0211055,16.8768342 C13.0475712,15.6636432 12.4123953,14.9087688 11.5919598,14.5582915 Z" id="Shape"></path>
                        <polygon id="Shape" points="107.212395 15.825402 113.167169 15.825402 110.150084 7.25218593"></polygon>
                        <path d="M10.7979899,10.4064824 C11.6184255,9.97512563 11.9889447,9.30113065 11.9889447,8.30361809 C11.9889447,7.22522613 11.4331658,6.55123116 10.8509213,6.30859296 C10.3745394,6.09291457 9.76582915,5.98507538 8.99832496,5.98507538 L6.6958124,5.98507538 L6.6958124,10.7030402 L8.99832496,10.7030402 C9.58056951,10.6760804 10.2686767,10.6221608 10.7979899,10.4064824 Z" id="Shape"></path>
                        <path d="M83.0492462,0 L83.0492462,1.64454774 C85.8281407,2.23766332 87.60134,4.44836683 87.60134,7.52178392 L83.7373534,7.52178392 C83.6314908,6.01203518 82.59933,4.93364322 81.2760469,4.93364322 C79.9527638,4.93364322 78.8941374,6.01203518 78.8941374,7.44090452 C78.8941374,9.48984925 80.6144054,10.1099246 83.3668342,11.1074372 C86.7015075,12.3475879 88.1835846,14.8548492 88.1835846,17.2273116 C88.1835846,19.9772111 86.4103853,22.7001508 83.0757119,23.6976633 L83.0757119,25.746608 L157.735343,25.746608 L157.735343,0 L83.0492462,0 Z M97.5788945,23.3741457 L93.3973199,23.3741457 L93.3973199,5.95811558 L88.8981575,5.95811558 L88.8981575,2.23766332 L102.025126,2.23766332 L102.025126,5.98507538 L97.5524288,5.98507538 L97.5524288,23.3741457 L97.5788945,23.3741457 Z M115.813735,23.3741457 L114.305193,19.2223367 L106.100838,19.2223367 L104.61876,23.3741457 L100.066667,23.3741457 L108.482747,2.23766332 L112.161474,2.23766332 L120.392295,23.3741457 L115.813735,23.3741457 Z M140.691457,17.4429899 C138.759464,21.8374372 134.286767,23.7785427 130.555109,23.7785427 C124.362144,23.7785427 119.624791,18.8988191 119.624791,12.7519849 C119.624791,6.44339196 124.573869,1.83326633 130.634506,1.83326633 C135.318928,1.83326633 139.447571,4.85276382 140.79732,8.70801508 L136.086432,8.70801508 C135.662982,8.0609799 135.160134,7.44090452 134.551424,6.95562814 C133.492797,6.09291457 132.169514,5.55371859 130.555109,5.55371859 C127.220436,5.55371859 123.832831,8.1148995 123.832831,12.7250251 C123.832831,17.4969095 127.246901,20.0041709 130.555109,20.0041709 C132.222446,20.0041709 133.625126,19.5188945 134.683752,18.7101005 C135.768844,17.9013065 136.509883,16.768995 136.827471,15.5018844 L129.073032,15.5018844 L129.073032,12.1049497 L141.644221,12.1049497 C141.670687,13.5068593 141.485427,15.6636432 140.691457,17.4429899 Z M155.591625,5.95811558 L148.128308,5.95811558 L148.128308,10.7839196 L155.459296,10.7839196 L155.459296,14.5313317 L148.128308,14.5313317 L148.128308,19.6536935 L155.591625,19.6536935 L155.591625,23.4011055 L143.946734,23.4011055 L143.946734,2.23766332 L155.591625,2.23766332 L155.591625,5.95811558 Z" id="Shape"></path>
                    </g>
                    <g id="Group" transform="translate(118.036851, 27.768593)">
                        <path d="M7.78090452,5.2841206 C7.33098827,6.84778894 5.87537688,7.9801005 4.12864322,7.9801005 C1.85259631,7.9801005 0.238190955,6.14683417 0.238190955,4.04396985 C0.238190955,2.02198492 1.77319933,0.107839196 4.12864322,0.107839196 C6.27236181,0.107839196 7.48978224,1.72542714 7.78090452,2.83077889 L6.19296482,2.83077889 C5.95477387,2.31854271 5.29313233,1.45582915 4.10217755,1.45582915 C2.64656616,1.45582915 1.72026801,2.6959799 1.72026801,4.04396985 C1.72026801,5.4189196 2.69949749,6.65907035 4.10217755,6.65907035 C5.42546064,6.65907035 6.03417085,5.58067839 6.16649916,5.3110804 L7.78090452,5.3110804 L7.78090452,5.2841206 Z" id="Shape"></path>
                        <path d="M9.21005025,7.81834171 L7.56917923,7.81834171 L10.5862647,0.242638191 L11.9095477,0.242638191 L14.8472362,7.81834171 L13.2063652,7.81834171 L12.6505863,6.33555276 L9.71289782,6.33555276 L9.21005025,7.81834171 Z M11.1685092,2.04894472 L10.1098827,5.12236181 L12.2536013,5.12236181 L11.1685092,2.04894472 Z" id="Shape"></path>
                        <path d="M17.7849246,0.242638191 C19.0288107,0.242638191 19.5316583,0.431356784 19.9815745,0.754874372 C20.5373534,1.21319095 20.8284757,1.94110553 20.8284757,2.6959799 C20.8284757,3.45085427 20.5108878,4.23268844 20.0345059,4.61012563 C19.5316583,5.04148241 19.0288107,5.20324121 17.9437186,5.20324121 L17.0174204,5.20324121 L17.0174204,7.81834171 L15.5088777,7.81834171 L15.5088777,0.242638191 L17.7849246,0.242638191 Z M17.0438861,3.88221106 L17.9172529,3.88221106 C18.2613065,3.88221106 18.5788945,3.85525126 18.8964824,3.69349246 C19.161139,3.55869347 19.39933,3.20821608 19.39933,2.7229397 C19.39933,2.23766332 19.1876047,1.91414573 18.8964824,1.77934673 C18.6053601,1.61758794 18.2613065,1.59062814 17.8907873,1.59062814 L17.0703518,1.59062814 L17.0703518,3.88221106 L17.0438861,3.88221106 Z" id="Shape"></path>
                        <polygon id="Shape" points="21.5695142 0.242638191 23.078057 0.242638191 23.078057 7.81834171 21.5695142 7.81834171"></polygon>
                        <polygon id="Shape" points="25.4070352 1.59062814 23.7926298 1.59062814 23.7926298 0.242638191 28.5035176 0.242638191 28.5035176 1.59062814 26.9155779 1.59062814 26.9155779 7.81834171 25.4070352 7.81834171"></polygon>
                        <path d="M29.5621441,7.81834171 L27.921273,7.81834171 L30.9383585,0.242638191 L32.2616415,0.242638191 L35.19933,7.81834171 L33.558459,7.81834171 L33.0026801,6.33555276 L30.0649916,6.33555276 L29.5621441,7.81834171 Z M31.5470687,2.04894472 L30.4884422,5.12236181 L32.6321608,5.12236181 L31.5470687,2.04894472 Z" id="Shape"></path>
                        <polygon id="Shape" points="35.9403685 0.242638191 37.4489112 0.242638191 37.4489112 6.47035176 39.8837521 6.47035176 39.8837521 7.81834171 35.9403685 7.81834171 35.9403685 0.242638191"></polygon>
                    </g>
                </g>
            </g>
        </g>
    </g>
</svg>