<?xml version="1.0" encoding="utf-8"?>
<!-- Generator: Adobe Illustrator 22.1.0, SVG Export Plug-In . SVG Version: 6.00 Build 0)  -->
<svg width="85px" height="36px" version="1.1" id="Layer_1" xmlns="http://www.w3.org/2000/svg" xmlns:xlink="http://www.w3.org/1999/xlink" x="0px" y="0px"
	 viewBox="0 0 218.7 81.8" style="enable-background:new 0 0 218.7 81.8;" xml:space="preserve">
<style type="text/css">
	.st0{fill:#B1DAD9;}
</style>
<g>
	<path class="st0" d="M83.7,1.1c0,13.9,0,27.7,0,41.5c-2.6,0-5.2,0-7.9,0c0-6,0-12,0-18.1c-4.7,0-9.3,0-14,0c0,6,0,12,0,18.1
		c-2.7,0-5.3,0-7.9,0c0-13.8,0-27.6,0-41.5c2.6,0,5.1,0,7.9,0c0,5.2,0,10.3,0,15.6c4.7,0,9.2,0,13.9,0c0-5.2,0-10.3,0-15.6
		C78.4,1.1,81,1.1,83.7,1.1z"/>
	<path class="st0" d="M99.8,34.1c-1,2.6-2,5.1-3,7.6c-0.3,0.8-0.7,1-1.5,1c-2.3-0.1-4.6,0-7.1,0c0.1-0.4,0.2-0.7,0.3-1
		C93.6,28.4,98.7,15.2,103.8,2c0.3-0.7,0.6-1,1.4-1c2,0.1,4.1,0.1,6.1,0c0.7,0,1.1,0.2,1.3,0.9c5.1,13.3,10.2,26.6,15.3,39.9
		c0.1,0.3,0.2,0.5,0.3,0.9c-2.6,0-5.1,0-7.6,0c-0.3,0-0.7-0.4-0.8-0.8c-0.9-2.3-1.8-4.6-2.7-6.9c-0.1-0.4-0.6-0.8-0.9-0.8
		C110.7,34.1,105.3,34.1,99.8,34.1z M102.7,26.3c3.8,0,7.3,0,11,0c-1.8-4.7-3.6-9.4-5.5-14.2C106.4,16.9,104.6,21.6,102.7,26.3z"/>
	<path class="st0" d="M129.4,42.7c1.9-5,3.8-9.8,5.6-14.6c3.3-8.7,6.7-17.3,10-26c0.3-0.8,0.7-1.1,1.6-1.1c2,0.1,4,0,6,0.1
		c0.4,0,1,0.4,1.1,0.7c5.2,13.5,10.4,27,15.6,40.6c0,0.1,0,0.2,0,0.4c-2.6,0-5.2,0-7.7,0c-0.2,0-0.6-0.5-0.7-0.8
		c-0.9-2.3-1.8-4.5-2.6-6.8c-0.3-0.7-0.6-0.9-1.4-0.9c-5,0-10,0-15,0c-0.7,0-1.1,0.2-1.3,0.9c-0.9,2.3-1.8,4.6-2.7,6.9
		c-0.1,0.4-0.6,0.8-0.9,0.8C134.5,42.7,132.1,42.7,129.4,42.7z M155,26.3c-1.9-4.8-3.6-9.4-5.5-14.3c-1.9,4.9-3.7,9.5-5.5,14.3
		C147.7,26.3,151.3,26.3,155,26.3z"/>
	<path class="st0" d="M42.9,30.1c1.8,1.9,3.5,3.7,5.3,5.6c-2,2.1-4.1,3.8-6.5,5.2c-7.8,4.5-21.2,4.1-28.4-4.4
		C9.5,32,7.9,26.8,8.1,21c0.1-4.2,1.2-8.1,3.7-11.6c3.4-4.8,8-7.7,13.6-8.9c9.1-1.8,16.7,1,23.1,7.8c-1.9,1.8-3.7,3.5-5.4,5.1
		c-2-1.4-3.8-2.9-5.9-4c-7.4-3.9-16.6-1.1-19.9,6.3c-4.1,9,1.1,21,13.9,20.4c4-0.2,7.3-1.9,10.2-4.6C41.9,31.1,42.3,30.6,42.9,30.1z
		"/>
	<path class="st0" d="M212.4,8.3c-1.9,1.8-3.7,3.5-5.5,5.3c-0.9-0.7-1.6-1.5-2.5-2.2c-4.8-3.7-10.1-4.9-15.9-2.6
		c-6.7,2.7-10.1,10.2-8,17.4c2.2,7.4,9.8,11.5,17.6,9.5c2.8-0.7,5.1-2.2,7.2-4.1c0.5-0.4,0.9-0.9,1.2-1c1.9,1.7,3.8,3.4,5.8,5.1
		c-4.1,4-8.5,7.1-14.2,7.8c-4.8,0.6-9.5,0.4-13.9-1.8c-7-3.4-10.9-9-11.9-16.7c-0.5-4.3-0.1-8.6,1.8-12.5C177,5.9,182.3,2,189.3,0.6
		C198.3-1.3,205.9,1.6,212.4,8.3z"/>
	<path class="st0" d="M65.4,81.3c-1.4,0-2.6,0-3.8,0c0-6.7,0-13.3,0-20.1c1.1,0,2.1-0.1,3.1,0c0.3,0,0.7,0.4,0.9,0.8
		c2.4,3.7,4.8,7.4,7.2,11c0.2,0.4,0.5,0.7,0.9,1.4c0-4.6,0-8.8,0-13.1c1.3,0,2.5,0,3.7,0c0,6.7,0,13.3,0,20.1c-1.1,0-2.2,0.1-3.3,0
		c-0.3,0-0.6-0.4-0.8-0.7c-2.6-4-5.2-7.9-8-11.9C65.4,72.8,65.4,77,65.4,81.3z"/>
	<path class="st0" d="M155.1,73c0,1.4,0,2.8,0,4.2c0,1.4,0,2.7,0,4.1c-1.3,0-2.5,0-3.7,0c0-6.7,0-13.3,0-20.1c2.8,0,5.7-0.3,8.4,0.5
		c2,0.6,3.1,2.2,3.3,4.3c0.3,2.2-0.2,4.2-2.2,5.6c-0.4,0.3-0.9,0.5-1.5,0.8c1.5,2.9,3.1,5.8,4.7,8.9c-1.3,0-2.5,0.1-3.6,0
		c-0.3,0-0.7-0.4-0.9-0.7c-1.2-2.2-2.4-4.4-3.6-6.7c-0.2-0.3-0.4-0.7-0.6-1C155.3,72.9,155.2,73,155.1,73z M155.1,69.1
		c1.5-0.1,3.1,0.4,4-1.1c0.3-0.5,0.3-1.7-0.1-2.2c-1-1.3-2.5-0.8-3.9-0.9C155.1,66.4,155.1,67.7,155.1,69.1z"/>
	<path class="st0" d="M119.9,61.2c1.3,0,2.5,0,3.8,0c0,0.4,0.1,0.8,0.1,1.3c0,4.2,0,8.3,0,12.5c0,2.5,1.8,3.7,4,3
		c1-0.3,1.7-1,1.8-2.1c0.1-1.8,0.2-3.6,0.2-5.4c0-3,0-6.1,0-9.2c1.3,0,2.5,0,3.7,0c0.1,0.1,0.1,0.2,0.1,0.2c0,4.9,0,9.8-0.2,14.6
		c-0.1,3.4-2.9,5.6-6.5,5.7c-3.6,0.1-6.4-2-6.6-5.4c-0.3-3.4-0.2-6.8-0.3-10.2C119.8,64.6,119.9,63,119.9,61.2z"/>
	<path class="st0" d="M44.7,61.3c0,1.2,0,2.4,0,3.7c-2.3,0-4.6,0-7,0c0,1.3,0,2.4,0,3.7c2.3,0,4.6,0,7,0c0,1.3,0,2.4,0,3.7
		c-2.3,0-4.6,0-7,0c0,1.8,0,3.5,0,5.3c2.3,0,4.6,0,7,0c0,1.3,0,2.5,0,3.7c-3.6,0-7.2,0-10.8,0c0-6.7,0-13.3,0-20
		C37.5,61.3,41.1,61.3,44.7,61.3z"/>
	<path class="st0" d="M191.2,77.5c0,1.4,0,2.5,0,3.7c-3.6,0-7.2,0-10.8,0c0-6.7,0-13.3,0-20c3.6,0,7.1,0,10.8,0c0,1.2,0,2.3,0,3.6
		c-2.3,0-4.6,0-7,0c0,1.3,0,2.4,0,3.7c2.3,0,4.6,0,7,0c0,1.3,0,2.4,0,3.7c-2.3,0-4.6,0-7,0c0,1.8,0,3.5,0,5.3
		C186.4,77.5,188.7,77.5,191.2,77.5z"/>
	<path class="st0" d="M0,61.3c0.2-0.1,0.2-0.1,0.3-0.1C3.8,61,3.8,61,5,64.4c1.3,3.6,2.6,7.2,3.9,11.1c0.4-1,0.7-1.9,1-2.7
		c1.3-3.5,2.6-7,3.8-10.6c0.2-0.7,0.5-1,1.3-0.9c0.9,0.1,1.9,0,3,0c-0.8,2.3-1.6,4.4-2.3,6.6c-1.5,4.1-3,8.2-4.4,12.4
		c-0.3,0.9-0.7,1.2-1.7,1.2C7,81.3,7,81.3,6.2,79c-1.9-5.4-3.8-10.8-5.7-16.2C0.3,62.3,0.1,61.8,0,61.3z"/>
	<path class="st0" d="M206.1,77.5c1.1-0.7,2.1-1.2,3.1-1.9c0.2,0.3,0.4,0.7,0.7,0.9c0.7,0.6,1.4,1.2,2.2,1.6c1,0.4,1.9,0,2.5-0.9
		c0.6-0.9,0.3-1.7-0.3-2.4c-0.7-0.8-1.5-1.4-2.3-2.1c-1.1-1-2.2-1.9-3.2-3c-2-2.1-2.3-4.5-0.9-6.5c1.4-2.1,4.2-3,6.7-1.9
		c1.4,0.6,2.6,1.6,4,2.6c-1.2,1.1-2.1,1.8-3.1,2.7c-0.4-0.4-0.6-0.8-1-1.1c-0.6-0.4-1.2-0.9-1.9-0.9c-0.6,0-1.4,0.3-1.7,0.8
		c-0.2,0.3,0.1,1.3,0.4,1.6c1,1.1,2.2,2,3.3,3c0.7,0.6,1.5,1.2,2.1,2c2.1,2.2,2.4,4.9,1.1,7.1c-1.3,2.2-4,3.3-6.8,2.7
		C208.8,81.2,207.3,79.7,206.1,77.5z"/>
	<path class="st0" d="M100.8,65c0,5.5,0,10.8,0,16.3c-1.3,0-2.5,0-3.9,0c0-5.4,0-10.7,0-16.2c-1.2,0-2.3,0-3.5,0c0-1.3,0-2.5,0-3.7
		c3.6,0,7.2,0,11,0c0,1.2,0,2.3,0,3.7C103.2,65,102,65,100.8,65z"/>
</g>
</svg>
