<?xml version="1.0" encoding="UTF-8"?>
<svg width="142px" height="22px" viewBox="0 0 142 22" version="1.1" xmlns="http://www.w3.org/2000/svg" xmlns:xlink="http://www.w3.org/1999/xlink">
    <!-- Generator: Sketch 51.3 (57544) - http://www.bohemiancoding.com/sketch -->
    <title>chicago-tribune copy</title>
    <desc>Created with Sketch.</desc>
    <defs></defs>
    <g id="Page-1" stroke="none" stroke-width="1" fill="none" fill-rule="evenodd">
        <g id="hi-fi-v6" transform="translate(-630.000000, -1010.000000)" fill="#A8D5D4" fill-rule="nonzero">
            <g id="Press-Bar-5-up-2" transform="translate(62.000000, 970.000000)">
                <g id="chicago-tribune-copy" transform="translate(568.000000, 40.000000)">
                    <path d="M30.3082353,2.29058824 L28.6690196,3.96690196 L26.9935686,2.3665098 L28.669451,0.576313725 L30.3086667,2.29101961 L30.3082353,2.29058824 Z M40.234549,6.35886275 C40.1482745,7.49768627 39.276902,8.64082353 38.0690588,8.64082353 C36.9431765,8.64082353 36.2486667,7.95494118 35.8647451,7.15258824 L35.7137647,7.2474902 L35.7137647,15.0980392 L37.9180784,16.415451 L39.1259216,15.173098 L39.3157255,15.3421961 L36.4341569,18.3367843 L32.4223922,15.9081569 L32.4223922,15.8313725 C32.8365098,15.6989412 33.0090588,15.2852549 33.0090588,14.6256863 L33.0090588,8.54333333 C34.7043529,7.65901961 36.542,6.51156863 37.6635686,5.69972549 C37.8835686,6.0594902 38.3839608,6.50984314 39.0223922,6.50984314 C39.5529804,6.50984314 39.967098,6.38905882 40.1741569,6.24670588 L40.2518039,6.35886275 L40.234549,6.35886275 Z M32.0816078,15.8533725 L29.674549,18.3596471 C28.3200392,17.889451 27.5478824,17.229451 27.5478824,15.5341569 L27.5478824,8.14862745 L26.814549,7.62062745 L26.1372941,8.31729412 L25.9690588,8.14905882 L28.3243529,5.70317647 L30.8306275,7.35964706 L30.8306275,7.39847059 C30.4467059,7.63141176 30.2655294,7.83415686 30.2655294,8.64082353 L30.2655294,15.2321961 C30.2655294,15.7843529 30.6149412,16.3365098 31.2102353,16.4184706 L31.9263137,15.6851373 L32.094549,15.8576863 L32.0816078,15.8533725 Z M26.469451,15.9310196 L24.0796471,18.3596471 C22.8157255,17.9843529 21.9874902,17.1906275 21.9874902,15.6290588 L21.9874902,8.67490196 L20.4647451,7.63960784 L19.6192549,8.52521569 L19.6192549,16.0958039 L20.5035686,16.6419216 L18.5278824,18.3544706 L16.2890588,16.4909412 L16.2890588,16.4521176 C16.6643529,16.3485882 16.8929804,16.038 16.8929804,15.1536863 L16.8929804,2.26901961 C16.8929804,1.32733333 16.7247451,1.04521569 16.5349412,0.724705882 L16.6686667,0.668627451 C17.0827843,1.02839216 17.3416078,1.33078431 17.4408235,1.96835294 L17.4796471,1.96835294 C18.0878824,0.955921569 18.8427843,0.290313725 20.3051373,0.103098039 L20.3439608,0.176431373 C19.9384706,0.676823529 19.6278824,1.22035294 19.6278824,2.06152941 L19.6278824,8.16545098 L21.9659216,5.698 C22.8157255,6.27603922 24.4031765,7.43211765 25.337098,7.99721569 L25.337098,8.05329412 C25.0092549,8.19133333 24.7547451,8.44584314 24.7547451,9.27839216 L24.7547451,14.985451 C24.7547451,15.818 24.9618039,16.1156471 25.6390588,16.4521176 L26.3137255,15.7537255 L26.4819608,15.9219608 L26.469451,15.9310196 Z M69.054549,8.05847059 C68.6792549,8.23101961 68.4721961,8.45533333 68.4721961,9.36121569 L68.4721961,15.4435686 C67.3549412,15.9310196 64.8184706,17.3631765 63.5372941,18.3812157 C62.1655294,17.4580784 61.449451,16.9533725 60.034549,16.0647451 L60.034549,16.0086667 C60.4314118,15.8231765 60.6212157,15.6161176 60.6212157,14.6714118 L60.6212157,8.64039216 C62.3380784,7.81215686 64.2016078,6.64313725 65.5172941,5.68290196 C66.3584706,6.23937255 68.096902,7.37819608 69.0588627,7.99937255 L69.0588627,8.05545098 L69.054549,8.05847059 Z M65.7200392,16.6082745 L65.7200392,8.80862745 C65.0816078,8.41305882 64.042,7.62235294 63.6106275,7.30184314 L63.3474902,7.45282353 L63.3474902,15.2878431 C63.6667059,15.513451 64.7408235,16.2476471 65.4008235,16.7562353 L65.7243529,16.6052549 L65.7200392,16.6082745 Z M59.1976863,17.4710196 C59.1976863,18.2043529 58.1710196,18.9808235 57.0537647,19.8823922 C55.587098,21.0686667 54.8321961,21.6337647 54.8321961,21.6337647 C54.1074902,21.2239608 53.6890588,21.1074902 52.6106275,21.1074902 C51.2518039,21.1074902 50.4796471,21.2498431 49.522,21.6337647 L49.4659216,21.6165098 C50.2380784,20.1757255 51.7737647,18.9808235 53.9263137,18.9808235 C54.8839608,18.9808235 55.9710196,19.3776863 56.6741569,19.8478824 C56.8596471,19.7314118 57.4463137,19.2914118 57.4463137,18.9635686 C57.4463137,18.0016078 55.6388627,18.1137647 55.3757255,16.3235686 L53.3612157,18.3725882 C51.0016078,16.8412157 49.6514118,16.0000392 49.6514118,16.0000392 L49.6514118,15.9267059 C50.1172941,15.7282745 50.2337647,15.4953333 50.2337647,14.3263137 L50.2337647,8.63607843 C52.2267059,7.58568627 54.0729804,6.53443137 55.1902353,5.67945098 L58.6929804,7.99592157 L58.6929804,8.052 C58.2603137,8.27631373 58.1097647,8.46611765 58.1097647,9.50141176 L58.1097647,14.8866667 C58.1097647,16.1751765 59.2028627,16.2963922 59.2028627,17.4675686 L59.1976863,17.4710196 Z M55.336902,15.9827843 L55.336902,8.73572549 C54.2843529,8.08435294 53.2490588,7.26905882 53.2490588,7.26905882 L52.9686667,7.44160784 L52.9686667,15.202 L54.8710196,16.5047451 L55.3455294,15.9957255 L55.336902,15.9827843 Z M49.1423922,15.9267059 L46.7525882,18.3553333 C45.6655294,17.9972941 44.7467059,17.4278824 44.6647451,15.909451 L41.9686667,18.3596471 C40.6529804,17.794549 39.7082745,16.6082745 39.7082745,15.1027843 C39.7082745,13.0882745 41.3388627,12.0443529 42.8357255,11.5051373 L42.8357255,11.4878824 C41.5502353,10.8623922 40.4890588,9.68043137 40.2000392,8.24827451 L44.3455294,5.69023529 L48.0553333,8.1792549 L48.0553333,8.23964706 C47.6067059,8.42945098 47.416902,8.65376471 47.416902,9.50356863 L47.416902,15.0117647 C47.416902,15.6307843 47.6757255,16.2903529 48.3012157,16.4620392 L48.9827843,15.7658039 L49.1553333,15.9353333 L49.1423922,15.9267059 Z M44.6604314,11.069451 L44.6604314,8.82631373 L42.3267059,7.22592157 L42.0290588,7.41572549 C42.1239608,8.74435294 42.309451,10.4827843 43.1980784,11.3714118 C43.5216078,11.2592549 44.2808235,11.116902 44.6690588,11.069451 L44.6604314,11.069451 Z M44.6604314,15.5514118 L44.6604314,11.3153333 C43.0212157,11.509451 42.0980784,12.6698431 42.0980784,14.1235686 C42.0980784,15.3314118 42.5337647,16.0647451 43.6251373,16.4961176 L44.6604314,15.5557255 L44.6604314,15.5514118 Z M16.1290196,0.690196078 C16.0574118,2.32941176 14.9039216,3.85388235 12.8505882,3.85388235 C12.5896078,3.85388235 12.3523529,3.83231373 12.1345098,3.77882353 L12.1345098,16.7359608 C13.4545098,16.5685882 14.6494118,16.0013333 15.7507059,15.2296078 L15.8456078,15.5117255 C14.6291373,16.9309412 12.3256078,19.2560392 8.76678431,19.2560392 C3.92117647,19.2564706 0.366666667,15.965098 0.366666667,10.3486275 C0.365372549,5.19803922 4.61568627,2.33803922 7.37086275,1.27254902 L7.59517647,1.386 C4.99831373,3.11019608 3.60282353,5.19501961 3.60282353,8.82545098 C3.60282353,12.0262353 4.75243137,14.3038824 6.48439216,15.6411373 L7.06847059,15.2442745 L7.06847059,5.30156863 C7.06847059,4.39007843 6.93647059,4.07776471 6.50337255,3.96431373 L6.50337255,3.8892549 C8.23490196,3.02564706 10.9844706,1.53741176 12.5098039,0.332156863 C12.98,0.88172549 13.5666667,1.12329412 14.2987059,1.12329412 C15.0984706,1.12329412 15.6359608,0.840745098 15.994,0.576745098 L16.1264314,0.690196078 L16.1290196,0.690196078 Z M11.832549,16.7739216 L11.832549,3.68392157 C11.1458039,3.42207843 10.6656863,2.88458824 10.2321569,2.2534902 L10.1372549,2.29101961 L10.1372549,13.5541569 L6.70956863,15.8318039 C7.88290196,16.647098 9.59329412,16.7937647 11.3425098,16.7937647 C11.5077255,16.7937647 11.6703529,16.789451 11.8321176,16.7765098 L11.832549,16.7739216 Z M132.715216,15.978902 L130.341804,18.4083922 C128.816902,17.9183529 128.232392,17.0331765 128.232392,15.6583922 L128.232392,8.6145098 L126.970627,7.71078431 L125.862,8.85952941 L125.862,16.1290196 L126.750627,16.6941176 L124.774941,18.4083922 L122.553373,16.5621176 L122.553373,16.5060392 C123.027882,16.28 123.140039,16.0453333 123.140039,15.1873333 L123.140039,8.93458824 C123.140039,8.2374902 122.782,7.72976471 122.143569,7.65427451 L121.42749,8.38760784 L121.237686,8.19952941 L123.649059,5.73207843 C125.063961,6.09011765 125.870627,7.01756863 125.870627,8.44454902 L128.471804,5.7325098 C129.338863,6.37094118 130.589843,7.25956863 131.521608,7.82035294 L131.521608,7.87643137 C131.129059,8.02741176 130.995333,8.32937255 130.995333,9.11878431 L130.995333,15.0717255 C130.995333,15.8913333 131.275725,16.2191765 131.883961,16.5038824 L132.561216,15.8050588 L132.733765,15.9732941 L132.715216,15.978902 Z M121.77302,15.9970196 L119.456549,18.4083922 C118.307804,18.2004706 117.309176,17.1082353 117.309176,15.9409412 L114.560039,18.4083922 C113.485922,17.6685882 112.51102,16.9934902 111.587882,16.449098 L111.587882,16.3921569 C112.092588,16.1203922 112.191804,15.9694118 112.191804,15.0169412 L112.191804,8.84054902 C112.191804,8.18572549 111.872588,7.82337255 111.346314,7.63486275 L110.690627,8.31211765 L110.505137,8.13956863 L112.821608,5.72819608 C113.973373,6.1207451 114.93102,7.00937255 114.93102,8.43721569 L114.93102,15.6588235 L116.233765,16.5431373 L117.307882,15.5639216 L117.307882,8.01188235 L116.518471,7.46533333 L118.420824,5.7325098 L120.620824,7.51839216 L120.620824,7.55290196 C120.202392,7.74701961 120.055725,7.96701961 120.055725,8.73917647 L120.055725,14.8603529 C120.055725,15.818 120.189451,16.1760392 120.978863,16.4995686 L121.600039,15.818 L121.789843,15.9862353 L121.77302,15.9970196 Z M98.9654902,2.34321569 L97.3271373,4.01909804 L95.6508235,2.41870588 L97.3271373,0.629372549 L98.9663529,2.34192157 L98.9654902,2.34321569 Z M100.736275,15.8999608 L98.3257647,18.4062353 C96.9695294,17.9360392 96.1973725,17.2760392 96.1973725,15.5807451 L96.1973725,8.20039216 L95.4627451,7.67282353 L94.7841961,8.3694902 L94.615098,8.19952941 L96.9695294,5.7514902 L99.4745098,7.40882353 L99.4745098,7.44678431 C99.088,7.68058824 98.9094118,7.8445098 98.9094118,8.40745098 L98.9094118,15.2813725 C98.9094118,15.8348235 99.257098,16.3839608 99.851098,16.4676471 L100.567176,15.733451 L100.736275,15.9029804 L100.736275,15.8999608 Z" id="Shape"></path>
                    <path d="M94.8601176,6.52407843 C94.7281176,7.46619608 94.0124706,8.72839216 92.7696863,8.72839216 C91.9729412,8.72839216 91.3944706,8.27545098 91.0743922,7.76729412 L90.8673333,7.97435294 C90.8776863,8.08219608 90.8863137,8.31168627 90.8863137,8.42643137 L90.8863137,15.3197647 L92.9612157,16.4870588 L93.6600392,15.7709804 L93.8498431,15.9409412 L91.4039608,18.4269412 L87.6380784,16.0358431 L87.6380784,15.9797647 C88.0737647,15.7899608 88.2031765,15.5423529 88.2031765,14.8866667 L88.2031765,9.14164706 C88.2031765,8.18098039 87.9961176,7.74831373 87.2239608,7.59733333 L86.4906275,8.3505098 L86.3051373,8.18098039 L88.6949412,5.7325098 C89.8682745,6.04741176 90.6188627,6.72898039 90.8259216,7.69094118 L92.6721961,5.74976471 C93.0302353,6.21996078 93.4616078,6.578 93.9706275,6.578 C94.3114118,6.578 94.5572941,6.52192157 94.7988627,6.40976471 L94.8765098,6.52192157 L94.8601176,6.52407843 Z" id="Shape"></path>
                    <path d="M87.7472157,0.591843137 C87.4797647,2.67407843 86.6239216,4.52811765 84.414,4.52811765 C84.1508627,4.52811765 83.7552941,4.49058824 83.5857647,4.47203922 L83.5857647,16.826549 C84.9230196,16.6380392 86.4612941,15.990549 87.1070588,15.4707451 L87.2019608,15.7153333 C86.1942745,17.1604314 83.4145098,19.3690588 79.9712941,19.3690588 C75.6170196,19.3690588 72.2497255,16.5047451 72.2497255,11.8761176 C72.2497255,7.89023529 75.5428235,5.01298039 77.6927843,4.24945098 L77.8812941,4.32709804 C76.3801176,5.69454902 75.3189412,7.55807843 75.3189412,10.487098 C75.3189412,12.9329804 76.2614902,14.4600392 77.7117647,15.6506275 L78.5210196,15.2365098 L78.5210196,7.73062745 C78.5210196,6.91964706 78.2578824,6.6565098 77.9567843,6.60043137 L77.9567843,6.52709804 L81.5898039,4.6074902 L81.5898039,13.9855294 L77.9378039,15.8318039 C78.9170196,16.5867059 80.4803137,16.9835686 81.9668235,16.9835686 C82.4775686,16.9835686 82.713098,16.962 83.285098,16.8714118 L83.285098,4.47333333 C80.5743529,4.24729412 77.6867451,3.09811765 75.4707843,3.09811765 C73.9143922,3.09811765 72.7401961,3.73741176 72.7401961,4.92411765 C72.7401961,5.64105882 73.3027059,5.94862745 73.6624706,6.11039216 L73.3613725,6.28035294 C72.7013725,5.97839216 71.8731373,5.258 71.8731373,3.7352549 C71.8731373,1.518 73.6590196,0.0642745098 76.0544314,0.0642745098 C79.3695294,0.0642745098 82.4836078,1.81564706 85.4130588,1.81564706 C86.3154902,1.81564706 87.1540784,1.33682353 87.578549,0.461137255 L87.7467843,0.594862745 L87.7472157,0.591843137 Z M141.227922,9.33058824 C139.65902,10.2899608 137.794196,11.5254118 136.369804,12.5507843 L136.369804,15.2067451 L138.686275,16.4870588 L139.966588,15.1683529 L140.136118,15.3193333 L137.142392,18.4079608 L133.001216,15.8844314 L133.001216,15.8274902 C133.415333,15.7153333 133.643961,15.4521961 133.643961,14.5118039 L133.643961,8.67058824 C135.322,7.91741176 137.090627,6.67505882 138.371804,5.71439216 L141.236118,9.33058824 L141.227922,9.33058824 Z M138.704392,10.6290196 C138.315294,10.0798824 137.059137,8.22627451 136.519922,7.37215686 L136.369804,7.46576471 L136.369804,12.1927451 L138.704392,10.629451 L138.704392,10.6290196 Z M110.171686,8.10635294 C109.710118,8.29788235 109.606588,8.64643137 109.606588,9.25509804 L109.606588,15.5078431 C108.472078,15.9935686 105.933882,17.3743922 104.653569,18.4088235 C103.743373,17.7755686 102.299137,16.7838431 101.13098,16.0923529 L101.13098,16.0362745 C101.639137,15.8279216 101.75302,15.5401961 101.75302,14.5092157 L101.75302,2.39972549 C101.75302,1.55207843 101.602039,1.11854902 101.413961,0.779921569 L101.526118,0.723843137 C101.922118,1.06290196 102.186118,1.45803922 102.299137,2.00415686 L102.336235,2.00415686 C102.943176,0.992588235 103.698078,0.345529412 105.161725,0.157882353 L105.180706,0.271333333 C104.77349,0.767411765 104.484039,1.22035294 104.484039,2.19094118 L104.484039,8.19996078 L106.819059,5.7325098 C107.630039,6.31917647 109.271412,7.4925098 110.171686,8.04898039 L110.171686,8.10505882 L110.171686,8.10635294 Z M106.857451,16.6376078 L106.857451,8.72666667 L105.331255,7.69137255 L104.484039,8.55713725 L104.484039,15.2619608 L106.574471,16.7872941 L106.854863,16.6363137 L106.857451,16.6376078 Z" id="Shape"></path>
                </g>
            </g>
        </g>
    </g>
</svg>