<?xml version="1.0" encoding="UTF-8"?>
<svg width="153px" height="30px" viewBox="0 0 153 30" version="1.1" xmlns="http://www.w3.org/2000/svg" xmlns:xlink="http://www.w3.org/1999/xlink">
    <!-- Generator: Sketch 51.3 (57544) - http://www.bohemiancoding.com/sketch -->
    <title>dentons-logo</title>
    <desc>Created with Sketch.</desc>
    <defs></defs>
    <g id="Page-1" stroke="none" stroke-width="1" fill="none" fill-rule="evenodd">
        <g id="hi-fi-v6" transform="translate(-62.000000, -579.000000)" fill-rule="nonzero">
            <g id="client-bar" transform="translate(62.000000, 573.000000)">
                <g id="dentons-logo" transform="translate(0.000000, 6.000000)">
                    <path d="M151.950498,13.2169435 L140.68505,1.95149502 C139.265781,0.532225914 137.757807,0 135.451495,0 L2.04019934,0 C0.887043189,0 0,0.887043189 0,2.04019934 L0,27.3209302 C0,28.4740864 0.887043189,29.3611296 2.04019934,29.3611296 L135.451495,29.3611296 C137.757807,29.3611296 139.265781,28.8289037 140.68505,27.4096346 L152.039203,16.0554817 C152.748837,15.3458472 152.748837,14.0152824 151.950498,13.2169435" id="Shape" fill="#DEF2F2"></path>
                    <g id="Group" transform="translate(6.209302, 7.983389)" fill="#5BC0BE">
                        <path d="M41.8684385,10.2009967 C44.2634551,10.2009967 44.9730897,8.78172757 44.9730897,6.65282392 C44.9730897,4.61262458 44.2634551,3.10465116 41.8684385,3.10465116 L40.0056478,3.10465116 L40.0056478,10.1122924 L41.8684385,10.1122924 L41.8684385,10.2009967 Z M37.4332226,12.507309 L37.4332226,0.887043189 L41.9571429,0.887043189 C45.9488372,0.887043189 47.6342193,3.10465116 47.6342193,6.74152824 C47.6342193,10.289701 45.9488372,12.5960133 41.9571429,12.5960133 L37.4332226,12.5960133 L37.4332226,12.507309 Z" id="Shape"></path>
                        <polygon id="Shape" points="58.9883721 7.71727575 53.4887043 7.71727575 53.4887043 10.2009967 59.786711 10.2009967 59.786711 12.507309 50.9162791 12.507309 50.9162791 0.887043189 59.786711 0.887043189 59.786711 3.19335548 53.4887043 3.19335548 53.4887043 5.49966777 58.9883721 5.49966777"></polygon>
                        <polygon id="Shape" points="71.5843854 12.507309 65.7299003 5.1448505 65.8186047 12.507309 63.2461794 12.507309 63.2461794 0.887043189 65.3750831 0.887043189 71.3182724 8.24950166 71.1408638 0.887043189 73.8019934 0.887043189 73.8019934 12.507309"></polygon>
                        <polygon id="Shape" points="83.1159468 3.19335548 83.1159468 12.507309 80.5435216 12.507309 80.5435216 3.19335548 76.8179402 3.19335548 76.8179402 0.887043189 86.8415282 0.887043189 86.8415282 3.19335548"></polygon>
                        <path d="M94.7362126,2.83853821 C92.2524917,2.83853821 91.5428571,4.34651163 91.5428571,6.65282392 C91.5428571,9.04784053 92.2524917,10.4671096 94.7362126,10.4671096 C97.2199336,10.4671096 97.9295681,8.95913621 97.9295681,6.65282392 C97.9295681,4.34651163 97.2199336,2.83853821 94.7362126,2.83853821 M94.7362126,0.620930233 C98.8166113,0.620930233 100.590698,2.83853821 100.590698,6.74152824 C100.590698,10.555814 98.8166113,12.8621262 94.7362126,12.8621262 C90.655814,12.8621262 88.8817276,10.6445183 88.8817276,6.74152824 C88.9704319,2.83853821 90.655814,0.620930233 94.7362126,0.620930233" id="Shape"></path>
                        <polygon id="Shape" points="112.210963 12.507309 106.356478 5.1448505 106.445183 12.507309 103.872757 12.507309 103.872757 0.887043189 106.001661 0.887043189 111.94485 8.24950166 111.767442 0.887043189 114.428571 0.887043189 114.428571 12.507309"></polygon>
                        <path d="M120.371761,4.34651163 C120.371761,5.23355482 120.992691,5.41096346 122.678073,5.49966777 C126.137542,5.76578073 127.201993,6.5641196 127.201993,9.04784053 C127.201993,11.1767442 125.871429,12.7734219 121.968439,12.7734219 C120.815282,12.7734219 118.775083,12.507309 117.976744,12.0637874 L117.976744,9.75747508 C118.952492,10.1122924 120.460465,10.4671096 122.057143,10.4671096 C124.008638,10.4671096 124.629568,9.93488372 124.629568,9.04784053 C124.629568,8.16079734 124.008638,7.80598007 122.323256,7.71727575 C118.863787,7.45116279 117.799336,6.65282392 117.799336,4.34651163 C117.799336,2.04019934 119.218605,0.620930233 122.678073,0.620930233 C123.831229,0.620930233 125.69402,0.79833887 126.669767,1.24186047 L126.669767,3.54817276 C125.605316,3.19335548 124.186047,2.83853821 122.678073,2.83853821 C120.992691,2.92724252 120.371761,3.37076412 120.371761,4.34651163" id="Shape"></path>
                        <path d="M7.71727575,9.22524917 C7.27375415,10.1122924 6.47541528,10.8219269 5.32225914,11.3541528 C4.16910299,11.8863787 3.19335548,12.1524917 2.30631229,12.1524917 C1.24186047,12.1524917 0.709634551,11.9750831 0.443521595,11.5315615 C0.266112957,11.0880399 0.177408638,10.8219269 0.177408638,10.6445183 L0.177408638,10.555814 L0.177408638,10.4671096 C0.177408638,10.3784053 0.266112957,10.3784053 0.354817276,10.3784053 C0.354817276,10.3784053 0.443521595,10.3784053 0.532225914,10.3784053 C0.620930233,10.3784053 0.79833887,10.3784053 0.975747508,10.3784053 L2.12890365,10.289701 C3.7255814,10.2009967 4.87873754,9.8461794 5.67707641,9.13654485 C6.47541528,8.4269103 6.91893688,7.62857143 7.09634551,6.74152824 L7.18504983,6.20930233 C7.18504983,6.03189369 7.18504983,5.94318937 7.18504983,5.85448505 C7.18504983,5.76578073 7.09634551,5.76578073 7.09634551,5.76578073 L6.91893688,5.76578073 L6.03189369,5.76578073 L5.32225914,5.85448505 L4.52392027,5.94318937 C4.08039867,6.03189369 3.7255814,6.03189369 3.45946844,6.12059801 C3.19335548,6.20930233 3.01594684,6.20930233 2.92724252,6.20930233 C2.74983389,6.20930233 2.66112957,6.12059801 2.57242525,6.03189369 C2.48372093,5.94318937 2.48372093,5.76578073 2.48372093,5.67707641 C2.48372093,5.49966777 2.48372093,5.41096346 2.57242525,5.32225914 C2.66112957,5.23355482 2.74983389,5.05614618 3.10465116,4.79003322 C3.37076412,4.52392027 3.63687708,4.34651163 3.90299003,4.43521595 L4.16910299,4.52392027 C4.25780731,4.52392027 4.34651163,4.52392027 4.52392027,4.61262458 C4.7013289,4.61262458 4.79003322,4.61262458 4.96744186,4.61262458 L5.49966777,4.61262458 L6.20930233,4.61262458 L6.83023256,4.61262458 C7.09634551,4.61262458 7.18504983,4.61262458 7.27375415,4.52392027 C7.27375415,4.52392027 7.27375415,4.43521595 7.27375415,4.43521595 C7.27375415,4.43521595 7.27375415,4.34651163 7.27375415,4.34651163 L7.27375415,4.16910299 L7.27375415,3.2820598 L7.09634551,2.39501661 C7.09634551,2.39501661 7.09634551,2.30631229 7.09634551,2.12890365 C7.09634551,1.95149502 7.18504983,1.8627907 7.18504983,1.68538206 C7.27375415,1.59667774 7.36245847,1.50797342 7.53986711,1.4192691 C7.71727575,1.33056478 7.80598007,1.33056478 7.80598007,1.33056478 C8.33820598,1.4192691 8.69302326,1.59667774 8.87043189,1.8627907 C9.04784053,2.12890365 9.04784053,2.39501661 9.04784053,2.66112957 L9.04784053,3.81428571 L9.04784053,3.99169435 C9.04784053,4.08039867 9.04784053,4.16910299 9.04784053,4.16910299 C9.04784053,4.16910299 9.04784053,4.16910299 9.13654485,4.16910299 L9.49136213,4.16910299 L10.023588,4.16910299 L11.2654485,4.16910299 L13.0395349,4.34651163 C13.3056478,4.34651163 13.5717608,4.43521595 13.7491694,4.43521595 C13.9265781,4.52392027 14.0152824,4.61262458 14.0152824,4.87873754 C14.0152824,5.1448505 13.9265781,5.32225914 13.7491694,5.49966777 C13.5717608,5.67707641 12.5960133,5.67707641 10.9106312,5.67707641 L9.8461794,5.67707641 L9.22524917,5.67707641 C9.04784053,5.67707641 8.95913621,5.67707641 8.95913621,5.76578073 C8.95913621,5.85448505 8.95913621,5.85448505 8.95913621,5.85448505 C8.95913621,5.94318937 9.13654485,6.12059801 9.40265781,6.38671096 C9.66877076,6.65282392 10.3784053,7.18504983 11.3541528,7.9833887 C12.3299003,8.78172757 13.3056478,9.31395349 14.192691,9.66877076 C15.0797342,10.023588 15.6119601,10.289701 15.8780731,10.289701 C16.144186,10.289701 16.2328904,10.3784053 16.2328904,10.3784053 C16.2328904,10.3784053 16.2328904,10.4671096 16.2328904,10.4671096 C16.2328904,10.4671096 16.2328904,10.555814 16.2328904,10.555814 C16.144186,10.9993355 15.7893688,11.3541528 15.2571429,11.7976744 C14.7249169,12.241196 14.192691,12.4186047 13.6604651,12.4186047 C13.3943522,12.4186047 13.1282392,12.3299003 12.8621262,12.0637874 C12.5960133,11.8863787 12.1524917,11.3541528 11.4428571,10.6445183 C10.7332226,9.8461794 10.2009967,9.31395349 9.75747508,8.78172757 C9.40265781,8.33820598 9.13654485,8.07209302 9.04784053,7.89468439 C8.95913621,7.80598007 8.87043189,7.71727575 8.78172757,7.62857143 L8.60431894,7.36245847 L8.51561462,7.27375415 L8.4269103,7.36245847 C8.4269103,7.71727575 8.16079734,8.33820598 7.71727575,9.22524917" id="Shape"></path>
                        <path d="M29.0950166,5.49966777 C29.2724252,5.49966777 29.4498339,5.49966777 29.5385382,5.58837209 C29.7159468,5.67707641 29.8046512,5.85448505 29.8046512,6.20930233 C29.8046512,6.5641196 29.8046512,6.83023256 29.8046512,7.09634551 C29.7159468,7.62857143 29.6272425,8.07209302 29.4498339,8.4269103 C29.2724252,8.78172757 29.1837209,9.04784053 29.0950166,9.13654485 C29.0063123,9.22524917 29.0063123,9.31395349 29.0063123,9.40265781 C29.0063123,9.49136213 29.0950166,9.58006645 29.3611296,9.75747508 C30.0707641,10.2009967 31.1352159,10.4671096 32.554485,10.4671096 C32.9093023,10.4671096 33.1754153,10.4671096 33.3528239,10.4671096 C33.5302326,10.4671096 33.7076412,10.4671096 33.7076412,10.555814 C33.7076412,10.555814 33.7076412,10.6445183 33.6189369,10.8219269 C33.6189369,10.9106312 33.5302326,11.1767442 33.4415282,11.3541528 C33.3528239,11.5315615 33.1754153,11.8863787 32.820598,12.1524917 C32.4657807,12.4186047 32.1109635,12.5960133 31.6674419,12.7734219 C31.2239203,12.9508306 30.869103,13.0395349 30.6916944,12.9508306 C30.3368771,12.9508306 29.8046512,12.7734219 29.1837209,12.3299003 C28.5627907,11.8863787 28.2079734,11.5315615 27.9418605,11.2654485 C27.6757475,10.9993355 27.5870432,10.9106312 27.4983389,10.9106312 C27.4983389,10.9106312 27.1435216,11.0880399 26.6112957,11.5315615 C26.0790698,11.9750831 25.3694352,12.1524917 24.5710963,12.1524917 C24.3936877,12.1524917 24.2162791,12.1524917 24.1275748,12.0637874 C24.0388704,11.9750831 23.9501661,11.9750831 23.8614618,11.8863787 C23.7727575,11.7976744 23.7727575,11.7089701 23.7727575,11.6202658 C23.7727575,11.5315615 23.8614618,11.4428571 24.1275748,11.3541528 C24.8372093,10.9993355 25.2807309,10.8219269 25.3694352,10.8219269 C25.4581395,10.8219269 25.6355482,10.6445183 25.9903654,10.289701 L26.433887,9.93488372 C26.5225914,9.8461794 26.6112957,9.75747508 26.6112957,9.66877076 C26.6112957,9.58006645 26.6112957,9.49136213 26.5225914,9.31395349 C26.433887,9.22524917 26.3451827,8.87043189 26.1677741,8.4269103 C25.9903654,7.9833887 25.9016611,7.71727575 25.9016611,7.53986711 C25.9016611,7.36245847 25.8129568,7.09634551 25.7242525,6.65282392 C25.6355482,6.20930233 25.5468439,5.85448505 25.5468439,5.58837209 C25.5468439,5.32225914 25.4581395,5.1448505 25.4581395,5.05614618 C25.4581395,4.96744186 25.3694352,4.96744186 25.1033223,4.96744186 C23.6840532,4.96744186 22.7083056,4.96744186 22.3534884,5.05614618 C21.9986711,5.1448505 21.7325581,5.1448505 21.6438538,5.32225914 C21.6438538,5.41096346 21.6438538,5.58837209 21.6438538,5.67707641 C21.6438538,5.94318937 21.6438538,6.12059801 21.7325581,6.20930233 C21.8212625,6.29800664 21.9099668,6.29800664 21.9986711,6.29800664 L22.7083056,6.29800664 C23.2405316,6.29800664 23.5953488,6.20930233 23.9501661,6.12059801 L24.3049834,6.03189369 C24.482392,5.94318937 24.748505,6.03189369 24.9259136,6.20930233 C25.1033223,6.38671096 25.2807309,6.5641196 25.3694352,6.74152824 C25.4581395,6.91893688 25.4581395,7.09634551 25.4581395,7.27375415 C25.4581395,7.45116279 25.4581395,7.71727575 25.4581395,7.89468439 C25.4581395,8.51561462 25.3694352,8.95913621 25.3694352,9.22524917 C25.2807309,9.58006645 25.1033223,9.93488372 24.748505,10.4671096 C24.3936877,10.9993355 23.9501661,11.1767442 23.2405316,11.1767442 C22.6196013,11.1767442 22.1760797,10.9993355 21.9986711,10.6445183 L21.8212625,10.2009967 C21.7325581,10.1122924 21.7325581,10.1122924 21.7325581,10.023588 C21.7325581,9.93488372 21.8212625,9.93488372 21.9099668,9.93488372 C21.9099668,9.93488372 21.9986711,9.93488372 22.0873754,10.023588 C22.2647841,10.1122924 22.3534884,10.1122924 22.6196013,10.1122924 C23.1518272,10.1122924 23.5066445,9.93488372 23.7727575,9.58006645 C24.0388704,9.22524917 24.1275748,8.69302326 24.1275748,8.16079734 C24.1275748,7.80598007 24.0388704,7.62857143 23.8614618,7.53986711 C23.6840532,7.45116279 23.4179402,7.36245847 22.9744186,7.45116279 L22.4421927,7.45116279 C22.0873754,7.45116279 21.9099668,7.53986711 21.8212625,7.62857143 C21.7325581,7.71727575 21.7325581,7.80598007 21.7325581,7.89468439 C21.7325581,7.9833887 21.6438538,8.33820598 21.5551495,8.95913621 C21.4664452,9.49136213 21.3777409,10.1122924 21.1116279,10.6445183 C20.9342193,11.1767442 20.579402,11.6202658 19.9584718,11.8863787 C19.4262458,12.1524917 18.9827243,12.3299003 18.627907,12.241196 C18.2730897,12.241196 17.9182724,12.0637874 17.6521595,11.7976744 C17.3860465,11.5315615 17.2973422,11.3541528 17.2973422,11.2654485 C17.2973422,11.1767442 17.3860465,10.9993355 17.6521595,10.9106312 L18.2730897,10.7332226 C18.627907,10.6445183 18.9827243,10.3784053 19.2488372,9.93488372 C19.5149502,9.58006645 19.7810631,9.22524917 19.9584718,8.78172757 C20.1358804,8.4269103 20.2245847,7.9833887 20.2245847,7.62857143 C20.2245847,7.18504983 20.313289,6.91893688 20.313289,6.83023256 C20.313289,6.65282392 20.313289,6.47541528 20.2245847,6.20930233 C20.2245847,5.94318937 20.1358804,5.76578073 20.1358804,5.49966777 L19.9584718,4.79003322 C19.8697674,4.61262458 19.8697674,4.34651163 19.8697674,4.08039867 C19.8697674,3.81428571 19.9584718,3.63687708 20.2245847,3.54817276 C20.4019934,3.45946844 20.6681063,3.37076412 20.845515,3.37076412 C21.0229236,3.37076412 21.2003322,3.45946844 21.3777409,3.54817276 L21.6438538,3.81428571 C21.7325581,3.90299003 21.9099668,3.99169435 21.9986711,3.99169435 C22.1760797,3.99169435 22.3534884,3.99169435 22.6196013,3.99169435 C22.8857143,3.99169435 23.2405316,3.99169435 23.6840532,3.90299003 C24.1275748,3.90299003 24.3936877,3.90299003 24.6598007,3.90299003 C24.8372093,3.90299003 25.0146179,3.90299003 25.1033223,3.90299003 C25.1920266,3.90299003 25.2807309,3.90299003 25.2807309,3.81428571 C25.2807309,3.81428571 25.2807309,3.7255814 25.2807309,3.63687708 C25.2807309,3.54817276 25.2807309,3.54817276 25.2807309,3.54817276 L25.2807309,3.2820598 L25.2807309,2.48372093 L25.2807309,2.30631229 C25.2807309,2.21760797 25.2807309,2.12890365 25.2807309,2.04019934 C25.3694352,1.50797342 25.6355482,1.24186047 26.1677741,1.24186047 C26.5225914,1.24186047 26.7887043,1.33056478 26.8774086,1.50797342 C26.966113,1.68538206 27.0548173,1.95149502 27.0548173,2.21760797 C27.0548173,2.48372093 27.0548173,2.74983389 27.0548173,3.01594684 C27.0548173,3.2820598 27.0548173,3.45946844 27.0548173,3.63687708 C27.0548173,3.81428571 27.0548173,3.90299003 27.1435216,3.90299003 C27.2322259,3.99169435 27.3209302,3.99169435 27.4096346,3.99169435 C27.4096346,3.99169435 27.4983389,3.99169435 27.6757475,3.99169435 C27.8531561,3.99169435 28.1192691,3.99169435 28.4740864,3.99169435 L29.3611296,3.99169435 L30.1594684,3.99169435 L30.60299,3.99169435 C30.9578073,3.99169435 31.1352159,4.16910299 31.1352159,4.52392027 C31.1352159,4.7013289 31.0465116,4.79003322 30.9578073,4.96744186 C30.869103,5.05614618 30.0707641,5.1448505 28.7401993,5.1448505 L27.8531561,5.1448505 L27.2322259,5.1448505 C27.0548173,5.1448505 26.966113,5.1448505 26.966113,5.23355482 C26.8774086,5.23355482 26.8774086,5.41096346 26.8774086,5.58837209 C26.8774086,5.94318937 26.8774086,6.20930233 26.8774086,6.47541528 C26.8774086,6.74152824 26.966113,7.0076412 27.0548173,7.36245847 C27.1435216,7.71727575 27.3209302,7.9833887 27.4096346,8.16079734 C27.4983389,8.33820598 27.5870432,8.4269103 27.6757475,8.4269103 C27.7644518,8.4269103 27.8531561,8.33820598 27.9418605,8.07209302 L28.1192691,7.53986711 C28.2079734,7.27375415 28.2966777,6.91893688 28.3853821,6.65282392 C28.4740864,6.29800664 28.4740864,6.12059801 28.5627907,6.03189369 C28.7401993,5.76578073 28.917608,5.58837209 29.0950166,5.49966777 M28.2966777,2.83853821 C28.4740864,2.66112957 28.5627907,2.57242525 28.651495,2.39501661 C28.7401993,2.30631229 28.8289037,2.21760797 28.917608,2.12890365 L29.2724252,1.59667774 C29.3611296,1.50797342 29.5385382,1.4192691 29.6272425,1.4192691 C29.7159468,1.4192691 29.8933555,1.50797342 30.1594684,1.59667774 C30.3368771,1.68538206 30.5142857,1.8627907 30.5142857,2.12890365 C30.5142857,2.30631229 30.5142857,2.48372093 30.4255814,2.57242525 C30.2481728,2.83853821 29.8933555,3.01594684 29.2724252,3.19335548 L28.7401993,3.37076412 C28.4740864,3.45946844 28.3853821,3.45946844 28.2966777,3.37076412 C28.2079734,3.2820598 28.2079734,3.2820598 28.1192691,3.19335548 C28.1192691,3.01594684 28.1192691,2.92724252 28.2966777,2.83853821" id="Shape"></path>
                    </g>
                </g>
            </g>
        </g>
    </g>
</svg>