<?xml version="1.0" encoding="UTF-8"?>
<svg width="131px" height="20px" viewBox="0 0 131 20" version="1.1" xmlns="http://www.w3.org/2000/svg" xmlns:xlink="http://www.w3.org/1999/xlink">
    <!-- Generator: Sketch 51.3 (57544) - http://www.bohemiancoding.com/sketch -->
    <title>Fast_Company</title>
    <desc>Created with Sketch.</desc>
    <defs></defs>
    <g id="Page-1" stroke="none" stroke-width="1" fill="none" fill-rule="evenodd">
        <g id="hi-fi-v6" transform="translate(-62.000000, -1009.000000)" fill="#A8D5D4" fill-rule="nonzero">
            <g id="Press-Bar-5-up-2" transform="translate(62.000000, 970.000000)">
                <g id="Fast_Company" transform="translate(0.000000, 39.000000)">
                    <path d="M61.8518519,5.25925926 C61.8518519,7.85185185 61.5555556,16 61.5555556,16 C61.5555556,17.5555556 62.0740741,18.2962963 63.5555556,18.2962963 L63.5555556,18.962963 L57.7777778,18.962963 L57.7777778,18.2962963 C59.2592593,18.2962963 60.0740741,17.6296296 60.0740741,16 L60.5925926,2.74074074 C60.1481481,1.7037037 59.7037037,1.33333333 58.5925926,1.25925926 L58.5925926,0.592592593 L63.037037,0.592592593 L67.7777778,12.962963 L72.5925926,0.592592593 L76.5925926,0.592592593 L76.5925926,1.18518519 C75.4814815,1.18518519 74.8148148,1.7037037 74.8148148,2.96296296 L75.3333333,15.7777778 C75.3333333,17.7037037 75.7037037,18.2222222 77.2592593,18.2222222 L77.2592593,18.8888889 L70.5185185,18.8888889 L70.5185185,18.2222222 C71.8518519,18.2222222 72.4444444,17.7777778 72.3703704,15.7777778 C72.3703704,15.7777778 72.0740741,6.81481481 72,5.18518519 L68.7407407,14.0740741 C68.2962963,15.1851852 67.8518519,16.5185185 67.5555556,17.9259259 L66.5185185,18 C66.2222222,17.037037 65.5555556,15.2592593 65.5555556,15.2592593 C65.5555556,15.2592593 62.8148148,7.77777778 61.8518519,5.25925926 Z" id="Shape"></path>
                    <path d="M56.3703704,19.037037 C56,18.962963 55.7037037,18.962963 55.3333333,18.962963 C54.6666667,18.962963 53.4074074,19.3333333 51.9259259,19.3333333 C46.2222222,19.3333333 42.0740741,15.9259259 42.0740741,9.62962963 C42.0740741,4.2962963 46,0.222222222 52,0.222222222 C53.4074074,0.222222222 54.962963,0.518518519 56.2962963,1.03703704 C56.5925926,0.740740741 56.6666667,0.592592593 56.8888889,0.37037037 L57.4074074,0.37037037 C57.3333333,1.33333333 56.962963,4.44444444 56.962963,4.44444444 L56.4444444,4.44444444 C56.0740741,2.59259259 55.1111111,1.40740741 52.0740741,1.40740741 C48.4444444,1.40740741 45.1111111,4.2962963 45.1111111,9.62962963 C45.1111111,15.6296296 48.5185185,18.2962963 52.2962963,18.2962963 C54.7407407,18.2962963 56.2222222,16.8888889 57.1851852,15.1851852 L57.7777778,15.4814815 L56.3703704,19.037037 Z" id="Shape"></path>
                    <path d="M39.8518519,4 L39.2592593,4 C39.1851852,2.37037037 38.6666667,1.85185185 37.3333333,1.85185185 L34.8148148,1.85185185 L34.8148148,15.5555556 C34.8148148,17.8518519 35.2592593,18.2962963 36.7407407,18.2962963 L36.7407407,18.962963 L30.2222222,18.962963 L30.2222222,18.2962963 C31.7037037,18.2962963 32.1481481,17.8518519 32.1481481,15.4814815 L32.1481481,1.85185185 L29.6296296,1.85185185 C28,1.85185185 27.7037037,2.2962963 27.2592593,4 L26.6666667,4 L27.1111111,0.0740740741 L27.5555556,0.148148148 C27.7037037,0.592592593 28.0740741,0.592592593 29.1111111,0.592592593 L37.5555556,0.592592593 C39.1111111,0.592592593 39.4814815,0.592592593 39.8518519,0.0740740741 L40.3703704,0.0740740741 L39.8518519,4 Z" id="Shape"></path>
                    <path d="M21.4074074,19.4074074 C20.2222222,19.4074074 19.2592593,19.2592593 18.5185185,18.962963 C17.8518519,18.8148148 17.3333333,18.5185185 17.037037,18.3703704 C16.6666667,18.7407407 16.4444444,19.1851852 16.4444444,19.1851852 L15.9259259,19.037037 L16.2962963,14.8148148 L16.8888889,14.8888889 C17.2592593,16.8148148 18.5185185,18.2222222 21.2592593,18.2222222 C23.3333333,18.2222222 24.7407407,16.4444444 24.7407407,14.5925926 C24.7407407,13.037037 24.1481481,12.2222222 22,10.6666667 C21.3333333,10.2222222 20.6666667,9.85185185 20.1481481,9.48148148 C18.2222222,8.2962963 17.037037,6.88888889 17.037037,4.59259259 C17.037037,2 19.1851852,0.222222222 22.0740741,0.222222222 C23.7037037,0.222222222 24.8148148,0.740740741 25.1111111,0.888888889 L25.7037037,0.222222222 L26.1481481,0.296296296 L25.7037037,4.07407407 L25.1851852,3.92592593 C25.1851852,2.14814815 24.1481481,1.40740741 22.3703704,1.40740741 C20.7407407,1.40740741 19.4814815,2.2962963 19.4814815,3.92592593 C19.4814815,5.40740741 20.5925926,6.37037037 21.9259259,7.25925926 C22.5925926,7.7037037 23.1111111,8.07407407 23.7037037,8.37037037 C26.7407407,10.5185185 27.4814815,11.9259259 27.4814815,14.0740741 C27.4814815,17.1111111 25.1111111,19.4074074 21.4074074,19.4074074 Z" id="Shape"></path>
                    <path d="M11.4074074,4 L10.7407407,4 C10.7407407,2.44444444 10.0740741,1.85185185 8.66666667,1.85185185 L4.74074074,1.85185185 L4.74074074,8.74074074 L7.25925926,8.74074074 C8.59259259,8.74074074 8.81481481,8.07407407 9.03703704,6.88888889 L9.62962963,6.88888889 L9.62962963,11.7777778 L9.03703704,11.7777778 C8.88888889,10.4444444 8.59259259,9.92592593 7.18518519,9.92592593 L4.74074074,9.92592593 L4.74074074,15.7777778 C4.74074074,17.9259259 5.25925926,18.2222222 6.66666667,18.2222222 L6.66666667,18.8888889 L0,18.8888889 L0,18.2222222 C1.62962963,18.2222222 1.92592593,17.7777778 1.92592593,15.7777778 L1.92592593,2.96296296 C1.92592593,1.77777778 1.40740741,1.18518519 0,1.18518519 L0,0.592592593 L9.11111111,0.592592593 C10.6666667,0.592592593 11.037037,0.518518519 11.2592593,0 L11.8518519,0 L11.4074074,4 Z" id="Shape"></path>
                    <path d="M105.555556,5.03703704 L105.555556,15.5555556 C105.555556,17.8518519 106.074074,18.2962963 107.481481,18.2962963 L107.481481,18.962963 L97.1851852,18.962963 L97.1851852,18.2962963 C98,18.2962963 98.6666667,18 98.6666667,17.4814815 C98.6666667,17.1111111 98.5925926,16.5185185 98.3703704,15.9259259 L97.5555556,13.4074074 L91.8518519,13.4074074 C91.7777778,13.7777778 90.7407407,16.6666667 90.7407407,17.4074074 C90.7407407,18.0740741 91.5555556,18.2962963 92.0740741,18.2962963 L92.0740741,18.962963 L87.2592593,18.962963 L87.2592593,18.2962963 C88.1481481,18.2962963 88.8148148,18.2222222 89.4074074,16.3703704 L93.8518519,2.14814815 C93.5555556,1.55555556 93.2592593,1.33333333 92.6666667,1.25925926 L92.6666667,0.592592593 L96.5925926,0.592592593 L101.333333,15.4814815 C101.777778,17.037037 102.222222,17.8518519 102.888889,18.2222222 C103.925926,17.8518519 104.222222,17.5555556 104.222222,15.4814815 L104.222222,2.96296296 C103.407407,1.92592593 103.333333,1.18518519 101.851852,1.18518519 L101.851852,0.592592593 L106.296296,0.592592593 L113.62963,13.037037 L113.62963,3.55555556 C113.62963,1.62962963 113.185185,1.18518519 111.703704,1.18518519 L111.703704,0.592592593 L121.481481,0.592592593 L121.481481,1.18518519 C120.888889,1.18518519 120.37037,1.48148148 120.37037,2.07407407 C120.37037,2.51851852 120.518519,2.96296296 120.740741,3.48148148 L123.555556,9.48148148 L126.296296,3.62962963 C126.740741,2.81481481 126.814815,2.44444444 126.814815,2 C126.814815,1.48148148 126.444444,1.18518519 125.703704,1.18518519 L125.703704,0.592592593 L130.296296,0.592592593 L130.296296,1.18518519 C129.185185,1.18518519 128.444444,2.22222222 127.925926,3.48148148 L124.37037,10.8148148 L124.37037,15.6296296 C124.37037,17.7037037 124.888889,18.2222222 126.296296,18.2222222 L126.296296,18.8888889 L119.62963,18.8888889 L119.62963,18.2222222 C121.037037,18.2222222 121.555556,17.7037037 121.555556,15.6296296 L121.555556,11.5555556 L117.703704,3.40740741 C117.037037,1.85185185 116.740741,1.48148148 116.296296,1.25925926 C115.407407,1.62962963 115.185185,2.22222222 115.185185,3.62962963 L115.185185,17.037037 C115.185185,17.037037 115.259259,18.0740741 115.333333,19.3333333 L114.222222,19.4074074 L105.555556,5.03703704 Z M94.6666667,4.22222222 L92.2222222,12.1481481 L97.2592593,12.1481481 L94.6666667,4.22222222 Z" id="Shape"></path>
                    <path d="M83.8518519,12.1481481 C83.8518519,12.1481481 83.037037,12.1481481 82.5185185,12.1481481 L82.5185185,15.9259259 C82.5185185,17.8518519 83.037037,18.2962963 84.5185185,18.2962963 L84.5185185,18.962963 L77.7777778,18.962963 L77.7777778,18.2962963 C79.1851852,18.2962963 79.7037037,17.7777778 79.7037037,15.8518519 L79.7037037,3.48148148 C79.7037037,1.55555556 79.1851852,1.18518519 77.7777778,1.18518519 L77.7777778,0.592592593 L82.8148148,0.592592593 C87.7037037,0.592592593 90.5925926,2.07407407 90.5925926,6.07407407 C90.6666667,10.2962963 87.1851852,12.1481481 83.8518519,12.1481481 Z M82.962963,1.85185185 L82.5185185,1.85185185 L82.5185185,10.8148148 L83.3333333,10.8148148 C86.2222222,10.8148148 87.7037037,9.48148148 87.7037037,6.22222222 C87.7037037,2.88888889 86.3703704,1.85185185 82.962963,1.85185185 Z" id="Shape"></path>
                    <path d="M53.4074074,15.4074074 C50.0740741,15.4074074 47.8518519,13.037037 47.8518519,9.62962963 C47.8518519,6.37037037 50.2222222,3.85185185 53.4074074,3.85185185 C56.5185185,3.85185185 58.8888889,6.2962963 58.8888889,9.62962963 C58.8888889,12.8888889 56.4444444,15.4074074 53.4074074,15.4074074 Z M53.4074074,4.96296296 C51.1111111,4.96296296 50.3703704,7.18518519 50.3703704,9.7037037 C50.3703704,12.0740741 51.037037,14.4444444 53.4074074,14.4444444 C55.7037037,14.4444444 56.3703704,12.0740741 56.3703704,9.62962963 C56.3703704,7.25925926 55.4814815,4.96296296 53.4074074,4.96296296 Z" id="Shape"></path>
                    <path d="M15.037037,14.3703704 L15.037037,13.7777778 C15.9259259,13.7777778 16.0740741,13.4814815 16.0740741,13.2592593 C16.0740741,12.8888889 16,12.6666667 15.9259259,12.3703704 C15.9259259,12.3703704 15.7777778,11.7037037 15.5555556,11.1851852 L12.1481481,11.1851852 L11.7777778,12.2962963 C11.7037037,12.5925926 11.6296296,12.8148148 11.6296296,13.1851852 C11.6296296,13.5555556 12,13.7777778 12.5185185,13.7777778 L12.5185185,14.3703704 L9.11111111,14.3703704 L9.11111111,13.7777778 C10,13.7777778 10.2962963,13.4814815 10.6666667,12.5925926 L13.2592593,4.74074074 C13.1851852,4.37037037 12.8888889,4.14814815 12.3703704,4.14814815 L12.3703704,3.48148148 L15.1851852,3.48148148 C17.4814815,10.1481481 18.0740741,11.8518519 18.0740741,11.8518519 C18.5185185,13.3333333 18.962963,13.7777778 19.6296296,13.7777778 L19.6296296,14.3703704 L15.037037,14.3703704 Z M13.7777778,5.92592593 L12.4444444,10.2222222 L15.1851852,10.2222222 L13.7777778,5.92592593 Z" id="Shape"></path>
                </g>
            </g>
        </g>
    </g>
</svg>