<?xml version="1.0" encoding="UTF-8"?>
<svg width="269px" height="53px" viewBox="0 0 269 53" version="1.1" xmlns="http://www.w3.org/2000/svg" xmlns:xlink="http://www.w3.org/1999/xlink">
    <!-- Generator: Sketch 51.3 (57544) - http://www.bohemiancoding.com/sketch -->
    <title>human-ventures</title>
    <desc>Created with Sketch.</desc>
    <defs></defs>
    <g id="Page-1" stroke="none" stroke-width="1" fill="none" fill-rule="evenodd">
        <g id="hi-fi-v6" transform="translate(-43.000000, -1790.000000)" fill="#A8D5D4" fill-rule="nonzero">
            <g id="Group-6" transform="translate(43.000000, 1790.000000)">
                <g id="human-ventures">
                    <g id="Group" transform="translate(48.909091, 16.448276)">
                        <polygon id="Shape" points="14.8138439 9.43254696 14.8138439 0.0747132432 16.5609312 0.0747132432 16.5609312 20.6395334 14.8138439 20.6395334 14.8138439 11.1322732 1.91087667 11.1322732 1.91087667 20.6395334 0.163789429 20.6395334 0.163789429 0.0747132432 1.91087667 0.0747132432 1.91087667 9.43254696"></polygon>
                        <path d="M27.4802264,20.8636732 C24.1680402,20.8636732 21.4382164,18.8464156 21.4382164,14.9239703 L21.4382164,6.81758344 L23.0761107,6.81758344 L23.0761107,14.7745438 C23.0761107,17.7630736 24.8959932,19.2760168 27.4802264,19.2760168 C30.0644596,19.2760168 31.8843422,17.7443953 31.8843422,14.7745438 L31.8843422,6.81758344 L33.5222365,6.81758344 L33.5222365,14.9239703 C33.5040377,18.8464156 30.7742138,20.8636732 27.4802264,20.8636732 Z" id="Shape"></path>
                        <path d="M60.5656911,12.1595803 L60.5656911,20.6395334 L58.9277968,20.6395334 L58.9277968,12.682573 C58.9277968,9.89950473 57.344499,8.18110013 54.5964764,8.18110013 C52.0850384,8.18110013 50.0831676,10.0489312 50.0831676,12.7572863 L50.0831676,20.6395334 L48.4452734,20.6395334 L48.4452734,12.682573 C48.4452734,9.89950473 46.8619755,8.18110013 44.1139529,8.18110013 C41.602515,8.18110013 39.6006442,10.0489312 39.6006442,12.7572863 L39.6006442,20.6395334 L37.9627499,20.6395334 L37.9627499,6.81758344 L39.5824454,6.81758344 L39.5824454,9.24576385 C40.6561761,7.41528939 42.5124563,6.59344371 44.3869353,6.59344371 C46.8983732,6.59344371 48.8274487,7.78885561 49.628197,9.80611317 C50.6109336,7.52735925 52.758395,6.59344371 54.8512599,6.59344371 C58.2544403,6.59344371 60.5656911,8.74144946 60.5656911,12.1595803 Z" id="Shape"></path>
                        <path d="M76.0346927,20.6395334 L76.0346927,17.9872133 C74.9427632,19.7429745 73.1592783,20.8636732 70.7024369,20.8636732 C66.9170812,20.8636732 63.9688715,17.8564651 63.9688715,13.7472368 C63.9688715,9.63800838 66.9170812,6.61212203 70.7024369,6.61212203 C73.1592783,6.61212203 74.960962,7.7701773 76.0346927,9.48858189 L76.0346927,6.83626176 L77.6543882,6.83626176 L77.6543882,20.6582118 L76.0346927,20.6582118 L76.0346927,20.6395334 Z M65.6249646,13.7285584 C65.6249646,16.8665147 67.8088236,19.2760168 70.8844251,19.2760168 C73.9418278,19.2760168 76.1256869,16.9038713 76.1256869,13.7285584 C76.1256869,10.5532456 73.9418278,8.16242182 70.8844251,8.16242182 C67.7906248,8.16242182 65.6249646,10.6279588 65.6249646,13.7285584 Z" id="Shape"></path>
                        <path d="M94.36091,12.1595803 L94.36091,20.6395334 L92.7230157,20.6395334 L92.7230157,12.682573 C92.7230157,9.89950473 91.1397179,8.18110013 88.3916952,8.18110013 C85.8802573,8.18110013 83.8783865,10.0489312 83.8783865,12.7572863 L83.8783865,20.6395334 L82.2404922,20.6395334 L82.2404922,6.81758344 L83.8601877,6.81758344 L83.8601877,9.24576385 C84.9339184,7.41528939 86.7901986,6.59344371 88.6646776,6.59344371 C92.0860568,6.59344371 94.36091,8.74144946 94.36091,12.1595803 Z" id="Shape"></path>
                        <g transform="translate(101.367458, 0.000000)" id="Shape">
                            <polygon points="8.31686323 20.6395334 0.0545964764 0.0747132432 1.91087667 0.0747132432 9.40879276 18.8650939 16.9249077 0.0747132432 18.7265914 0.0747132432 10.4643246 20.6395334"></polygon>
                            <path d="M31.7569504,13.6538452 C31.7569504,13.8966632 31.7387516,14.120803 31.7205528,14.3449427 L20.437281,14.3449427 C20.6738657,17.5576122 22.8941224,19.4067649 25.6421451,19.4067649 C27.5348229,19.4067649 28.9907289,18.6596325 30.1918514,17.4455423 L31.065395,18.5849193 C29.3547055,20.3406805 27.4984253,20.8636732 25.5329521,20.8636732 C21.583807,20.8636732 18.762989,17.9498567 18.762989,13.7472368 C18.762989,9.58197344 21.6384035,6.61212203 25.4237592,6.61212203 C29.0271266,6.59344371 31.7205528,9.52593851 31.7569504,13.6538452 Z M20.4554798,12.8880345 L30.0826585,12.8880345 C29.8460737,10.0302529 27.9169982,8.06903027 25.4055603,8.06903027 C22.6939353,8.08770858 20.7648598,10.0862878 20.4554798,12.8880345 Z"></path>
                            <path d="M47.9903027,12.1595803 L47.9903027,20.6395334 L46.3524084,20.6395334 L46.3524084,12.682573 C46.3524084,9.89950473 44.7691106,8.18110013 42.021088,8.18110013 C39.5096501,8.18110013 37.5077793,10.0489312 37.5077793,12.7572863 L37.5077793,20.6395334 L35.869885,20.6395334 L35.869885,6.81758344 L37.4895804,6.81758344 L37.4895804,9.24576385 C38.5633111,7.41528939 40.4195913,6.59344371 42.2940703,6.59344371 C45.6972507,6.59344371 47.9903027,8.74144946 47.9903027,12.1595803 Z"></path>
                            <path d="M55.1606399,8.34920493 L55.1606399,15.8765642 C55.1606399,18.211353 56.3617624,19.2760168 58.1452473,19.2760168 C59.3099721,19.2760168 60.3473052,18.8650939 61.1480535,18.211353 L61.9124042,19.4627999 C60.9478664,20.2846455 59.6193522,20.8449949 57.9996567,20.8449949 C55.1970376,20.8449949 53.5045468,19.2386601 53.5045468,15.8952425 L53.5045468,8.33052662 L50.4107465,8.33052662 L50.4107465,6.79890513 L53.5045468,6.79890513 L53.5045468,2.29743223 L55.1424411,2.29743223 L55.1424411,6.79890513 L61.3482406,6.79890513 L61.3482406,8.33052662 L55.1606399,8.33052662 L55.1606399,8.34920493 Z"></path>
                            <path d="M71.0664134,20.8636732 C67.7542272,20.8636732 65.0244033,18.8464156 65.0244033,14.9239703 L65.0244033,6.81758344 L66.6622976,6.81758344 L66.6622976,14.7745438 C66.6622976,17.7630736 68.4821802,19.2760168 71.0664134,19.2760168 C73.6506466,19.2760168 75.4705291,17.7443953 75.4705291,14.7745438 L75.4705291,6.81758344 L77.1084234,6.81758344 L77.1084234,14.9239703 C77.1084234,18.8464156 74.3785996,20.8636732 71.0664134,20.8636732 Z"></path>
                            <path d="M89.8658001,7.11643642 L89.4472271,8.74144946 C88.7738706,8.36788324 87.8639293,8.18110013 87.063181,8.18110013 C84.8247254,8.18110013 83.20503,10.0676095 83.20503,12.8319995 L83.20503,20.6395334 L81.5853345,20.6395334 L81.5853345,6.81758344 L83.1868311,6.81758344 L83.1868311,9.17105061 C84.0603748,7.54603757 85.5526784,6.59344371 87.3361633,6.59344371 C88.3188999,6.5747654 89.1378471,6.7428702 89.8658001,7.11643642 Z"></path>
                            <path d="M104.006287,13.6538452 C104.006287,13.8966632 103.988089,14.120803 103.96989,14.3449427 L92.686618,14.3449427 C92.9232028,17.5576122 95.1434595,19.4067649 97.8914821,19.4067649 C99.7841599,19.4067649 101.240066,18.6596325 102.441188,17.4455423 L103.314732,18.5849193 C101.604042,20.3406805 99.7477623,20.8636732 97.7822891,20.8636732 C93.833144,20.8636732 91.0123261,17.9498567 91.0123261,13.7472368 C91.0123261,9.58197344 93.8877405,6.61212203 97.6730962,6.61212203 C101.276464,6.59344371 103.96989,9.52593851 104.006287,13.6538452 Z M92.7048168,12.8880345 L102.331996,12.8880345 C102.095411,10.0302529 100.166335,8.06903027 97.6548974,8.06903027 C94.9432724,8.08770858 93.0141969,10.0862878 92.7048168,12.8880345 Z"></path>
                            <path d="M112.541537,8.06903027 C110.430473,8.06903027 108.956368,9.00294581 108.956368,10.5719239 C108.956368,11.8607274 109.939105,12.5518249 112.013771,12.8133212 L113.72446,13.0187826 C116.545278,13.3549922 118.146775,14.5504041 118.146775,16.7357665 C118.146775,19.3694083 115.817325,20.8823515 112.34135,20.8823515 C110.375876,20.8823515 108.355807,20.3593588 106.808907,19.1265903 L107.573257,17.8751434 C108.61059,18.7156674 110.048298,19.4254432 112.359548,19.4254432 C114.798191,19.4254432 116.472483,18.5662409 116.472483,16.8478363 C116.472483,15.5590329 115.43515,14.7932222 113.360484,14.5504041 L111.631595,14.363621 C108.574193,14.0087331 107.263877,12.6452164 107.263877,10.6839938 C107.263877,8.16242182 109.39314,6.63080034 112.505139,6.63080034 C114.634402,6.63080034 116.563477,7.28454121 117.782798,8.18110013 L117.073044,9.46990358 C116.217699,8.77880608 114.416016,8.06903027 112.541537,8.06903027 Z"></path>
                        </g>
                    </g>
                    <g id="Group">
                        <path d="M32.6915312,8.65085965 C32.7644627,8.54065762 32.8009285,8.41208858 32.8009285,8.26515253 C32.8009285,7.86107841 32.4727368,7.54883931 32.0898466,7.54883931 C31.6887235,7.54883931 31.3787648,7.87944541 31.3787648,8.26515253 C31.3787648,8.66922666 31.7069564,8.98146575 32.0898466,8.98146575 C32.1080795,8.98146575 32.1263124,8.98146575 32.1445452,8.98146575 C33.7308047,11.6630486 34.5695166,14.7119715 34.5695166,17.8527295 L34.5695166,34.2360985 C34.5695166,35.4115868 34.514818,36.6054422 34.4054208,37.7625636 L34.2230921,39.8747692 C34.2048592,40.0584393 34.3324893,40.2053753 34.514818,40.2237423 C34.5330509,40.2237423 34.5330509,40.2237423 34.5512837,40.2237423 C34.7153795,40.2237423 34.8612425,40.0951733 34.8794753,39.9298702 L35.061804,37.8176646 C35.1712012,36.6238092 35.2258998,35.4299539 35.2258998,34.2360985 L35.2258998,17.8710965 C35.2258998,14.6017695 34.3324893,11.4426445 32.6915312,8.65085965 Z" id="Shape"></path>
                        <path d="M28.734999,20.5159453 C28.9720263,20.4057433 29.1361221,20.1486052 29.1361221,19.8731001 C29.1361221,19.469026 28.8079305,19.1567869 28.4250403,19.1567869 C28.0239172,19.1567869 27.7139584,19.487393 27.7139584,19.8731001 C27.7139584,20.1486052 27.8598214,20.3873762 28.0968487,20.4975783 L28.1150815,35.2095498 C28.1150815,40.9400555 26.5105892,46.5052582 23.4839332,51.3174137 C23.3927689,51.4643498 23.4292346,51.6663868 23.5750975,51.7582219 C23.6297961,51.7949559 23.6844948,51.8133229 23.7391934,51.8133229 C23.8485906,51.8133229 23.9579878,51.7582219 24.0126864,51.6663868 C27.094041,46.7440293 28.734999,41.0502576 28.734999,35.2095498 L28.734999,20.5159453 Z" id="Shape"></path>
                        <path d="M6.47266793,17.7792614 L6.47266793,25.970946 C6.23564065,26.081148 6.07154484,26.3382861 6.07154484,26.6137912 C6.07154484,27.0178653 6.39973646,27.3301044 6.78262667,27.3301044 C7.18374976,27.3301044 7.4937085,26.9994983 7.4937085,26.6137912 C7.4937085,26.3382861 7.32961269,26.099515 7.11081829,25.970946 L7.11081829,17.7792614 C7.11081829,11.9569207 11.8148981,7.21823321 17.594717,7.21823321 C22.1164682,7.21823321 26.1094661,10.1202201 27.5498626,14.4364664 L27.5498626,14.4548334 C27.5498626,14.4548334 27.6957256,14.8038065 27.8233557,15.3548167 C27.6774927,15.4833857 27.5680955,15.6854228 27.5680955,15.9058269 C27.5680955,16.309901 27.8962871,16.6221401 28.2791773,16.6221401 C28.6803004,16.6221401 28.9902592,16.291534 28.9902592,15.9058269 C28.9902592,15.5568538 28.7532319,15.2813487 28.4432731,15.2078807 C28.3156431,14.6568705 28.1697801,14.3078974 28.1333144,14.2344294 C26.6017535,9.66104496 22.3717283,6.59375502 17.5764842,6.59375502 C11.4684736,6.57538801 6.47266793,11.6079476 6.47266793,17.7792614 Z" id="Shape"></path>
                        <path d="M15.7349646,51.7582219 C15.9719918,51.5010838 16.1907863,51.2623127 16.4095807,50.9868076 C16.4278135,50.9684406 16.4278135,50.9500736 16.4460464,50.9317066 C18.7798534,48.1950228 20.4572772,44.9807968 21.4053863,41.5094327 C21.4053863,41.4910657 21.4053863,41.4910657 21.4053863,41.4726987 C21.4418521,41.3073957 21.4965507,41.1604596 21.5330164,40.9951566 C21.5330164,40.9767896 21.5330164,40.9584225 21.5330164,40.9584225 C21.8247423,39.7462002 22.0435367,38.4972438 22.1529339,37.2299204 C22.1711668,37.0462503 22.0435367,36.8993143 21.861208,36.8809473 C21.6788793,36.8625803 21.5330164,36.9911493 21.5147835,37.1748194 C21.3871535,38.5707118 21.1501262,39.9666042 20.7854688,41.3073957 C20.7854688,41.3073957 20.7854688,41.3257627 20.7854688,41.3257627 C19.8738255,44.6869247 18.2328674,47.8276827 15.953759,50.4908985 C15.9355261,50.5092655 15.9355261,50.5276325 15.9172932,50.5276325 C15.6984988,50.7847706 15.4797044,51.0235416 15.2426771,51.2806797 C15.2426771,51.2806797 15.2244443,51.2990467 15.2244443,51.2990467 C14.987417,51.5561848 14.7503897,51.7949559 14.4951296,52.0520939 C14.4221981,52.107195 14.4039652,52.19903 14.4039652,52.290865 C14.4039652,52.3827 14.440431,52.4561681 14.4951296,52.5296361 C14.5498282,52.6031041 14.6409925,52.6214711 14.7321569,52.6214711 C14.8050883,52.6214711 14.8962527,52.5847371 14.9509513,52.5296361 C15.2062114,52.272498 15.4614716,52.0153599 15.6984988,51.7582219 C15.7167317,51.7765889 15.7349646,51.7765889 15.7349646,51.7582219 Z" id="Shape"></path>
                        <path d="M21.6241807,17.6139584 C21.6241807,17.7976285 21.7882765,17.9261975 21.9523723,17.9261975 C22.134701,17.9261975 22.2623311,17.7792614 22.2623311,17.5955914 C22.1893996,15.0425776 20.1473185,13.058941 17.6129499,13.058941 C15.0421156,13.058941 12.9635687,15.1711466 12.9635687,17.7425274 C12.9635687,17.9261975 13.1094317,18.0731335 13.2917603,18.0731335 C13.474089,18.0731335 13.6199519,17.9261975 13.6199519,17.7425274 C13.6199519,15.5201198 15.4250058,13.7017862 17.6311828,13.7017862 C19.800894,13.7017862 21.5512493,15.4099177 21.6241807,17.6139584 Z" id="Shape"></path>
                        <path d="M4.9775728,35.1544488 L4.9775728,18.2200696 C5.21460008,18.1098675 5.37869588,17.8527295 5.37869588,17.5772244 C5.37869588,17.1731503 5.05050427,16.8609112 4.66761405,16.8609112 C4.26649097,16.8609112 3.95653223,17.1915173 3.95653223,17.5772244 C3.95653223,17.8527295 4.12062803,18.0915005 4.33942244,18.2200696 L4.33942244,35.1544488 C4.33942244,37.4135905 3.11782033,39.5074291 1.14867065,40.6094494 C0.98457484,40.7012845 0.929876237,40.8849545 1.02104057,41.0502576 C1.07573918,41.1604596 1.18513638,41.2155606 1.31276645,41.2155606 C1.36746505,41.2155606 1.42216366,41.1971936 1.47686226,41.1788266 C3.61010775,39.9666042 4.9775728,37.6523615 4.9775728,35.1544488 Z" id="Shape"></path>
                        <path d="M30.9047102,31.4810476 C31.1417375,31.3708456 31.3058333,31.1137075 31.3058333,30.8382024 C31.3058333,30.4341283 30.9776417,30.1218892 30.5947515,30.1218892 C30.1936284,30.1218892 29.8836697,30.4524953 29.8836697,30.8382024 C29.8836697,31.1137075 30.0477655,31.3524786 30.2665599,31.4810476 L30.2665599,35.1544488 C30.2665599,40.1870083 29.154355,44.9991638 26.948178,49.4807132 C26.8752465,49.6460162 26.9299451,49.8296863 27.094041,49.9215213 C27.1487396,49.9398883 27.1852053,49.9582553 27.2399039,49.9582553 C27.367534,49.9582553 27.4769312,49.8847873 27.5316298,49.7745852 C29.7742725,45.2012008 30.9047102,40.2972103 30.9047102,35.1728158 L30.9047102,31.4810476 Z" id="Shape"></path>
                        <path d="M19.7826611,24.9056596 C19.9649898,24.9056596 20.1108527,24.7587236 20.1108527,24.5750535 L20.1108527,17.7241604 C20.1108527,16.346635 18.9986478,15.2078807 17.6129499,15.2078807 C16.227252,15.2078807 15.1150471,16.346635 15.1150471,17.7425274 L15.1150471,24.5934205 C15.1150471,24.7770906 15.26091,24.9240266 15.4432387,24.9240266 C15.6255674,24.9240266 15.7714303,24.7770906 15.7714303,24.5934205 L15.7714303,17.7425274 C15.7714303,16.7139751 16.6101422,15.8874599 17.6129499,15.8874599 C18.6339905,15.8874599 19.4544695,16.7323421 19.4544695,17.7425274 L19.4544695,24.5934205 C19.4727024,24.7587236 19.6185653,24.9056596 19.7826611,24.9056596 Z" id="Shape"></path>
                        <path d="M20.1108527,29.7729161 C20.1108527,29.5892461 19.9649898,29.44231 19.7826611,29.44231 C19.7826611,29.44231 19.7826611,29.44231 19.7826611,29.44231 C19.6003325,29.44231 19.4544695,29.5892461 19.4544695,29.7729161 L19.4544695,35.1544488 C19.4544695,41.4359647 16.7377723,47.3685075 11.9972267,51.4643498 C11.8695967,51.5745518 11.8513638,51.7949559 11.960761,51.9235249 C12.0336925,51.9969929 12.106624,52.0337269 12.1977883,52.0337269 C12.2707198,52.0337269 12.3436512,52.0153599 12.4165827,51.9602589 C17.2847583,47.7542146 20.0926199,41.6196347 20.0926199,35.1728158 L20.1108527,29.7729161 Z" id="Shape"></path>
                        <path d="M15.7714303,35.1544488 L15.7714303,29.7729161 C15.7714303,29.5892461 15.6255674,29.44231 15.4432387,29.44231 C15.26091,29.44231 15.1150471,29.5892461 15.1150471,29.7729161 L15.1150471,35.1544488 C15.1150471,36.4585062 14.9691841,37.7441966 14.6774583,39.01152 C14.5315953,39.6176311 14.3674995,40.2053753 14.166938,40.7931195 C14.166938,40.7931195 14.1487051,40.7931195 14.1487051,40.7931195 C13.747582,40.7931195 13.4376233,41.1237256 13.4376233,41.5094327 C13.4376233,41.9135068 13.7658149,42.2257459 14.1487051,42.2257459 C14.5498282,42.2257459 14.8597869,41.8951398 14.8597869,41.5094327 C14.8597869,41.3624967 14.8233212,41.2339276 14.7321569,41.1053586 C14.9509513,40.4625134 15.1515128,39.8013012 15.2973757,39.140089 C15.6255674,37.8543986 15.7714303,36.4952402 15.7714303,35.1544488 Z" id="Shape"></path>
                        <path d="M12.7630072,45.0909988 C12.78124,45.0909988 12.7994729,45.0909988 12.8359386,45.0909988 C13.2370617,45.0909988 13.5470205,44.7603927 13.5470205,44.3746856 C13.5470205,43.9706115 13.2188289,43.6583724 12.8359386,43.6583724 C12.4348156,43.6583724 12.1248568,43.9889785 12.1248568,44.3746856 C12.1248568,44.5032546 12.1613226,44.6318237 12.234254,44.7420257 C11.0308848,46.5236253 9.49932391,48.0848207 7.73073578,49.2970431 C7.58487284,49.4072451 7.5484071,49.6092822 7.63957144,49.7562182 C7.69427004,49.8480533 7.80366725,49.9031543 7.91306445,49.9031543 C7.96776305,49.9031543 8.04069452,49.8847873 8.09539313,49.8480533 C9.91867987,48.5623629 11.5231722,46.9460664 12.7630072,45.0909988 Z" id="Shape"></path>
                        <path d="M13.200596,38.7911159 C13.2188289,38.7176479 13.3829247,38.1299037 13.4923219,37.2850214 C13.5105547,37.1013514 13.4011575,36.9360483 13.2188289,36.9176813 C13.0365002,36.8993143 12.8724044,37.0095163 12.8541715,37.1931864 C12.7447743,38.0380687 12.5806785,38.6074458 12.5806785,38.6258128 L12.5806785,38.6441798 C11.6690351,42.427783 9.24406377,45.807312 5.9256819,47.8644167 C5.77981897,47.9562517 5.72512036,48.1582888 5.8162847,48.3052248 C5.8709833,48.3970598 5.98038051,48.4521608 6.08977771,48.4521608 C6.14447631,48.4521608 6.19917492,48.4337938 6.25387352,48.3970598 C9.71811832,46.2664872 12.2524869,42.7583891 13.200596,38.7911159 Z" id="Shape"></path>
                        <path d="M11.2861449,37.2850214 C11.3226107,37.1013514 11.1949806,36.9360483 11.0126519,36.9176813 C10.8303232,36.8809473 10.6662274,37.0095163 10.6479946,37.1931864 C10.0463099,41.0135236 7.67603718,44.4114196 4.30295671,46.3032212 C4.1388609,46.3950562 4.0841623,46.5970933 4.17532663,46.7440293 C4.23002524,46.8542314 4.33942244,46.9093324 4.44881965,46.9093324 C4.50351825,46.9093324 4.55821685,46.8909654 4.61291545,46.8725984 C8.16832459,44.8705947 10.6479946,41.2890286 11.2861449,37.2850214 Z" id="Shape"></path>
                        <path d="M10.7938575,17.7425274 C10.7938575,17.9261975 10.9397204,18.0731335 11.1220491,18.0731335 C11.3043778,18.0731335 11.4502407,17.9261975 11.4502407,17.7425274 C11.4502407,15.8507259 12.3071855,14.0874933 13.747582,12.912005 C13.8205135,12.948739 13.9116778,12.967106 14.0028422,12.967106 C14.4039652,12.967106 14.713924,12.6364999 14.713924,12.2507928 C14.713924,11.8467186 14.3857324,11.5344795 14.0028422,11.5344795 C13.6017191,11.5344795 13.2917603,11.8650856 13.2917603,12.2507928 C13.2917603,12.3058938 13.3099932,12.3793618 13.3099932,12.4344628 C11.7237337,13.7201532 10.7938575,15.6486888 10.7938575,17.7425274 Z" id="Shape"></path>
                        <path d="M24.1038507,18.0731335 C24.2861794,18.0731335 24.4320423,17.9261975 24.4320423,17.7425274 C24.4320423,13.9589243 21.3689206,10.8732673 17.6129499,10.8732673 C17.5582513,10.8732673 17.5035527,10.8732673 17.4306212,10.8732673 C17.3029912,10.6528633 17.0841968,10.5059272 16.8107037,10.5059272 C16.4095807,10.5059272 16.0996219,10.8365333 16.0996219,11.2222404 C16.0996219,11.6263146 16.4278135,11.9385537 16.8107037,11.9385537 C17.1024296,11.9385537 17.3576898,11.7548836 17.467087,11.5161125 C17.5217856,11.5161125 17.5582513,11.5161125 17.6129499,11.5161125 C21.0224961,11.5161125 23.7756591,14.3078974 23.7756591,17.7241604 C23.7756591,17.9261975 23.921522,18.0731335 24.1038507,18.0731335 Z" id="Shape"></path>
                        <path d="M24.2497136,37.8911326 L24.2861794,37.2482874 C24.3044122,37.0646174 24.1585493,36.9176813 23.9762206,36.8993143 C23.793892,36.8809473 23.648029,37.0278833 23.6297961,37.2115534 L23.5933304,37.8543986 C23.5750975,38.2584727 23.5203989,38.6441798 23.4657003,39.01152 C22.7181528,43.9889785 20.5666744,48.5990969 17.2300597,52.364333 C17.1024296,52.4929021 17.1206625,52.6949391 17.2482926,52.8235082 C17.3029912,52.8786092 17.3941555,52.9153432 17.467087,52.9153432 C17.5582513,52.9153432 17.6494156,52.8786092 17.7041142,52.8051412 C21.1318933,48.94807 23.3380703,44.2093825 24.1038507,39.121722 C24.195015,38.7176479 24.2314808,38.3135737 24.2497136,37.8911326 Z" id="Shape"></path>
                        <path d="M7.53017424,41.2155606 C8.66061201,39.3788601 9.2258309,37.3768564 9.29876237,34.9156777 C9.31699524,34.4197685 9.29876237,33.9054924 9.29876237,33.4095832 C9.29876237,33.1524452 9.29876237,32.9136741 9.29876237,32.656536 L9.29876237,17.7425274 C9.29876237,13.114042 13.0365002,9.34880586 17.6311828,9.34880586 C22.2258654,9.34880586 25.9636032,13.114042 25.9636032,17.7425274 L25.9636032,35.1544488 C25.9636032,38.1115367 25.5077815,40.9951566 24.614371,43.7869414 C24.2314808,43.8053084 23.9397549,44.1175475 23.9397549,44.5032546 C23.9397549,44.9073288 24.2679465,45.2195679 24.6508367,45.2195679 C25.0519598,45.2195679 25.3619186,44.8889618 25.3619186,44.5032546 C25.3619186,44.3379516 25.3072199,44.1726485 25.1978227,44.0624465 C26.127699,41.1971936 26.6017535,38.2033717 26.6017535,35.1728158 L26.6017535,17.7608944 C26.6017535,12.7834359 22.5722898,8.72432767 17.6311828,8.72432767 C12.6900757,8.72432767 8.66061201,12.7834359 8.66061201,17.7608944 L8.66061201,32.674903 C8.66061201,32.9320411 8.66061201,33.1708122 8.66061201,33.4279502 C8.66061201,33.9238594 8.66061201,34.4197685 8.66061201,34.9156777 C8.60591341,37.2482874 8.07716026,39.158456 7.00142108,40.8849545 C6.08977771,42.372682 4.68584692,43.6583724 3.08135459,44.5216216 C2.91725878,44.6134567 2.86256018,44.7971267 2.95372452,44.9624298 C3.00842312,45.0726318 3.11782033,45.1277328 3.2454504,45.1277328 C3.300149,45.1277328 3.3548476,45.1093658 3.39131334,45.0909988 C5.06873714,44.1542815 6.56383226,42.7951231 7.53017424,41.2155606 Z" id="Shape"></path>
                        <path d="M0.638150359,34.2544655 L0.638150359,17.7425274 C0.638150359,15.8139918 0.948109105,13.9405573 1.5680266,12.1405907 C1.91445108,12.0854897 2.18794409,11.7916176 2.18794409,11.4242775 C2.18794409,11.0202034 1.85975247,10.7079643 1.47686226,10.7079643 C1.07573918,10.7079643 0.765780431,11.0385704 0.765780431,11.4242775 C0.765780431,11.6263146 0.8387119,11.7916176 0.966341972,11.9201867 C0.328191613,13.7936212 0,15.7405238 0,17.7425274 L0,34.2544655 C0,34.4381355 0.145862939,34.5850716 0.328191613,34.5850716 C0.49228742,34.5667046 0.638150359,34.4381355 0.638150359,34.2544655 Z" id="Shape"></path>
                        <path d="M17.9411415,29.7729161 C17.9411415,29.5892461 17.7952786,29.44231 17.6129499,29.44231 C17.4306212,29.44231 17.2847583,29.5892461 17.2847583,29.7729161 L17.2847583,35.1544488 C17.2847583,41.2339276 14.5315953,46.8174973 9.73635119,50.5092655 C9.59048825,50.6194675 9.57225538,50.8215046 9.68165259,50.9684406 C9.73635119,51.0602756 9.8457484,51.0970097 9.93691273,51.0970097 C10.0098442,51.0970097 10.0827757,51.0786426 10.1374743,51.0235416 C15.0968142,47.2215715 17.9411415,41.4359647 17.9411415,35.1544488 L17.9411415,29.7729161 Z" id="Shape"></path>
                        <path d="M17.2847583,17.9996655 L17.2847583,24.5750535 C17.2847583,24.7587236 17.4306212,24.9056596 17.6129499,24.9056596 C17.7952786,24.9056596 17.9411415,24.7587236 17.9411415,24.5750535 L17.9411415,17.9996655 C17.9411415,17.8159955 17.7952786,17.6690594 17.6129499,17.6690594 C17.4306212,17.6690594 17.2847583,17.8159955 17.2847583,17.9996655 Z" id="Shape"></path>
                        <path d="M17.6129499,2.16730666 C15.6620331,2.16730666 13.7840478,2.51627977 12.0154596,3.23259299 C11.8878295,3.10402395 11.7237337,3.03055593 11.5231722,3.03055593 C11.1220491,3.03055593 10.8120904,3.36116203 10.8120904,3.74686915 C10.8120904,4.15094327 11.140282,4.46318237 11.5231722,4.46318237 C11.8878295,4.46318237 12.1795554,4.18767728 12.234254,3.83870418 C13.9481436,3.15912497 15.7531974,2.81015186 17.6311828,2.81015186 C25.7995074,2.81015186 32.4362711,9.49574191 32.4362711,17.7241604 L32.4362711,35.1360818 C32.4362711,38.8829509 31.8345865,42.574719 30.667683,46.1011841 C30.6129844,46.2664872 30.7041487,46.4501572 30.8682445,46.5052582 C30.9047102,46.5236253 30.941176,46.5236253 30.9776417,46.5236253 C31.1052718,46.5236253 31.2329019,46.4317902 31.2876005,46.3032212 C32.4727368,42.7216551 33.0744215,38.9564189 33.0744215,35.1360818 L33.0744215,17.7241604 C33.0561886,9.16513581 26.127699,2.16730666 17.6129499,2.16730666 Z" id="Shape"></path>
                        <path d="M2.80786158,35.1544488 L2.80786158,17.7425274 C2.80786158,13.3528131 4.75877839,9.16513581 8.07716026,6.33661694 C8.16832459,6.37335095 8.25948893,6.39171796 8.35065327,6.39171796 C8.75177635,6.39171796 9.0617351,6.06111186 9.0617351,5.67540474 C9.0617351,5.28969762 8.75177635,4.95909152 8.35065327,4.95909152 C7.94953019,4.95909152 7.63957144,5.28969762 7.63957144,5.67540474 C7.63957144,5.73050576 7.63957144,5.78560677 7.65780431,5.84070779 C4.1935595,8.77942869 2.16971122,13.169143 2.16971122,17.7425274 L2.16971122,35.1544488 C2.16971122,36.4585062 1.54979373,37.6707285 0.49228742,38.4421428 C0.346424481,38.5523448 0.309958746,38.7543819 0.41935595,38.9013179 C0.474054552,38.9931529 0.583451757,39.029887 0.674616094,39.029887 C0.747547563,39.029887 0.802246166,39.01152 0.856944768,38.9747859 C2.07854688,38.0748027 2.80786158,36.6605432 2.80786158,35.1544488 Z" id="Shape"></path>
                        <path d="M25.8359731,6.8692601 C25.43485,6.8692601 25.1248913,7.19986621 25.1248913,7.58557332 C25.1248913,7.98964745 25.4530829,8.30188654 25.8359731,8.30188654 C25.9271374,8.30188654 26.0000689,8.28351954 26.0730004,8.26515253 C28.7532319,10.6895973 30.2665599,14.0874933 30.2665599,17.7241604 L30.2665599,26.4668551 C30.0295326,26.5770571 29.8836697,26.8341952 29.8836697,27.1097003 C29.8836697,27.5137744 30.2118613,27.8260135 30.5947515,27.8260135 C30.9958746,27.8260135 31.3058333,27.4954074 31.3058333,27.1097003 C31.3058333,26.8341952 31.1417375,26.5954241 30.9047102,26.4668551 L30.9047102,17.7241604 C30.9047102,13.8854563 29.3184508,10.3222572 26.5105892,7.78761039 C26.5288221,7.71414236 26.5470549,7.65904135 26.5470549,7.58557332 C26.5470549,7.19986621 26.2188633,6.8692601 25.8359731,6.8692601 Z" id="Shape"></path>
                        <path d="M22.7181528,4.8856235 C22.4993584,4.8856235 22.2987968,4.99582553 22.1529339,5.16112858 C20.6943045,4.62848542 19.1627436,4.35298033 17.594717,4.35298033 C14.6592254,4.35298033 11.8878295,5.28969762 9.55402252,7.07129717 C7.56663997,8.59575863 6.01684624,10.6895973 5.14166861,13.022207 C4.79524413,13.077308 4.52175111,13.3711801 4.52175111,13.7385202 C4.52175111,14.1425943 4.84994273,14.4548334 5.23283294,14.4548334 C5.63395603,14.4548334 5.94391477,14.1242273 5.94391477,13.7385202 C5.94391477,13.5364831 5.8709833,13.3711801 5.74335323,13.2426111 C6.58206513,11.0202034 8.04069452,9.03656677 9.93691273,7.60394033 C12.1430897,5.91417581 14.7868555,5.01419254 17.5764842,5.01419254 C19.108045,5.01419254 20.5849073,5.28969762 22.007071,5.82234078 C22.0982353,6.11621287 22.3717283,6.33661694 22.681687,6.33661694 C23.0828101,6.33661694 23.3927689,6.00601084 23.3927689,5.62030372 C23.4292346,5.2162296 23.1192759,4.8856235 22.7181528,4.8856235 Z" id="Shape"></path>
                        <path d="M3.09958746,9.05493377 C3.50071054,9.05493377 3.81066929,8.72432767 3.81066929,8.33862055 C3.81066929,8.21005151 3.77420355,8.08148248 3.70127208,7.97128044 C6.87379101,3.37952904 12.0154596,0.661212203 17.6129499,0.661212203 C17.6311828,0.661212203 17.6494156,0.661212203 17.6676485,0.661212203 C22.0253038,0.679579208 26.1094661,2.35097672 29.2637522,5.39989965 C29.2637522,5.43663367 29.2455193,5.47336768 29.2455193,5.51010169 C29.2455193,5.91417581 29.5737109,6.22641491 29.9566011,6.22641491 C30.3577242,6.22641491 30.667683,5.89580881 30.667683,5.51010169 C30.667683,5.10602756 30.3394914,4.79378847 29.9566011,4.79378847 C29.8472039,4.79378847 29.7378067,4.83052248 29.6284095,4.86725649 C26.3647263,1.74486553 22.1529339,0.0367340113 17.6676485,0.0183670056 C17.6494156,0.0183670056 17.6311828,0.0183670056 17.6129499,0.0183670056 C11.7966652,-1.73472348e-17 6.45443506,2.82851887 3.15428606,7.60394033 C3.13605319,7.60394033 3.11782033,7.60394033 3.08135459,7.60394033 C2.68023151,7.60394033 2.37027276,7.93454643 2.37027276,8.32025355 C2.37027276,8.72432767 2.69846438,9.05493377 3.09958746,9.05493377 Z" id="Shape"></path>
                        <path d="M24.0856178,47.6623796 C24.0856178,47.2583055 23.7574262,46.9460664 23.374536,46.9460664 C22.9734129,46.9460664 22.6634542,47.2766725 22.6634542,47.6623796 C22.6634542,47.8093156 22.7181528,47.9562517 22.7910842,48.0664537 C22.0617696,49.4807132 21.2048248,50.8398716 20.2384828,52.125562 C20.1290856,52.272498 20.1655513,52.4745351 20.2931814,52.5847371 C20.34788,52.6214711 20.4208115,52.6582051 20.493743,52.6582051 C20.5849073,52.6582051 20.6943045,52.6214711 20.7490031,52.5296361 C21.7335779,51.2255787 22.6087556,49.8296863 23.3563031,48.3970598 C23.3563031,48.3970598 23.374536,48.3970598 23.374536,48.3970598 C23.7756591,48.3786928 24.0856178,48.0664537 24.0856178,47.6623796 Z" id="Shape"></path>
                        <path d="M7.12905115,35.2095498 L7.12905115,30.8198354 C7.36607843,30.6912664 7.51194137,30.4524953 7.51194137,30.1769902 C7.51194137,29.7729161 7.18374976,29.460677 6.80085954,29.460677 C6.39973646,29.460677 6.08977771,29.7912831 6.08977771,30.1769902 C6.08977771,30.4524953 6.25387352,30.6912664 6.49090079,30.8198354 L6.49090079,35.2095498 C6.49090079,38.3686748 4.75877839,41.2155606 1.98738255,42.6665541 C1.82328674,42.7400221 1.76858814,42.9420592 1.84151961,43.1073622 C1.89621821,43.2175642 2.00561541,43.2910323 2.13324549,43.2910323 C2.18794409,43.2910323 2.24264269,43.2726653 2.27910842,43.2542983 C5.26929868,41.6747358 7.12905115,38.5890788 7.12905115,35.2095498 Z" id="Shape"></path>
                    </g>
                </g>
            </g>
        </g>
    </g>
</svg>