<?xml version="1.0" encoding="UTF-8"?>
<svg width="172px" height="37px" viewBox="0 0 172 37" version="1.1" xmlns="http://www.w3.org/2000/svg" xmlns:xlink="http://www.w3.org/1999/xlink">
    <!-- Generator: Sketch 51.3 (57544) - http://www.bohemiancoding.com/sketch -->
    <title>hyde-park</title>
    <desc>Created with Sketch.</desc>
    <defs></defs>
    <g id="Page-1" stroke="none" stroke-width="1" fill="none" fill-rule="evenodd">
        <g id="hi-fi-v6" transform="translate(-354.000000, -1805.000000)" fill="#A8D5D4" fill-rule="nonzero">
            <g id="Group-6" transform="translate(43.000000, 1790.000000)">
                <g id="hyde-park" transform="translate(311.000000, 15.000000)">
                    <path d="M0,3.14225053 C0.0308381892,3.08726115 0.053966831,3.02441614 0.0848050202,2.96942675 C0.346929628,2.3566879 0.817212013,2.08174098 1.4339758,2.19171975 C1.97364411,2.28598726 2.35912147,2.77303609 2.39766921,3.4014862 C2.40537875,3.51932059 2.39766921,3.63715499 2.39766921,3.75498938 C2.39766921,6.13524416 2.39766921,8.52335456 2.39766921,10.9036093 C2.39766921,11.0057325 2.40537875,11.1157113 2.39766921,11.2178344 C2.38995966,11.3985138 2.49018377,11.4770701 2.65979381,11.4692144 C2.75230838,11.4692144 2.8371134,11.4692144 2.92962797,11.4692144 C6.45289108,11.4692144 9.96844464,11.4692144 13.4917078,11.4692144 C13.5148364,11.4692144 13.5456746,11.4692144 13.5688032,11.4692144 C14.015957,11.4692144 14.0236665,11.4692144 14.0236665,11.0135881 C14.0236665,8.52335456 14.0236665,6.04097665 14.0313761,3.5507431 C14.0313761,3.34649682 14.0545047,3.12653928 14.1161811,2.93800425 C14.270372,2.45095541 14.7329449,2.15244161 15.2494845,2.16029724 C15.7506051,2.16815287 16.1977589,2.5059448 16.3288212,3.00870488 C16.382788,3.22080679 16.4213357,3.44861996 16.4213357,3.66857749 C16.4290453,9.67813163 16.4290453,15.6876858 16.4213357,21.6972399 C16.4213357,22.1057325 16.3596593,22.4985138 16.0666965,22.8205945 C15.7120574,23.1976645 15.2880323,23.2605096 14.833169,23.1269639 C14.3705961,22.9934183 14.0699238,22.5692144 14.0390856,22.07431 C14.0313761,21.9564756 14.0390856,21.8386412 14.0390856,21.7208068 C14.0390856,19.2462845 14.0390856,16.7717622 14.0390856,14.2972399 C14.0390856,14.1951168 14.0313761,14.085138 14.0390856,13.9830149 C14.0467952,13.8101911 13.9542806,13.7473461 13.8000896,13.7552017 C13.7075751,13.7552017 13.6227701,13.7552017 13.5302555,13.7552017 C9.99928283,13.7552017 6.46060063,13.7552017 2.92962797,13.7552017 C2.86795159,13.7552017 2.79856567,13.7552017 2.73688929,13.7552017 C2.4285074,13.770913 2.42079785,13.770913 2.4130883,14.1008493 C2.40537875,14.9099788 2.4130883,15.7269639 2.4130883,16.5360934 C2.4130883,18.2800425 2.42079785,20.0161359 2.40537875,21.7600849 C2.40537875,22.0036093 2.36683102,22.262845 2.282026,22.4828025 C2.10470641,22.9384289 1.75006723,23.166242 1.26436576,23.1898089 C0.763245182,23.2133758 0.400896459,22.9934183 0.16961004,22.5456476 C0.115643209,22.4435244 0.0693859256,22.3335456 0.0231286419,22.2314225 C0,15.8683652 0,9.50530786 0,3.14225053 Z" id="Shape"></path>
                    <path d="M172,22.2314225 C171.946033,22.3335456 171.899776,22.4435244 171.845809,22.5456476 C171.429494,23.3312102 170.442671,23.4333333 169.887584,22.7420382 C168.970148,21.5951168 168.068131,20.4403397 167.158404,19.2855626 C165.624204,17.3373673 164.090004,15.389172 162.548095,13.4409766 C162.540385,13.433121 162.532676,13.4252654 162.524966,13.4095541 C162.278261,13.1110403 162.278261,13.1110403 162.016136,13.370276 C161.838817,13.5430998 161.669207,13.7237792 161.499597,13.896603 C160.42797,14.988535 159.364052,16.0883227 158.277006,17.1723992 C158.061139,17.3923567 157.960914,17.6123142 157.960914,17.9265393 C157.976333,19.2384289 157.968624,20.5424628 157.968624,21.8543524 C157.968624,22.262845 157.86069,22.6320594 157.544599,22.9070064 C157.174541,23.229087 156.750515,23.2762208 156.318781,23.1112527 C155.840789,22.9384289 155.64805,22.5299363 155.578664,22.0507431 C155.563245,21.9329087 155.570955,21.8150743 155.570955,21.6972399 C155.570955,15.6876858 155.570955,9.67813163 155.578664,3.66857749 C155.578664,3.37791932 155.632631,3.06369427 155.748274,2.79660297 C155.925594,2.3566879 156.311071,2.16815287 156.773644,2.16815287 C157.236217,2.16815287 157.613985,2.37239915 157.799014,2.79660297 C157.906948,3.04798301 157.968624,3.34649682 157.968624,3.62929936 C157.976333,7.08577495 157.976333,10.5422505 157.976333,13.9987261 C157.976333,14.147983 158.007172,14.2972399 158.0303,14.4464968 C158.145944,14.3443737 158.269296,14.2579618 158.36952,14.147983 C159.780368,12.6789809 161.191215,11.2178344 162.602062,9.74883227 C163.681398,8.62547771 164.753026,7.50212314 165.832362,6.37876858 C166.780636,5.38895966 167.73662,4.39129512 168.684895,3.39363057 C168.916181,3.15010616 169.132048,2.89087049 169.371044,2.6552017 C169.61004,2.41953291 169.879874,2.21528662 170.234514,2.17600849 C170.666248,2.12887473 171.028597,2.27813163 171.275303,2.63163482 C171.537427,3.00084926 171.645361,3.41719745 171.390946,3.84140127 C171.306141,3.98280255 171.213626,4.13205945 171.097983,4.24989384 C170.026356,5.3418259 168.954729,6.43375796 167.875392,7.52569002 C166.680412,8.73545648 165.477723,9.92951168 164.282743,11.1392781 C163.951233,11.4770701 163.943523,11.4142251 164.244195,11.7834395 C165.7013,13.6059448 167.158404,15.4441614 168.607799,17.2745223 C169.556074,18.4607219 170.504348,19.6469214 171.444913,20.8409766 C171.65307,21.1002123 171.814971,21.3987261 172,21.6815287 C172,21.8622081 172,22.0507431 172,22.2314225 Z" id="Shape"></path>
                    <path d="M121.656656,4.18631867e-16 C121.872524,0.227813163 122.072972,0.463481953 122.296549,0.675583864 C123.853877,2.13673036 125.418915,3.59787686 126.976244,5.05116773 C128.171224,6.16666667 129.358494,7.27430998 130.553474,8.38980892 C130.815598,8.63333333 130.977499,8.91613588 130.938951,9.28535032 C130.892694,9.70169851 130.661407,9.97664544 130.28364,10.133758 C129.921291,10.2830149 129.59749,10.1808917 129.312237,9.94522293 C129.050112,9.73312102 128.811116,9.49745223 128.564411,9.26963907 C127.461945,8.23269639 126.35948,7.18789809 125.257015,6.15095541 C124.100583,5.07473461 122.944151,3.9985138 121.795428,2.92229299 C121.618108,2.75732484 121.517884,2.77303609 121.348274,2.93014862 C120.762349,3.47218684 120.153294,4.00636943 119.559659,4.54055202 C118.426356,5.56178344 117.293052,6.59087049 116.167459,7.61995754 C115.342537,8.36624204 114.525325,9.12038217 113.700403,9.87452229 C113.299507,10.2437367 112.875482,10.3065817 112.466876,10.0552017 C111.911788,9.70955414 111.803855,8.97898089 112.258718,8.50764331 C112.644195,8.10700637 113.068221,7.73779193 113.476827,7.36857749 C114.085881,6.81082803 114.710354,6.26093418 115.319408,5.70318471 C116.429583,4.69766454 117.547468,3.69214437 118.657642,2.67876858 C119.459435,1.94819533 120.261228,1.20976645 121.063021,0.479193206 C121.232631,0.322080679 121.402241,0.164968153 121.571851,0 C121.602689,4.18631867e-16 121.633528,4.18631867e-16 121.656656,4.18631867e-16 Z" id="Shape"></path>
                    <path d="M134.207799,12.7575372 C134.207799,9.7881104 134.207799,6.81868365 134.207799,3.84140127 C134.207799,3.68428875 134.20009,3.52717622 134.223218,3.37006369 C134.308023,2.73375796 134.778306,2.31740977 135.449036,2.27813163 C135.657194,2.26242038 135.857642,2.27813163 136.0658,2.27813163 C138.224473,2.27813163 140.383147,2.27813163 142.54182,2.27813163 C143.713671,2.27813163 144.877813,2.36454352 146.003407,2.73375796 C147.375706,3.17367304 148.562976,3.88853503 149.387898,5.12186837 C150.012371,6.06454352 150.336172,7.10934183 150.359301,8.25626327 C150.382429,9.15180467 150.289915,10.0316348 149.950695,10.8721868 C149.488122,12.0348195 148.701748,12.8989384 147.668669,13.5509554 C146.982519,13.9830149 146.234693,14.2579618 145.463738,14.4622081 C144.985746,14.5957537 144.985746,14.5878981 145.278709,14.9649682 C146.866876,17.0388535 148.455043,19.1127389 150.0355,21.1866242 C150.598297,21.9250531 150.397848,22.8205945 149.580636,23.1191083 C149.033259,23.3154989 148.516719,23.1819533 148.115823,22.6477707 C147.421963,21.736518 146.735814,20.8252654 146.049664,19.9140127 C144.908651,18.3978769 143.759928,16.8895966 142.626625,15.3656051 C142.441596,15.1142251 142.233438,15.0121019 141.917346,15.0121019 C140.298342,15.0278132 138.679337,15.0199575 137.060332,15.0199575 C136.613178,15.0199575 136.613178,15.0199575 136.613178,15.4755839 C136.613178,17.5180467 136.613178,19.5605096 136.613178,21.6029724 C136.613178,21.736518 136.620887,21.8622081 136.605468,21.9957537 C136.536082,22.7734607 136.050381,23.2212314 135.310264,23.1898089 C134.685791,23.166242 134.223218,22.6399151 134.223218,21.9093418 C134.215509,19.529087 134.223218,17.1488323 134.223218,14.7607219 C134.207799,14.0929936 134.207799,13.4252654 134.207799,12.7575372 Z M136.605468,8.68832272 C136.605468,9.9059448 136.605468,11.1235669 136.605468,12.341189 C136.605468,12.4433121 136.605468,12.5532909 136.613178,12.655414 C136.613178,12.7968153 136.690273,12.8675159 136.829045,12.8675159 C136.929269,12.8675159 137.037203,12.8675159 137.137427,12.8675159 C138.987719,12.8675159 140.8303,12.8753715 142.680592,12.8596603 C143.436127,12.8518047 144.191663,12.7732484 144.91636,12.5454352 C145.77212,12.2783439 146.512237,11.8462845 147.098162,11.1392781 C147.753474,10.3458599 147.969341,9.41889597 147.938503,8.40552017 C147.899955,7.14861996 147.391125,6.16666667 146.373465,5.4596603 C145.494576,4.85477707 144.500045,4.5955414 143.459256,4.57983015 C141.300583,4.54055202 139.149619,4.5641189 136.990946,4.5641189 C136.613178,4.5641189 136.597759,4.57983015 136.597759,4.96475584 C136.605468,6.2059448 136.605468,7.44713376 136.605468,8.68832272 Z" id="Shape"></path>
                    <path d="M42.5489915,12.6711253 C42.5489915,9.76454352 42.5489915,6.85796178 42.5489915,3.95138004 C42.5489915,3.83354565 42.5489915,3.71571125 42.5489915,3.59787686 C42.5875392,2.84373673 42.9961452,2.3881104 43.7362618,2.29384289 C43.8750336,2.27813163 44.021515,2.27813163 44.1602869,2.27813163 C45.894935,2.27813163 47.6295831,2.27027601 49.3642313,2.27813163 C50.7673689,2.28598726 52.162797,2.42738854 53.4965486,2.89087049 C57.1894218,4.17919321 59.5485433,6.71656051 60.2886598,10.6522293 C60.7897804,13.3152866 60.3888839,15.8683652 58.9471986,18.1936306 C57.6982519,20.2203822 55.9173465,21.5872611 53.712416,22.3728238 C52.6176602,22.7656051 51.4920663,23.0091295 50.3202152,23.0169851 C48.1923801,23.040552 46.0568355,23.0641189 43.9290004,23.0641189 C43.0192739,23.0641189 42.5412819,22.5456476 42.5412819,21.6029724 C42.5489915,18.6414013 42.5489915,15.6562633 42.5489915,12.6711253 Z M44.9543702,12.6868365 C44.9543702,15.2242038 44.9543702,17.7615711 44.9543702,20.2989384 C44.9543702,20.8016985 44.9543702,20.8095541 45.4709099,20.8095541 C46.8971762,20.8095541 48.3234424,20.8016985 49.7497087,20.8095541 C50.628597,20.8174098 51.4920663,20.707431 52.332407,20.456051 C54.8842671,19.7097665 56.6805917,18.1072187 57.5748991,15.5305732 C58.0914388,14.0458599 58.1608247,12.5140127 57.8678619,10.9664544 C57.544061,9.26963907 56.7808158,7.80849257 55.5087405,6.6537155 C53.9359928,5.22399151 52.0548633,4.57983015 49.9732855,4.54840764 C48.4622143,4.52484076 46.9434334,4.54055202 45.4246526,4.54055202 C45.3321381,4.54055202 45.2319139,4.51698514 45.1548185,4.55626327 C45.077723,4.58768577 44.992918,4.66624204 44.9620798,4.7447983 C44.9312416,4.85477707 44.9466607,4.98046709 44.9466607,5.09830149 C44.9543702,7.63566879 44.9543702,10.1651805 44.9543702,12.6868365 Z" id="Shape"></path>
                    <path d="M65.2304796,12.6868365 C65.2304796,9.72526539 65.2304796,6.77154989 65.2304796,3.80997877 C65.2304796,3.62929936 65.2381892,3.44076433 65.2767369,3.26794055 C65.3923801,2.74161359 65.7084715,2.41953291 66.2404303,2.32526539 C66.4023308,2.29384289 66.5719408,2.27813163 66.7338413,2.27813163 C70.7428059,2.27813163 74.7517705,2.27027601 78.7530255,2.28598726 C78.9997311,2.28598726 79.2695652,2.33312102 79.5008516,2.43524416 C79.9634245,2.63163482 80.1947109,3.14225053 80.0867772,3.63715499 C79.971134,4.16348195 79.6010758,4.49341826 79.0845361,4.49341826 C77.6582698,4.50127389 76.2320036,4.49341826 74.8057373,4.49341826 C72.5699686,4.49341826 70.3341999,4.49341826 68.0984312,4.49341826 C67.6281488,4.49341826 67.6281488,4.49341826 67.6281488,4.95690021 C67.6281488,6.97579618 67.6281488,8.98683652 67.6281488,11.0057325 C67.6281488,11.0842887 67.6281488,11.162845 67.6281488,11.2414013 C67.6281488,11.4063694 67.7129538,11.4770701 67.8671448,11.4770701 C67.982788,11.4770701 68.0984312,11.4770701 68.2140744,11.4770701 C71.2593456,11.4770701 74.3046168,11.4770701 77.3498879,11.4770701 C77.519498,11.4770701 77.689108,11.4770701 77.8510085,11.5084926 C78.4754818,11.6106157 78.8609592,12.1133758 78.8069924,12.7261146 C78.745316,13.370276 78.182519,13.7002123 77.6968176,13.7002123 C74.5359032,13.6845011 71.3749888,13.6923567 68.2140744,13.6923567 C67.574182,13.6923567 67.6358584,13.6216561 67.6358584,14.2815287 C67.6358584,16.2690021 67.6358584,18.2643312 67.6358584,20.2518047 C67.6358584,20.9745223 67.5587629,20.8881104 68.2449126,20.8881104 C71.8683998,20.8881104 75.491887,20.895966 79.1153743,20.8802548 C79.7244285,20.8802548 80.0867772,21.2180467 80.2178395,21.6186837 C80.4028687,22.1842887 80.1561632,22.7577495 79.6087853,22.9698514 C79.4006275,23.0484076 79.1616316,23.0876858 78.9303451,23.0876858 C74.8597042,23.0955414 70.7890632,23.0955414 66.7184222,23.0876858 C65.7084715,23.0876858 65.2458987,22.6006369 65.2458987,21.5636943 C65.2304796,18.6021231 65.2304796,15.6484076 65.2304796,12.6868365 Z" id="Shape"></path>
                    <path d="M93.5861945,12.7653928 C93.5861945,9.81953291 93.5861945,6.87367304 93.5861945,3.92781316 C93.5861945,3.80997877 93.5861945,3.69214437 93.5861945,3.57430998 C93.6170327,2.81231423 94.1104437,2.30169851 94.8659794,2.28598726 C95.4981623,2.27027601 96.1226356,2.27813163 96.7548185,2.27813163 C98.2196325,2.27813163 99.6844464,2.26242038 101.14926,2.28598726 C102.136082,2.29384289 103.122905,2.3881104 104.078888,2.66305732 C105.196773,2.985138 106.206723,3.49575372 107.062483,4.31273885 C107.979919,5.20042463 108.535007,6.28450106 108.758584,7.54140127 C108.959032,8.68832272 108.935903,9.83524416 108.604393,10.9585987 C108.149529,12.4825902 107.239803,13.6452229 105.906051,14.4543524 C104.626266,15.2320594 103.230838,15.6641189 101.742896,15.7112527 C100.008247,15.766242 98.2735993,15.7583864 96.5466607,15.7740977 C95.9992828,15.7819533 95.9992828,15.7740977 95.9992828,16.3318471 C95.9992828,18.1543524 95.9992828,19.9690021 95.9992828,21.7915074 C95.9992828,22.2 95.9144778,22.5770701 95.6138055,22.8677282 C95.2514567,23.2212314 94.8120126,23.2762208 94.3648588,23.1191083 C93.8714478,22.9462845 93.6709996,22.5220807 93.6093232,22.0271762 C93.5939041,21.9014862 93.6016136,21.7679406 93.6016136,21.6343949 C93.5861945,18.6806794 93.5861945,15.7269639 93.5861945,12.7653928 Z M95.9915733,9.0418259 C95.9915733,10.4165605 95.9915733,11.7912951 95.9915733,13.1660297 C95.9915733,13.5745223 95.9992828,13.5745223 96.4001793,13.5745223 C97.9420887,13.5745223 99.4839982,13.5902335 101.018198,13.5666667 C101.773734,13.558811 102.529269,13.4566879 103.253967,13.2210191 C104.310175,12.8753715 105.204482,12.2940552 105.828956,11.3356688 C106.360914,10.5186837 106.515105,9.59957537 106.453429,8.64118896 C106.353205,7.12505308 105.674765,5.97813163 104.348723,5.26326964 C103.431286,4.76836518 102.444464,4.57197452 101.419095,4.5641189 C99.7538324,4.55626327 98.0808606,4.55626327 96.4155984,4.5641189 C95.9915733,4.5641189 95.9915733,4.5641189 95.9915733,5.00403397 C95.9915733,6.34734607 95.9915733,7.6985138 95.9915733,9.0418259 Z" id="Shape"></path>
                    <path d="M28.2786195,18.5707006 C28.2786195,17.4944798 28.2709099,16.4261146 28.286329,15.3498938 C28.286329,15.0592357 28.2246526,14.8314225 28.0550426,14.5878981 C25.6496638,11.1707006 23.2597042,7.75350318 20.8697445,4.32845011 C20.707844,4.10063694 20.5690722,3.82569002 20.5151053,3.55859873 C20.4071717,3.03227176 20.6615867,2.56093418 21.11645,2.30955414 C21.5713133,2.0581741 22.1418198,2.11316348 22.5118781,2.47452229 C22.6814881,2.63163482 22.82026,2.82802548 22.9513223,3.01656051 C24.8247423,5.76602972 26.6981623,8.52335456 28.5715823,11.2806794 C28.8259973,11.6577495 29.0804124,12.0348195 29.342537,12.4118896 C29.5044375,12.6475584 29.512147,12.6475584 29.6817571,12.404034 C30.3216495,11.4849257 30.9538324,10.5658174 31.5860152,9.6388535 C33.1202152,7.40785563 34.6467055,5.17685775 36.1809054,2.94585987 C36.3042582,2.76518047 36.44303,2.58450106 36.6049305,2.44309979 C37.005827,2.0895966 37.5686239,2.06602972 37.992649,2.36454352 C38.4243837,2.66305732 38.6094128,3.18938429 38.4243837,3.71571125 C38.3241596,3.98280255 38.1776782,4.23418259 38.0157777,4.46199575 C37.0675034,5.81316348 36.1115195,7.16433121 35.1632452,8.51549894 C33.7369789,10.5343949 32.3107127,12.5532909 30.8767369,14.5643312 C30.7302555,14.7685775 30.6839982,14.9728238 30.6839982,15.2242038 C30.6917078,17.4237792 30.6839982,19.6233546 30.6917078,21.8229299 C30.6917078,22.2471338 30.5991932,22.6320594 30.2676827,22.914862 C29.8744957,23.2526539 29.4196325,23.2919321 28.9647692,23.0876858 C28.5099059,22.8834395 28.2940385,22.4985138 28.286329,21.9957537 C28.2786195,21.3123142 28.286329,20.6367304 28.286329,19.9532909 C28.2786195,19.4898089 28.2786195,19.0341826 28.2786195,18.5707006 Z" id="Shape"></path>
                    <path d="M129.921291,18.3664544 C129.728552,18.2800425 129.504975,18.2250531 129.350784,18.0915074 C128.91905,17.7380042 128.518153,17.3530786 128.109547,16.9760085 C127.007082,15.9390658 125.904617,14.8942675 124.802152,13.8573248 C123.861587,12.9696391 122.913312,12.0898089 121.965038,11.2021231 C121.564142,10.8329087 121.571851,10.8407643 121.178664,11.2021231 C120.107037,12.1762208 119.027701,13.1424628 117.956074,14.1165605 C117.138861,14.8549894 116.337069,15.6012739 115.519857,16.3397028 C114.887674,16.9131635 114.2632,17.4944798 113.615598,18.0522293 C113.176154,18.4292994 112.543971,18.3664544 112.197042,17.9501062 C111.850112,17.533758 111.919498,16.9053079 112.351233,16.5125265 C113.785208,15.2084926 115.219184,13.896603 116.66087,12.592569 C117.832721,11.5320594 118.996862,10.4715499 120.168714,9.41104034 C120.56961,9.04968153 120.985926,8.68832272 121.379113,8.31910828 C121.533303,8.16985138 121.641237,8.16985138 121.795428,8.31910828 C122.27342,8.77473461 122.766831,9.21464968 123.244823,9.66242038 C124.347288,10.6993631 125.449753,11.7441614 126.552219,12.7732484 C127.785746,13.9358811 129.026983,15.0906582 130.268221,16.2454352 C130.383864,16.3475584 130.507216,16.4418259 130.61515,16.5518047 C130.931242,16.8738854 131.023756,17.3609342 130.846437,17.7458599 C130.669117,18.1464968 130.353026,18.3036093 129.921291,18.3664544 Z" id="Shape"></path>
                    <path d="M122.581802,19.2462845 C122.581802,20.2282378 122.581802,21.2101911 122.581802,22.1842887 C122.581802,22.6320594 122.396773,22.9698514 121.980457,23.1505308 C121.471627,23.3704883 120.877992,23.1191083 120.685253,22.5927813 C120.615867,22.4121019 120.585029,22.2078556 120.585029,22.0193206 C120.57732,20.1339703 120.57732,18.2564756 120.57732,16.3711253 C120.57732,16.0726115 120.631286,15.7976645 120.824025,15.5619958 C121.101569,15.2163482 121.510175,15.0749469 121.887943,15.2084926 C122.304258,15.3498938 122.566383,15.6955414 122.581802,16.1511677 C122.597221,16.8424628 122.589511,17.533758 122.589511,18.2329087 C122.581802,18.5707006 122.581802,18.9084926 122.581802,19.2462845 Z" id="Shape"></path>
                    <path d="M110.716809,33.5592357 C110.716809,32.6165605 110.716809,31.6738854 110.716809,30.7312102 C110.716809,30.5898089 110.655132,30.3855626 110.86329,30.3384289 C111.056029,30.2912951 111.233348,30.3305732 111.37212,30.5112527 C112.451457,31.9095541 113.538503,33.3 114.625549,34.6983015 C114.872255,35.0125265 115.11896,35.3346072 115.365666,35.6488323 C115.396504,35.6881104 115.46589,35.7038217 115.519857,35.7352442 C115.535276,35.6881104 115.558404,35.6409766 115.558404,35.5938429 C115.566114,35.4917197 115.558404,35.381741 115.558404,35.2796178 C115.558404,33.763482 115.558404,32.2394904 115.558404,30.7233546 C115.558404,30.377707 115.62779,30.2834395 115.874496,30.3384289 C115.951591,30.3541401 116.036396,30.4484076 116.074944,30.5191083 C116.113492,30.5976645 116.090363,30.6997877 116.090363,30.7940552 C116.090363,32.6401274 116.090363,34.4861996 116.090363,36.3322718 C116.090363,36.5050955 116.167459,36.7250531 115.951591,36.8193206 C115.697176,36.9292994 115.581533,36.7014862 115.45818,36.5443737 C114.509906,35.3346072 113.569341,34.1248408 112.628776,32.9150743 C112.22788,32.4044586 111.834693,31.8859873 111.433797,31.3753715 C111.402958,31.3282378 111.333572,31.3125265 111.287315,31.281104 C111.271896,31.3282378 111.248767,31.3753715 111.248767,31.4225053 C111.241058,31.5167728 111.248767,31.6031847 111.248767,31.6974522 C111.248767,33.2292994 111.248767,34.7611465 111.248767,36.2929936 C111.248767,36.3951168 111.248767,36.5050955 111.248767,36.6072187 C111.248767,36.7721868 111.163962,36.8428875 111.002062,36.8350318 C110.85558,36.8350318 110.747647,36.7878981 110.732228,36.6229299 C110.716809,36.4893843 110.716809,36.3636943 110.716809,36.2301486 C110.716809,35.3424628 110.716809,34.4547771 110.716809,33.5592357 Z" id="Shape"></path>
                    <path d="M98.3738234,33.5828025 C98.3738234,32.6244161 98.3738234,31.6738854 98.3738234,30.7154989 C98.3738234,30.3305732 98.3892425,30.314862 98.7670103,30.314862 C99.5919319,30.314862 100.409144,30.2991507 101.234065,30.3227176 C101.750605,30.3305732 102.236307,30.4719745 102.675751,30.7861996 C103.577768,31.4303609 103.677992,33.0171975 102.498431,33.7163482 C102.282564,33.8420382 102.028149,33.9284501 101.789153,33.9991507 C101.580995,34.0619958 101.573286,34.1326964 101.696638,34.2898089 C102.213178,34.9575372 102.714299,35.633121 103.223129,36.3087049 C103.307934,36.4265393 103.400448,36.536518 103.469834,36.6622081 C103.485253,36.6936306 103.431286,36.811465 103.392739,36.8193206 C103.176871,36.8507431 102.976423,36.8585987 102.814523,36.6307856 C102.321112,35.9473461 101.781443,35.2953291 101.303451,34.604034 C101.072165,34.2740977 100.81775,34.1169851 100.409144,34.1562633 C100.031376,34.1955414 99.6381892,34.1562633 99.2527118,34.1641189 C98.9520394,34.1719745 98.9212013,34.1955414 98.9212013,34.5019108 C98.9134917,35.0753715 98.9212013,35.6566879 98.9212013,36.2301486 C98.9212013,36.2929936 98.9212013,36.3636943 98.9212013,36.4265393 C98.9134917,36.74862 98.8518153,36.8271762 98.6282385,36.8271762 C98.3429852,36.8271762 98.3815329,36.6150743 98.3815329,36.4422505 C98.3815329,35.9552017 98.3815329,35.4760085 98.3815329,34.9889597 C98.3738234,34.5254777 98.3738234,34.0541401 98.3738234,33.5828025 Z M100.293501,30.7469214 C100.293501,30.7626327 100.293501,30.7783439 100.285791,30.7940552 C99.9542806,30.7940552 99.6150605,30.7940552 99.28355,30.7940552 C98.9289108,30.8019108 98.9057822,30.8176221 98.9057822,31.1632696 C98.8980726,31.8859873 98.8980726,32.6008493 98.9057822,33.3235669 C98.9057822,33.6613588 98.9366203,33.6849257 99.2527118,33.6849257 C99.8694756,33.6927813 100.486239,33.7006369 101.103003,33.6770701 C101.380547,33.6692144 101.6658,33.6063694 101.927925,33.5042463 C102.444464,33.3078556 102.783684,32.9229299 102.837651,32.3494692 C102.899328,31.6346072 102.552398,31.092569 101.850829,30.9197452 C101.349709,30.8097665 100.81775,30.8019108 100.293501,30.7469214 Z" id="Shape"></path>
                    <path d="M55.670641,33.5906582 C55.670641,34.4940552 55.670641,35.3974522 55.670641,36.3008493 C55.670641,36.3951168 55.6860601,36.4893843 55.6629314,36.5757962 C55.6398028,36.6622081 55.5935455,36.7878981 55.5241596,36.811465 C55.4470641,36.8350318 55.3160018,36.7957537 55.2543254,36.7407643 C55.1232631,36.6150743 55.023039,36.4658174 54.9073958,36.3165605 C53.6815778,34.7375796 52.4557597,33.1585987 51.2222322,31.5796178 C51.1682654,31.5089172 51.106589,31.4382166 51.0526221,31.3675159 C51.021784,31.3282378 50.9755267,31.3046709 50.9369789,31.2732484 C50.9138503,31.3282378 50.8753026,31.3832272 50.8753026,31.4382166 C50.867593,32.0430998 50.8753026,32.6401274 50.8753026,33.2450106 C50.8753026,34.266242 50.8753026,35.2874735 50.8753026,36.3087049 C50.8753026,36.4265393 50.8984312,36.5600849 50.8521739,36.6543524 C50.8136262,36.7329087 50.6825639,36.811465 50.5977589,36.8193206 C50.5283729,36.8271762 50.4204393,36.7329087 50.3818915,36.6543524 C50.3433438,36.5679406 50.3587629,36.4501062 50.3587629,36.347983 C50.3587629,34.4861996 50.3587629,32.6322718 50.3587629,30.7704883 C50.3587629,30.6133758 50.2816674,30.4012739 50.5052443,30.3384289 C50.7211116,30.2755839 50.8907216,30.3619958 51.037203,30.5505308 C52.3015688,32.2002123 53.5813537,33.8341826 54.853429,35.4760085 C54.8611385,35.4838641 54.8688481,35.4995754 54.8765576,35.507431 C54.9767817,35.6016985 55.0770058,35.695966 55.1772299,35.7902335 C55.1849395,35.6645435 55.2003586,35.5309979 55.2003586,35.4053079 C55.2003586,33.889172 55.2003586,32.3651805 55.2003586,30.8490446 C55.2003586,30.7312102 55.1772299,30.6055202 55.2157777,30.503397 C55.2466159,30.4326964 55.3545495,30.3462845 55.431645,30.3462845 C55.5087405,30.3462845 55.6166741,30.4248408 55.6475123,30.503397 C55.6860601,30.5898089 55.6629314,30.7076433 55.670641,30.8097665 C55.670641,31.7288747 55.670641,32.6636943 55.670641,33.5906582 Z" id="Shape"></path>
                    <path d="M70.3804572,33.5592357 C70.3804572,32.6165605 70.3804572,31.6738854 70.3804572,30.7312102 C70.3804572,30.3305732 70.3958763,30.314862 70.7967727,30.314862 C71.6062752,30.314862 72.4157777,30.2991507 73.2252801,30.314862 C73.8343344,30.3305732 74.3740027,30.5191083 74.8442851,30.9433121 C75.5458539,31.5796178 75.5921112,33.1507431 74.4356791,33.7477707 C74.2275213,33.8498938 74.011654,33.9205945 73.7880771,33.9991507 C73.5567907,34.077707 73.533662,34.1091295 73.687853,34.3133758 C74.1581354,34.9339703 74.6284177,35.5545648 75.1064097,36.1751592 C75.1989242,36.3008493 75.2991484,36.4186837 75.3839534,36.5522293 C75.4302107,36.6229299 75.4456298,36.7093418 75.476468,36.7957537 C75.3993725,36.811465 75.3299866,36.8271762 75.2528911,36.8428875 C75.0216047,36.87431 74.8674137,36.7564756 74.7363514,36.5757962 C74.2198117,35.8766454 73.687853,35.1932059 73.1713133,34.4861996 C73.0094128,34.266242 72.8320932,34.1562633 72.5622591,34.1641189 C72.1228149,34.1798301 71.6910802,34.1641189 71.251636,34.1719745 C70.8661587,34.1719745 70.8584491,34.1876858 70.8584491,34.5647558 C70.8584491,35.1539278 70.8584491,35.7430998 70.8584491,36.3322718 C70.8584491,36.4265393 70.8584491,36.5129512 70.8584491,36.6072187 C70.8584491,36.7721868 70.7736441,36.8428875 70.6117436,36.8350318 C70.4729718,36.8350318 70.3958763,36.7643312 70.3881667,36.6229299 C70.3804572,36.5208068 70.3804572,36.410828 70.3804572,36.3087049 C70.3804572,35.3974522 70.3804572,34.4783439 70.3804572,33.5592357 Z M70.8584491,32.2080679 C70.8584491,32.2080679 70.8507396,32.2080679 70.8584491,32.2080679 C70.8584491,32.585138 70.8507396,32.9700637 70.8584491,33.3471338 C70.8661587,33.6613588 70.8815778,33.6849257 71.1899597,33.6927813 C71.8221425,33.7006369 72.4466159,33.7320594 73.0787987,33.6770701 C73.448857,33.6456476 73.8343344,33.5199575 74.181264,33.3707006 C74.505065,33.2292994 74.7132228,32.9386412 74.7980278,32.5694268 C75.0138951,31.6581741 74.4433886,31.0454352 73.7572389,30.8961783 C72.870641,30.7076433 71.9686239,30.8333333 71.0743165,30.8097665 C70.8969969,30.8019108 70.8738682,30.9354565 70.8738682,31.0768577 C70.8584491,31.4539278 70.8584491,31.8309979 70.8584491,32.2080679 Z" id="Shape"></path>
                    <path d="M124.038906,33.5828025 C124.038906,32.6401274 124.038906,31.6974522 124.038906,30.7547771 C124.038906,30.3305732 124.046616,30.3227176 124.478351,30.3227176 C125.287853,30.3227176 126.097355,30.3070064 126.906858,30.3305732 C127.531331,30.3462845 128.078709,30.5348195 128.541282,30.9983015 C129.219722,31.6660297 129.188884,33.1350318 128.186643,33.7163482 C127.955356,33.8498938 127.693232,33.9441614 127.438817,34.014862 C127.222949,34.0698514 127.222949,34.1484076 127.338593,34.3055202 C127.731779,34.8239915 128.117257,35.3424628 128.510444,35.8609342 C128.703182,36.1201699 128.903631,36.3794055 129.104079,36.6307856 C129.212013,36.7800425 129.158046,36.8350318 128.996145,36.8507431 C128.74944,36.87431 128.564411,36.8036093 128.40251,36.5836518 C127.89368,35.8766454 127.354012,35.1932059 126.837472,34.4940552 C126.675571,34.2740977 126.505961,34.1641189 126.228418,34.1719745 C125.765845,34.1955414 125.303272,34.1719745 124.840699,34.1798301 C124.540027,34.1876858 124.516898,34.2112527 124.509189,34.5254777 C124.501479,35.1774947 124.509189,35.8295117 124.501479,36.4893843 C124.501479,36.5993631 124.478351,36.7407643 124.408965,36.811465 C124.262483,36.9528662 124.031197,36.811465 124.031197,36.5757962 C124.023487,36.1280255 124.023487,35.6881104 124.023487,35.2403397 C124.038906,34.6747346 124.038906,34.1248408 124.038906,33.5828025 Z M124.516898,32.2394904 C124.516898,32.2394904 124.516898,32.2394904 124.516898,32.2394904 C124.516898,32.5694268 124.516898,32.8915074 124.516898,33.2214437 C124.516898,33.6692144 124.540027,33.6927813 124.964052,33.6927813 C125.403496,33.6927813 125.835231,33.7006369 126.274675,33.6927813 C126.606186,33.6849257 126.937696,33.6613588 127.269207,33.6063694 C127.639265,33.5356688 127.978485,33.3707006 128.217481,33.0564756 C128.841954,32.2473461 128.425639,31.1161359 127.415688,30.8961783 C126.52909,30.6997877 125.627073,30.8333333 124.732766,30.8097665 C124.532317,30.8019108 124.516898,30.9590234 124.516898,31.1082803 C124.516898,31.4774947 124.516898,31.8624204 124.516898,32.2394904 Z" id="Shape"></path>
                    <path d="M44.260511,33.55138 C44.260511,32.6087049 44.260511,31.6660297 44.260511,30.7233546 C44.260511,30.3384289 44.2759301,30.3227176 44.6459883,30.3227176 C45.9180636,30.3227176 47.190139,30.3227176 48.4622143,30.3227176 C48.500762,30.3227176 48.5393097,30.3227176 48.5778575,30.3227176 C48.7320484,30.3227176 48.8631107,30.3541401 48.8631107,30.5505308 C48.8631107,30.7469214 48.7628866,30.8019108 48.5932766,30.7940552 C48.4005379,30.7940552 48.2077992,30.7940552 48.0150605,30.7940552 C47.0667862,30.7940552 46.1108023,30.7940552 45.162528,30.7940552 C44.8078888,30.7940552 44.7924697,30.8097665 44.7847602,31.1711253 C44.7770506,31.7367304 44.7847602,32.2944798 44.7847602,32.8600849 C44.7847602,33.3 44.7924697,33.3 45.2087853,33.3078556 C46.0568355,33.3078556 46.9048857,33.3078556 47.7529359,33.3078556 C47.8454505,33.3078556 47.9302555,33.3 48.0227701,33.3078556 C48.1923801,33.3157113 48.415957,33.2607219 48.4082474,33.55138 C48.4005379,33.8498938 48.1692515,33.7713376 48.007351,33.7791932 C47.0667862,33.7870488 46.133931,33.7791932 45.1933662,33.7791932 C44.7924697,33.7791932 44.7847602,33.7870488 44.7847602,34.1955414 C44.7847602,34.8004246 44.7770506,35.3974522 44.7847602,36.0023355 C44.7847602,36.3401274 44.8078888,36.3558386 45.1393994,36.3558386 C46.218736,36.3636943 47.2980726,36.3558386 48.3774092,36.3558386 C48.4776333,36.3558386 48.5932766,36.3322718 48.6857911,36.3715499 C48.7628866,36.4029724 48.8399821,36.4893843 48.8631107,36.5679406 C48.8939489,36.6936306 48.8476916,36.8036093 48.6935007,36.8193206 C48.6164052,36.8271762 48.5393097,36.8271762 48.4622143,36.8271762 C47.2132676,36.8271762 45.9720305,36.8271762 44.7230838,36.8271762 C44.2759301,36.8271762 44.2528014,36.8036093 44.2528014,36.3244161 C44.260511,35.4131635 44.260511,34.4861996 44.260511,33.55138 Z" id="Shape"></path>
                    <path d="M76.9412819,33.5828025 C76.9412819,32.6244161 76.9412819,31.6738854 76.9412819,30.7154989 C76.9412819,30.3305732 76.956701,30.3227176 77.3344688,30.314862 C78.5911251,30.314862 79.8477813,30.314862 81.112147,30.314862 C81.2123711,30.314862 81.3280143,30.314862 81.4051098,30.3619958 C81.4590766,30.3934183 81.4899148,30.5269639 81.4744957,30.5976645 C81.4590766,30.6683652 81.3819812,30.7469214 81.3125952,30.7704883 C81.2200807,30.8019108 81.112147,30.7861996 81.0042134,30.7861996 C79.9480054,30.7861996 78.8995069,30.7861996 77.843299,30.7861996 C77.4038548,30.7861996 77.4038548,30.7861996 77.4038548,31.2496815 C77.4038548,31.8152866 77.3961452,32.3730361 77.4038548,32.9386412 C77.4038548,33.2685775 77.4269834,33.2921444 77.7584939,33.2921444 C78.6990587,33.3 79.6319139,33.2921444 80.5724787,33.2921444 C80.6649933,33.2921444 80.7497983,33.2921444 80.8423129,33.2921444 C80.9887943,33.2921444 81.0890184,33.3471338 81.0890184,33.5199575 C81.0890184,33.6849257 81.0119229,33.763482 80.857732,33.763482 C80.7575078,33.763482 80.6495742,33.763482 80.5493501,33.763482 C79.6396235,33.763482 78.7298969,33.763482 77.8124608,33.763482 C77.4115643,33.763482 77.4038548,33.7713376 77.4038548,34.1798301 C77.4038548,34.7690021 77.4038548,35.3581741 77.4038548,35.9473461 C77.4038548,36.3322718 77.4192739,36.347983 77.7893321,36.347983 C78.8532497,36.347983 79.9171672,36.347983 80.9887943,36.347983 C81.0890184,36.347983 81.196952,36.347983 81.2971762,36.347983 C81.4436576,36.347983 81.5438817,36.4029724 81.5438817,36.5757962 C81.5361721,36.7407643 81.4513671,36.811465 81.2971762,36.8193206 C81.2200807,36.8193206 81.1429852,36.8271762 81.0658897,36.8271762 C79.8323622,36.8271762 78.5988346,36.8271762 77.365307,36.8271762 C76.9335724,36.8271762 76.9258628,36.8193206 76.9258628,36.3951168 C76.9335724,35.4681529 76.9412819,34.5254777 76.9412819,33.5828025 Z" id="Shape"></path>
                    <path d="M117.948364,33.5670913 C117.948364,32.6244161 117.948364,31.681741 117.948364,30.7390658 C117.948364,30.3305732 117.963783,30.314862 118.35697,30.314862 C119.613626,30.314862 120.870282,30.314862 122.134648,30.314862 C122.26571,30.314862 122.427611,30.2677282 122.489287,30.4641189 C122.543254,30.6369427 122.466159,30.7704883 122.27342,30.7861996 C122.080681,30.8019108 121.887943,30.7940552 121.695204,30.7940552 C120.731511,30.7940552 119.767817,30.7940552 118.804124,30.7940552 C118.449485,30.7940552 118.426356,30.8097665 118.426356,31.1632696 C118.418646,31.7524416 118.418646,32.3416136 118.426356,32.9307856 C118.426356,33.2842887 118.449485,33.3 118.804124,33.3 C119.729269,33.3 120.654415,33.3 121.579561,33.3 C121.695204,33.3 121.826266,33.2764331 121.918781,33.3235669 C121.995876,33.362845 122.072972,33.488535 122.080681,33.5828025 C122.088391,33.6377919 121.972748,33.7320594 121.887943,33.763482 C121.795428,33.7949045 121.687494,33.7713376 121.579561,33.7713376 C120.654415,33.7713376 119.729269,33.7713376 118.804124,33.7713376 C118.426356,33.7713376 118.410937,33.7870488 118.410937,34.1719745 C118.410937,34.7768577 118.403227,35.3738854 118.410937,35.9787686 C118.410937,36.3401274 118.426356,36.3558386 118.780995,36.3558386 C119.844913,36.3558386 120.91654,36.3558386 121.980457,36.3558386 C122.080681,36.3558386 122.188615,36.3558386 122.288839,36.3636943 C122.43532,36.3715499 122.489287,36.4501062 122.489287,36.5915074 C122.489287,36.7329087 122.43532,36.8193206 122.288839,36.8271762 C122.211744,36.8350318 122.134648,36.8350318 122.057553,36.8350318 C120.824025,36.8350318 119.590498,36.8350318 118.35697,36.8350318 C117.940654,36.8350318 117.932945,36.8271762 117.925235,36.3951168 C117.948364,35.4524416 117.948364,34.5097665 117.948364,33.5670913 Z" id="Shape"></path>
                    <path d="M96.7548185,36.8428875 C96.5774989,36.8664544 96.4695652,36.7564756 96.3924697,36.5836518 C96.2151502,36.1751592 96.030121,35.7745223 95.8682205,35.3660297 C95.775706,35.1225053 95.6369341,35.0282378 95.3748095,35.0360934 C94.3648588,35.0518047 93.3471986,35.0518047 92.3372479,35.0360934 C92.0674137,35.0360934 91.9132228,35.1303609 91.8129987,35.381741 C91.6588077,35.7823779 91.4737786,36.1751592 91.3041685,36.5679406 C91.2424922,36.7171975 91.1731062,36.8428875 90.972658,36.8507431 C90.7182429,36.8585987 90.6642761,36.7957537 90.7722098,36.5600849 C91.0343344,35.9630573 91.3041685,35.3738854 91.5740027,34.7768577 C92.1676378,33.4728238 92.7535634,32.1687898 93.3471986,30.8647558 C93.4088749,30.7312102 93.4628418,30.6055202 93.5322277,30.4798301 C93.7018377,30.1734607 94.0256387,30.1734607 94.1798297,30.4955414 C94.4727925,31.092569 94.7426266,31.6974522 95.0201703,32.3023355 C95.621515,33.6299363 96.2228597,34.9575372 96.8242044,36.285138 C96.8704617,36.3951168 96.9321381,36.4972399 96.9706858,36.6072187 C97.0400717,36.7957537 97.001524,36.8428875 96.7548185,36.8428875 Z M93.8097714,34.5569002 C93.8097714,34.5569002 93.8097714,34.5647558 93.8097714,34.5569002 C94.2492156,34.5569002 94.6809502,34.5647558 95.1203944,34.5569002 C95.4596145,34.5490446 95.4750336,34.5176221 95.3362618,34.1876858 C95.2437472,33.9755839 95.1435231,33.763482 95.0510085,33.5435244 C94.6809502,32.7265393 94.310892,31.9016985 93.9485433,31.0847134 C93.9254146,31.0375796 93.8945764,30.9983015 93.8714478,30.9511677 C93.8329,30.9983015 93.7789332,31.029724 93.7558046,31.0847134 C93.2701031,32.1530786 92.7921112,33.2214437 92.3141192,34.2898089 C92.2293142,34.4783439 92.2755715,34.5569002 92.4760197,34.5569002 C92.9154639,34.5569002 93.3626177,34.5569002 93.8097714,34.5569002 Z" id="Shape"></path>
                    <path d="M85.7378754,33.5435244 C85.7378754,32.6008493 85.7378754,31.6581741 85.7378754,30.7154989 C85.7378754,30.3384289 85.7532945,30.3227176 86.1310623,30.3227176 C86.8480502,30.3227176 87.5727476,30.3070064 88.2897355,30.3305732 C89.0221425,30.3541401 89.6851636,30.566242 90.1400269,31.2104034 C90.6719857,31.9566879 90.6411475,33.5121019 89.3767817,34.1169851 C88.9913043,34.3055202 88.5826983,34.4154989 88.1509637,34.4154989 C87.6498431,34.4154989 87.1487225,34.4154989 86.647602,34.4154989 C86.2929628,34.4154989 86.2775437,34.4312102 86.2698342,34.792569 C86.2621246,35.381741 86.2698342,35.970913 86.2621246,36.5600849 C86.2621246,36.811465 86.0770955,36.937155 85.8843568,36.8193206 C85.7995518,36.7643312 85.7455849,36.6072187 85.7378754,36.4972399 C85.7224563,36.0416136 85.7301658,35.5781316 85.7301658,35.1225053 C85.7378754,34.5883227 85.7378754,34.0619958 85.7378754,33.5435244 Z M86.2698342,32.3494692 C86.2698342,32.3494692 86.2698342,32.3494692 86.2698342,32.3494692 C86.2698342,32.7422505 86.2698342,33.1350318 86.2698342,33.5278132 C86.2698342,33.9205945 86.2852532,33.9363057 86.647602,33.9363057 C87.1333035,33.9363057 87.6267145,33.952017 88.112416,33.9284501 C88.3745406,33.9127389 88.6520843,33.8656051 88.8987898,33.7791932 C89.6003586,33.55138 90.0089646,32.9229299 89.9549978,32.2316348 C89.9010309,31.5324841 89.4384581,30.9747346 88.7137606,30.8883227 C87.9813537,30.8019108 87.2335276,30.8254777 86.4857015,30.8019108 C86.2929628,30.7940552 86.2621246,30.9354565 86.2621246,31.092569 C86.2698342,31.5089172 86.2698342,31.933121 86.2698342,32.3494692 Z" id="Shape"></path>
                    <path d="M132.727566,36.9842887 C131.871806,36.937155 131.139399,36.6229299 130.468669,36.1201699 C130.329897,36.0180467 130.144868,35.9237792 130.337606,35.695966 C130.499507,35.507431 130.499507,35.4995754 130.761632,35.7116773 C131.393814,36.2065817 132.087674,36.4893843 132.897176,36.4579618 C133.267234,36.4422505 133.591035,36.3165605 133.907127,36.1201699 C134.469924,35.7666667 134.616405,34.6276008 133.85316,34.2505308 C133.521649,34.0855626 133.159301,33.9834395 132.812371,33.8656051 C132.372927,33.7242038 131.918064,33.6299363 131.486329,33.4649682 C130.78476,33.1900212 130.437831,32.6794055 130.437831,31.9802548 C130.437831,31.281104 130.838727,30.6840764 131.524877,30.4169851 C132.380636,30.0870488 133.213268,30.2127389 134.02277,30.5898089 C134.19238,30.6683652 134.346571,30.7940552 134.516181,30.8961783 C134.693501,31.0061571 134.639534,31.1161359 134.53931,31.2496815 C134.431376,31.3989384 134.346571,31.4225053 134.20009,31.3046709 C133.629583,30.8333333 132.974272,30.6762208 132.257284,30.7233546 C131.925773,30.7469214 131.64052,30.8726115 131.370686,31.0690021 C130.800179,31.4853503 130.800179,32.5537155 131.501748,32.8757962 C131.887225,33.04862 132.288122,33.17431 132.696728,33.3078556 C133.074496,33.4335456 133.467683,33.5042463 133.837741,33.6535032 C134.693501,33.9912951 135.078978,34.7768577 134.824563,35.6409766 C134.670372,36.1751592 134.300314,36.5443737 133.799193,36.7407643 C133.459973,36.8585987 133.089915,36.8978769 132.727566,36.9842887 Z" id="Shape"></path>
                    <path d="M63.3647692,32.6244161 C63.3647692,32.0116773 63.3647692,31.3910828 63.3647692,30.7783439 C63.3647692,30.6840764 63.3647692,30.5976645 63.3724787,30.503397 C63.3878978,30.3462845 63.4958315,30.2991507 63.6191842,30.3305732 C63.6962797,30.3541401 63.7965038,30.4248408 63.827342,30.503397 C63.8658897,30.5898089 63.8427611,30.7076433 63.8427611,30.8097665 C63.8427611,31.8152866 63.8350515,32.8208068 63.8504706,33.8341826 C63.8504706,34.1562633 63.8813088,34.4861996 63.9275661,34.8082803 C64.0894666,35.7666667 64.8527118,36.4186837 65.8164052,36.4501062 C66.3714926,36.4658174 66.9034514,36.4029724 67.3428956,36.0416136 C67.8594352,35.6174098 68.067593,35.0360934 68.0753026,34.3840764 C68.0830121,33.2057325 68.0753026,32.0273885 68.0753026,30.8490446 C68.0753026,30.7469214 68.0753026,30.6369427 68.0830121,30.5348195 C68.0907216,30.3619958 68.1986553,30.3227176 68.3451367,30.3227176 C68.4839086,30.3227176 68.6072613,30.3541401 68.6149709,30.5269639 C68.6149709,30.6055202 68.6226804,30.6840764 68.6226804,30.7626327 C68.6226804,31.8859873 68.6380995,33.0093418 68.6149709,34.140552 C68.6072613,34.8318471 68.476199,35.4995754 68.0136262,36.0416136 C67.8363066,36.2458599 67.6358584,36.4422505 67.4122815,36.5836518 C66.5488122,37.12569 64.8450022,37.1099788 64.0354998,36.1515924 C63.6346033,35.6723992 63.4033169,35.1382166 63.3878978,34.5176221 C63.3570596,33.8813163 63.3724787,33.2528662 63.3647692,32.6244161 C63.3647692,32.6244161 63.3647692,32.6244161 63.3647692,32.6244161 Z" id="Shape"></path>
                    <path d="M37.2371134,30.3227176 C37.4375616,30.2912951 37.5300762,30.440552 37.6071717,30.6212314 C37.9695204,31.5010616 38.3395787,32.3808917 38.7019274,33.2607219 C39.0719857,34.1484076 39.4420439,35.043949 39.8121022,35.9316348 C39.8429404,36.0101911 39.9123263,36.0651805 39.9662931,36.1358811 C40.0048409,36.0730361 40.0510982,36.0101911 40.0819364,35.9394904 C40.6755715,34.5333333 41.2692066,33.1271762 41.8551322,31.7210191 C42.0170327,31.3360934 42.1789332,30.9511677 42.3408337,30.566242 C42.3639623,30.5191083 42.3793814,30.440552 42.4102196,30.4326964 C42.5489915,30.3934183 42.710892,30.3227176 42.8342447,30.3541401 C43.0038548,30.4091295 42.8727925,30.5505308 42.8342447,30.6447983 C42.3562528,31.7838641 41.8705513,32.9229299 41.3848498,34.0619958 C41.0456298,34.855414 40.7064097,35.6409766 40.3671896,36.4343949 C40.3286419,36.5286624 40.2978037,36.6464968 40.2361273,36.7171975 C40.1590318,36.8036093 40.0356791,36.9057325 39.935455,36.8978769 C39.8352308,36.8978769 39.696459,36.7957537 39.6502017,36.7014862 C39.4420439,36.2694268 39.2570148,35.8216561 39.0719857,35.3738854 C38.4089646,33.826327 37.7536531,32.2787686 37.090632,30.7390658 C37.0675034,30.6919321 37.0443747,30.6447983 37.0289556,30.5976645 C36.9364411,30.3619958 36.9672792,30.3227176 37.2371134,30.3227176 Z" id="Shape"></path>
                    <path d="M106.623039,33.7870488 C106.623039,32.9229299 106.623039,32.058811 106.623039,31.1946921 C106.623039,30.8097665 106.615329,30.8019108 106.229852,30.8019108 C105.713312,30.8019108 105.204482,30.8019108 104.687943,30.8019108 C104.510623,30.8019108 104.371851,30.7469214 104.410399,30.5348195 C104.425818,30.4562633 104.518333,30.377707 104.595428,30.3384289 C104.657104,30.3070064 104.749619,30.3227176 104.826714,30.3227176 C106.191304,30.3227176 107.548185,30.3227176 108.912775,30.3227176 C109.275123,30.3227176 109.344509,30.3619958 109.3368,30.566242 C109.321381,30.8883227 109.074675,30.7940552 108.905065,30.7940552 C108.496459,30.8097665 108.080143,30.7940552 107.671537,30.8019108 C107.170417,30.8019108 107.170417,30.8019108 107.170417,31.3282378 C107.170417,32.9622081 107.170417,34.604034 107.170417,36.2380042 C107.170417,36.3401274 107.170417,36.4501062 107.170417,36.5522293 C107.170417,36.7407643 107.085612,36.8428875 106.885164,36.8428875 C106.669296,36.8428875 106.630749,36.7171975 106.630749,36.536518 C106.623039,35.6174098 106.623039,34.6983015 106.623039,33.7870488 C106.623039,33.7870488 106.623039,33.7870488 106.623039,33.7870488 Z" id="Shape"></path>
                    <path d="M59.826087,33.8498938 C59.826087,34.729724 59.826087,35.6016985 59.826087,36.4815287 C59.826087,36.6150743 59.8646347,36.7800425 59.6641865,36.8271762 C59.4483191,36.87431 59.3249664,36.7878981 59.3018377,36.5522293 C59.2941282,36.4343949 59.2941282,36.3165605 59.2941282,36.1987261 C59.2941282,34.5490446 59.2941282,32.8993631 59.2941282,31.2496815 C59.2941282,30.7940552 59.2941282,30.7940552 58.8392649,30.7940552 C58.361273,30.7940552 57.8909906,30.7940552 57.4129987,30.7940552 C57.2588077,30.7940552 57.1277454,30.7704883 57.1277454,30.566242 C57.1277454,30.4326964 57.1662931,30.3305732 57.3127745,30.3227176 C57.38987,30.314862 57.4669655,30.314862 57.544061,30.314862 C58.9086508,30.314862 60.2655312,30.314862 61.630121,30.314862 C61.9924697,30.314862 62.0618557,30.3541401 62.0541461,30.5583864 C62.038727,30.8804671 61.7920215,30.7861996 61.6224115,30.7861996 C61.1444195,30.7940552 60.6741372,30.7861996 60.1961452,30.7940552 C59.8492156,30.7940552 59.8337965,30.8097665 59.8337965,31.1789809 C59.826087,32.0745223 59.826087,32.9622081 59.826087,33.8498938 Z" id="Shape"></path>
                </g>
            </g>
        </g>
    </g>
</svg>