<?xml version="1.0" encoding="UTF-8"?>
<svg width="169px" height="23px" viewBox="0 0 169 23" version="1.1" xmlns="http://www.w3.org/2000/svg" xmlns:xlink="http://www.w3.org/1999/xlink">
    <!-- Generator: Sketch 51.3 (57544) - http://www.bohemiancoding.com/sketch -->
    <title>legaltechnews-horizontal</title>
    <desc>Created with Sketch.</desc>
    <defs></defs>
    <g id="Page-1" stroke="none" stroke-width="1" fill="none" fill-rule="evenodd">
        <g id="hi-fi-v6" transform="translate(-223.000000, -1010.000000)" fill="#A8D5D4">
            <g id="Press-Bar-5-up-2" transform="translate(62.000000, 970.000000)">
                <g id="legaltechnews-horizontal" transform="translate(161.000000, 40.000000)">
                    <g>
                        <g id="Group" fill-rule="nonzero">
                            <polygon id="Shape" points="0 0 2.71954023 0 2.71954023 15.4036697 10.9644955 15.4036697 10.9644955 17.7247706 0 17.7247706"></polygon>
                            <path d="M17.3532567,4.57889908 C21.3030651,4.57889908 23.7420179,7.57522936 23.7420179,11.5211009 L23.7420179,12.1119266 L13.360281,12.1119266 C13.5545338,14.2853211 15.1733078,16.1 17.8280971,16.1 C19.2094508,16.1 20.7418902,15.5724771 21.7131545,14.5807339 L22.8570881,16.1422018 C21.562069,17.387156 19.7058748,18.0623853 17.5906769,18.0623853 C13.6840358,18.0623853 10.7918263,15.340367 10.7918263,11.3100917 C10.7702427,7.57522936 13.5113665,4.57889908 17.3532567,4.57889908 Z M13.3171137,10.3605505 L21.3462324,10.3605505 C21.3030651,8.67247706 20.1159642,6.5412844 17.3532567,6.5412844 C14.7200511,6.5412844 13.4681992,8.60917431 13.3171137,10.3605505 Z" id="Shape"></path>
                            <path d="M26.0514687,19.2862385 C27.1306513,20.5100917 28.4688378,20.9954128 30.260281,20.9954128 C32.310728,20.9954128 34.3395913,20.0458716 34.3395913,17.3238532 L34.3395913,15.6568807 C33.3251596,16.9229358 31.7927203,17.8724771 30.0228608,17.8724771 C26.6342273,17.8513761 24.1736909,15.4036697 24.1736909,11.1834862 C24.1736909,7.06880734 26.6126437,4.55779817 30.0228608,4.55779817 C31.7279693,4.55779817 33.2819923,5.35963303 34.3395913,6.73119266 L34.3395913,4.87431193 L36.7785441,4.87431193 L36.7785441,17.2183486 C36.7785441,21.6284404 33.4978289,22.9366972 30.260281,22.9366972 C28.0587484,22.9366972 26.4615581,22.493578 24.8859515,21.0165138 L26.0514687,19.2862385 Z M34.3395913,8.58807339 C33.6489144,7.55412844 32.1596424,6.71009174 30.691954,6.71009174 C28.2530013,6.71009174 26.7205619,8.56697248 26.7205619,11.2045872 C26.7205619,13.8633028 28.2530013,15.7201835 30.691954,15.7201835 C32.1596424,15.7201835 33.6489144,14.833945 34.3395913,13.8 L34.3395913,8.58807339 Z" id="Shape"></path>
                            <path d="M46.9660281,16.3321101 C45.9300128,17.4504587 44.4407407,18.0623853 42.6708812,18.0623853 C40.4909323,18.0623853 38.0951469,16.6275229 38.0951469,13.8 C38.0951469,10.8669725 40.4693487,9.60091743 42.6708812,9.60091743 C44.4407407,9.60091743 45.9515964,10.1495413 46.9660281,11.3100917 L46.9660281,9.17889908 C46.9660281,7.57522936 45.6278416,6.62568807 43.7500639,6.62568807 C42.2607918,6.62568807 40.9657727,7.17431193 39.8002554,8.33486239 L38.7426564,6.68899083 C40.2103448,5.27522936 42.001788,4.57889908 44.116986,4.57889908 C46.9660281,4.57889908 49.3833972,5.80275229 49.3833972,9.0733945 L49.3833972,17.7247706 L46.9444444,17.7247706 L46.9444444,16.3321101 L46.9660281,16.3321101 Z M46.9660281,12.7449541 C46.2321839,11.7954128 44.9587484,11.2889908 43.5989783,11.2889908 C41.8291188,11.2889908 40.5772669,12.3229358 40.5772669,13.8422018 C40.5772669,15.3614679 41.8291188,16.3954128 43.5989783,16.3954128 C44.9587484,16.3954128 46.2321839,15.8889908 46.9660281,14.9394495 L46.9660281,12.7449541 Z" id="Shape"></path>
                            <path d="M51.4985951,14.8972477 L51.4985951,0 L53.9591315,0 L53.9591315,14.3486239 C53.9591315,15.2559633 54.3908046,15.9100917 55.232567,15.9100917 C55.793742,15.9100917 56.290166,15.6779817 56.5275862,15.4036697 L57.1750958,17.2183486 C56.6570881,17.7036697 55.8800766,18.0412844 54.6282248,18.0412844 C52.5346105,18.0623853 51.4985951,16.9018349 51.4985951,14.8972477 Z" id="Shape"></path>
                        </g>
                        <path d="M120.933206,9.34770642 C120.933206,7.21651376 119.810856,6.52018349 118.127331,6.52018349 C116.594891,6.52018349 115.213538,7.42752294 114.501277,8.37706422 L114.501277,17.5559633 L112.040741,17.5559633 L112.040741,4.7266055 L114.501277,4.7266055 L114.501277,6.5412844 C115.364623,5.50733945 117.112899,4.41009174 119.163346,4.41009174 C121.947637,4.41009174 123.393742,5.84495413 123.393742,8.56697248 L123.393742,17.5981651 L120.933206,17.5981651 L120.933206,9.34770642 Z" id="Shape" fill-rule="nonzero"></path>
                        <path d="M131.897701,4.41009174 C135.84751,4.41009174 138.308046,7.42752294 138.308046,11.3522936 L138.308046,11.9431193 L127.904725,11.9431193 C128.098978,14.1165138 129.739336,15.9311927 132.372542,15.9311927 C133.753895,15.9311927 135.286335,15.4036697 136.257599,14.4119266 L137.401533,15.9733945 C136.08493,17.2183486 134.250319,17.893578 132.113538,17.893578 C128.185313,17.893578 125.314687,15.1715596 125.314687,11.1201835 C125.293103,7.40642202 128.055811,4.41009174 131.897701,4.41009174 Z M127.861558,10.212844 L135.890677,10.212844 C135.825926,8.50366972 134.660409,6.37247706 131.897701,6.37247706 C129.242912,6.37247706 127.99106,8.46146789 127.861558,10.212844 Z" id="Shape" fill-rule="nonzero"></path>
                        <polygon id="Shape" fill-rule="nonzero" points="148.366028 7.70183486 145.12848 17.5770642 142.603193 17.5770642 138.459132 4.7266055 141.027586 4.7266055 144.027714 14.5174312 147.330013 4.7266055 149.445211 4.7266055 152.74751 14.5174312 155.747637 4.7266055 158.316092 4.7266055 154.172031 17.5770642 151.646743 17.5770642"></polygon>
                        <path d="M159.30894,14.1587156 C160.215453,15.1082569 161.942146,15.9944954 163.712005,15.9944954 C165.568199,15.9944954 166.539464,15.2559633 166.539464,14.1587156 C166.539464,12.8715596 165.050192,12.4495413 163.345083,12.0908257 C161.121967,11.5844037 158.488761,10.993578 158.488761,8.2293578 C158.488761,6.18256881 160.280204,4.43119266 163.496169,4.43119266 C165.762452,4.43119266 167.381226,5.23302752 168.503576,6.26697248 L167.424393,7.93394495 C166.668966,7.0266055 165.201277,6.37247706 163.539336,6.37247706 C161.877395,6.37247706 160.841379,7.00550459 160.841379,8.03944954 C160.841379,9.15779817 162.2659,9.53761468 163.884674,9.89633028 C166.172542,10.4027523 168.892082,11.0146789 168.892082,13.9688073 C168.892082,16.1844037 167.035888,17.9146789 163.582503,17.9146789 C161.380971,17.9146789 159.438442,17.2394495 158.100255,15.9100917 L159.30894,14.1587156 Z" id="Shape" fill-rule="nonzero"></path>
                        <path d="M104.896552,2.7853211 C104.896552,1.92018349 105.608812,1.22385321 106.493742,1.22385321 C107.378672,1.22385321 108.090932,1.92018349 108.090932,2.76422018 C108.090932,3.60825688 107.378672,4.32568807 106.493742,4.32568807 C105.587229,4.34678899 104.896552,3.6293578 104.896552,2.7853211 Z M107.918263,2.7853211 C107.918263,2.00458716 107.313921,1.39266055 106.493742,1.39266055 C105.673563,1.39266055 105.069221,2.02568807 105.069221,2.7853211 C105.069221,3.54495413 105.673563,4.17798165 106.493742,4.17798165 C107.292337,4.17798165 107.918263,3.54495413 107.918263,2.7853211 Z M105.673563,2.76422018 C105.673563,2.3 106.040485,1.92018349 106.536909,1.92018349 C106.83908,1.92018349 107.033333,2.02568807 107.184419,2.1733945 L106.968582,2.40550459 C106.83908,2.3 106.687995,2.21559633 106.515326,2.21559633 C106.213155,2.21559633 105.997318,2.46880734 105.997318,2.76422018 C105.997318,3.05963303 106.213155,3.31284404 106.515326,3.31284404 C106.709579,3.31284404 106.83908,3.22844037 106.968582,3.10183486 L107.184419,3.31284404 C107.01175,3.50275229 106.817497,3.60825688 106.515326,3.60825688 C106.018902,3.60825688 105.673563,3.22844037 105.673563,2.76422018 Z" id="Shape" fill-rule="nonzero"></path>
                        <path d="M58.8802043,14.8972477 L58.8802043,6.98440367 L56.7002554,6.98440367 L56.7002554,4.87431193 L58.8802043,4.87431193 L58.8802043,1.39266055 L61.3191571,1.39266055 L61.3191571,4.89541284 L63.9739464,4.89541284 L63.9739464,7.00550459 L61.3191571,7.00550459 L61.3191571,14.3486239 C61.3191571,15.2559633 61.7508301,15.9100917 62.5925926,15.9100917 C63.1537676,15.9100917 63.6717752,15.6779817 63.9307791,15.4036697 L64.556705,17.2183486 C64.0386973,17.7036697 63.2832695,18.0412844 62.009834,18.0412844 C59.9378033,18.0623853 58.8802043,16.9018349 58.8802043,14.8972477 Z" id="Shape" fill-rule="nonzero"></path>
                        <path d="M71.5713921,4.57889908 C75.5212005,4.57889908 77.9601533,7.57522936 77.9601533,11.5211009 L77.9601533,12.1119266 L67.5784163,12.1119266 C67.7726692,14.2853211 69.3914432,16.1 72.0462324,16.1 C73.4275862,16.1 74.9600255,15.5724771 75.9312899,14.5807339 L77.0752235,16.1422018 C75.7802043,17.387156 73.9240102,18.0623853 71.8088123,18.0623853 C67.9021711,18.0623853 65.0099617,15.340367 65.0099617,11.3100917 C64.988378,7.57522936 67.7510856,4.57889908 71.5713921,4.57889908 Z M67.5568327,10.3605505 L75.5859515,10.3605505 C75.5212005,8.65137615 74.3556833,6.5412844 71.5929757,6.5412844 C68.9381865,6.5412844 67.6863346,8.60917431 67.5568327,10.3605505 Z" id="Shape" fill-rule="nonzero"></path>
                        <path d="M86.0108557,4.57889908 C88.4929757,4.57889908 89.9822478,5.59174312 90.9319285,6.83669725 L89.2915709,8.29266055 C88.4929757,7.19541284 87.4353768,6.68899083 86.1187739,6.68899083 C83.5287356,6.68899083 81.8667944,8.63027523 81.8667944,11.2889908 C81.8667944,13.9477064 83.5287356,15.9100917 86.1187739,15.9100917 C87.4569604,15.9100917 88.5145594,15.3825688 89.2915709,14.306422 L90.9319285,15.7623853 C89.9822478,17.0073394 88.4929757,18.0201835 86.0108557,18.0201835 C82.0394636,18.0201835 79.3199234,15.1293578 79.3199234,11.2678899 C79.3199234,7.44862385 82.0394636,4.57889908 86.0108557,4.57889908 Z" id="Shape" fill-rule="nonzero"></path>
                        <path d="M101.594253,9.47431193 C101.594253,7.34311927 100.471903,6.71009174 98.788378,6.71009174 C97.2559387,6.71009174 95.8745849,7.61743119 95.1623244,8.56697248 L95.1623244,17.7247706 L92.7233716,17.7247706 L92.7233716,0 L95.183908,0 L95.183908,6.71009174 C96.0472542,5.67614679 97.8171137,4.57889908 99.8243934,4.57889908 C102.630268,4.57889908 104.033206,5.97155963 104.033206,8.67247706 L104.033206,17.7458716 L101.594253,17.7458716 L101.594253,9.47431193 Z" id="Shape" fill-rule="nonzero"></path>
                    </g>
                </g>
            </g>
        </g>
    </g>
</svg>