<?xml version="1.0" encoding="UTF-8"?>
<svg width="55px" height="39px" viewBox="0 0 55 39" version="1.1" xmlns="http://www.w3.org/2000/svg" xmlns:xlink="http://www.w3.org/1999/xlink">
    <!-- Generator: Sketch 51.3 (57544) - http://www.bohemiancoding.com/sketch -->
    <title>lyft-logo.4ac34941</title>
    <desc>Created with Sketch.</desc>
    <defs></defs>
    <g id="Page-1" stroke="none" stroke-width="1" fill="none" fill-rule="evenodd">
        <g id="hi-fi-v6" transform="translate(-281.000000, -573.000000)" fill="#DEF2F2" fill-rule="nonzero">
            <g id="client-bar" transform="translate(62.000000, 573.000000)">
                <g id="lyft-logo.4ac34941" transform="translate(219.000000, 0.000000)">
                    <path d="M0.0175068063,0.679344288 L8.36186862,0.679344288 L8.36186862,22.6388368 C8.36186862,26.1136931 9.98320478,28.1841469 11.2651149,29.071138 C9.90782253,30.2541966 5.76056313,31.2894235 2.6690671,28.7754742 C0.846299613,27.2935205 0.0175068063,24.8567184 0.0175068063,22.5649209 L0.0175068063,0.679344288 Z" id="Shape"></path>
                    <path d="M52.1676053,18.9203811 L52.1676053,16.6128308 L54.7124771,16.6128308 L54.7124771,8.51681546 L51.9179788,8.51681546 C50.8449146,3.65613653 46.4315517,0.0140605677 41.1535585,0.0140605677 C35.0735477,0.0140605677 30.1448668,4.84686958 30.1448668,10.8086131 L30.1448668,29.7153374 C31.8770109,29.9540496 33.9407544,29.6854479 35.696378,28.2580224 C37.5191456,26.7760686 38.3479384,24.3392666 38.3479384,22.047065 L38.3479384,21.3507205 L42.5153822,21.3507205 L42.5153822,13.2547051 L38.3479384,13.2547051 L38.3479384,10.8086131 L38.3578245,10.8086131 C38.3578245,9.29475033 39.6096642,8.06726126 41.1535585,8.06726126 C42.6978649,8.06726126 43.9542356,9.29475033 43.9542356,10.8086131 L43.9542356,18.9203811 C43.9542356,24.8821245 48.8882715,29.7153374 54.9682824,29.7153374 L54.9682824,21.6617329 C53.424388,21.6617329 52.1676053,20.4342438 52.1676053,18.9203811" id="Shape"></path>
                    <path d="M20.5637419,8.51665387 L20.5637419,20.398538 C20.5637419,21.0730713 19.992814,21.6195644 19.2888344,21.6195644 C18.584443,21.6195644 18.0135151,21.0730713 18.0135151,20.398538 L18.0135151,8.51665387 L9.7568933,8.51665387 L9.7568933,22.490803 C9.7568933,25.0047523 10.6264666,28.1839449 14.5830049,29.2191717 C18.5436624,30.2552065 20.8413792,28.1100289 20.8413792,28.1100289 C20.6321213,29.5233176 19.274829,30.5585445 17.0879199,30.7802923 C15.4332178,30.9479158 13.3175718,30.4107126 12.2622202,29.9668132 L12.2622202,37.3705231 C14.9516776,38.148054 17.7960188,38.3992873 20.5798069,37.8697585 C25.6316534,36.9084476 28.8203637,32.767944 28.8203637,27.2597939 L28.8203637,8.51665387 L20.5637419,8.51665387 Z" id="Shape"></path>
                </g>
            </g>
        </g>
    </g>
</svg>