<?xml version="1.0" encoding="UTF-8"?>
<svg width="187px" height="41px" viewBox="0 0 187 41" version="1.1" xmlns="http://www.w3.org/2000/svg" xmlns:xlink="http://www.w3.org/1999/xlink">
    <!-- Generator: Sketch 51.3 (57544) - http://www.bohemiancoding.com/sketch -->
    <title>ny-empire-state-development</title>
    <desc>Created with Sketch.</desc>
    <defs></defs>
    <g id="Page-1" stroke="none" stroke-width="1" fill="none" fill-rule="evenodd">
        <g id="hi-fi-v6" transform="translate(-776.000000, -1799.000000)" fill="#A8D5D4" fill-rule="nonzero">
            <g id="Group-6" transform="translate(43.000000, 1790.000000)">
                <g id="ny-empire-state-development" transform="translate(733.000000, 9.000000)">
                    <path d="M39.2807417,37.4547373 C39.3466142,37.3764507 39.3905293,37.2981642 39.4673806,37.2422452 C39.8187009,36.9850179 39.906531,36.7277907 39.6430407,36.3139903 C39.4234655,35.9449251 39.5552107,35.5982275 39.9394672,35.4192868 C40.5542778,35.1285081 40.9165768,34.8489133 40.6970016,33.9989449 C40.5213415,33.3167335 40.7189592,32.5338679 40.7628742,31.7957375 C40.7848317,31.4490399 40.8067892,31.1023423 40.8397255,30.7556447 C40.8726618,30.4424984 40.9604919,30.1293522 41.3227909,30.1517198 C41.7070475,30.1629036 41.7948776,30.464866 41.7619413,30.8115636 C41.6960688,31.6279806 41.5972599,32.4555814 41.5972599,33.2719983 C41.5972599,33.7305339 41.7180263,34.2002532 41.8497714,34.6364212 C41.959559,34.9943026 41.8936864,35.2515299 41.6301962,35.4528382 C41.3227909,35.6988816 40.9824494,35.9113737 40.6640654,36.1350496 C40.7299379,36.437012 40.8067892,36.7277907 40.8726618,37.0185693 C41.5533449,36.87318 42.2450067,36.6942393 42.9366686,36.5712176 C43.4307127,36.4817472 43.9467144,36.4146444 44.4407586,36.437012 C45.3629744,36.4705634 46.2302964,36.2692551 47.0866396,35.9337413 C47.4269812,35.7995358 47.7892802,35.6988816 48.1515793,35.6205951 C48.5468146,35.5311247 48.9091137,35.5870437 49.2933703,35.7995358 C49.5897968,35.9561089 49.9960109,35.9449251 50.3473312,35.9672927 C50.6437577,35.9896603 50.951163,35.9337413 51.2366107,35.9784765 C51.6977186,36.056763 51.8953363,36.437012 51.6098885,36.8060772 C51.3573771,37.1415911 50.995078,37.4547373 50.6108214,37.6113104 C49.7764357,37.958008 48.8981349,38.1816839 48.0417917,38.4724625 C47.6904714,38.5843005 47.3391511,38.7073222 47.0207671,38.8862629 C46.340084,39.2665119 45.6264646,39.4454526 44.8579515,39.479004 C44.7481639,39.479004 44.6383763,39.4901878 44.5285887,39.5125554 C43.3428827,39.8145178 42.1571766,40.1276641 40.9714706,40.4072589 C40.0712124,40.619751 39.1489966,40.7986917 38.2377595,40.9664486 C37.9632905,41.0223676 37.6339278,41.0447352 37.5241402,40.7315889 C37.4472889,40.5079131 37.4363101,40.1388479 37.5680552,39.9599072 C38.1060144,39.1882254 38.0072056,38.2711543 38.1938445,37.4211859 C38.215802,37.2981642 38.0291631,37.0744883 37.8864392,36.9850179 C36.6787757,36.2357037 35.4601334,35.5087571 34.2414911,34.7818105 C33.7364682,34.4798481 33.1875302,34.2338046 32.9789338,33.5963283 C32.9569762,33.5180418 32.7922949,33.4397552 32.693486,33.4285714 C31.7053977,33.3726525 30.6733943,31.929943 30.7392668,31.0464233 C30.7502456,30.9234016 30.7282881,30.789196 30.7392668,30.6661743 C30.7941606,30.084617 30.6294792,29.6596328 30.0146687,29.4806921 C29.8390086,29.4247732 29.6413909,29.3129352 29.5425821,29.1675459 C29.2022405,28.6978266 28.7081963,28.61954 28.2031734,28.563621 C27.7091292,28.5188859 27.2150851,28.5077021 26.7210409,28.5077021 C20.0679127,28.5077021 13.4147844,28.5077021 6.76165623,28.5077021 C5.37833254,28.5077021 3.99500886,28.4853345 2.60070641,28.4853345 C2.06274719,28.4853345 1.53576674,28.5412534 0.99780753,28.5524372 C0.40495452,28.563621 0.0646129777,28.2728424 0.0316766994,27.6689175 C-0.00125957886,26.9978899 -0.0232170977,26.3268622 0.0426554589,25.6558346 C0.0646129777,25.3986073 0.317124445,25.0519097 0.536699633,24.9624394 C1.84317201,24.4591686 2.61168517,23.1842161 3.88522126,22.647394 C4.04990265,22.5802912 4.19262652,22.4013505 4.26947784,22.2335936 C4.53296807,21.6632201 4.95016093,21.2606035 5.4990989,20.9921925 C5.82846168,20.8356194 5.83944044,20.6454949 5.72965285,20.2987972 C5.57595021,19.7843427 5.55399269,19.225153 5.47714138,18.6883309 C5.51007766,18.6771471 5.54301394,18.6771471 5.58692897,18.6659633 C5.56497145,18.6435957 5.55399269,18.6100443 5.53203518,18.6100443 C4.66471318,18.3751847 4.66471318,18.3751847 4.69764946,17.4469298 C4.69764946,17.435746 4.69764946,17.4133784 4.69764946,17.4021946 C4.54394683,16.3509179 4.78547953,16.2055286 5.82846168,15.802912 C7.0141677,15.3443765 8.23281,15.0088627 9.50634609,15.0312302 C10.7359671,15.0535978 11.9985245,14.9305761 13.1952093,15.3555603 C13.6233809,15.5121334 14.0625313,15.7022579 14.4358091,15.9483014 C14.7212568,16.1384259 14.9518108,16.2278962 15.259216,16.0825069 C15.9728354,15.7581769 16.7303698,15.8476472 17.4879042,15.8700148 C17.8721608,15.8811986 18.2673961,15.8252796 18.6516527,15.7581769 C18.9810155,15.7022579 19.3103783,15.5680524 19.639741,15.4897658 C19.9691038,15.422663 20.1996578,15.2884575 20.463148,15.0312302 C20.9681709,14.5391433 21.5720027,14.1365267 22.1648557,13.7339101 C22.3405159,13.6220722 22.6149849,13.6556236 22.8455388,13.6444398 C23.2846892,13.6220722 23.383498,13.5214181 23.2956679,13.0852501 C23.2407741,12.7944714 23.1529441,12.5148766 23.0760928,12.2352817 C22.9114114,11.6425407 23.0980503,11.1504537 23.4603493,10.6807344 C23.614052,10.4794261 23.7348183,10.2445664 23.8336272,10.0768095 C23.4274131,9.94260396 23.021199,9.93142017 22.8235813,9.71892808 C22.5930273,9.47288461 22.4612822,9.05908423 22.4393247,8.71238662 C22.4283459,8.45515935 22.6259636,8.13082933 22.8126025,7.94070483 C23.065114,7.68347756 23.3944768,7.47098548 23.7348183,7.31441236 C24.5582253,6.92297957 25.2279296,6.33023849 25.8866552,5.72631361 C25.985464,5.62565946 26.0842728,5.48027014 26.0952516,5.34606461 C26.1281879,4.84279388 26.3367843,4.40662591 26.6881046,4.09347968 C28.0165345,2.9191813 29.224198,1.57712602 30.8051394,0.715973879 C31.5846313,0.3021735 32.3860808,0.123232795 33.286339,0.134416589 C35.4601334,0.167967971 37.6449065,0.100865207 39.8187009,0.078497619 C40.4444902,0.0673138249 41.0812582,-0.0333403214 41.6960688,0.0113948547 C42.6731783,0.078497619 43.0793924,0.827811819 42.7170934,1.76725052 C42.6841571,1.85672087 42.6402421,2.00211019 42.6841571,2.06921296 C42.9476473,2.48301334 42.8159022,2.89681372 42.7500297,3.32179789 C42.6951359,3.6684955 42.6841571,4.02637691 42.6841571,4.38425832 C42.6841571,4.65266938 42.6182845,4.86516147 42.3328368,4.92108044 C42.0364103,4.97699941 41.8387926,4.87634526 41.7399838,4.55201523 C41.5753024,4.00400933 41.729005,3.47837101 41.8387926,2.94154889 C41.8717289,2.79615957 41.8607501,2.60603507 41.7948776,2.47182954 C41.6192174,2.11394813 41.6082387,1.77843431 41.8058563,1.4317367 C41.9924953,1.11859046 41.8717289,0.950833554 41.5423661,0.928465966 C41.1581095,0.917282172 40.7848317,0.93964976 40.4005751,0.950833554 C38.808655,1.00675252 37.2277137,1.08503908 35.6357935,1.11859046 C34.7355353,1.14095805 33.8242982,1.0514877 32.92404,1.08503908 C32.4739108,1.10740667 31.9798667,1.19687702 31.5846313,1.40936911 C30.8490544,1.82316949 30.1464138,2.32644022 29.4767095,2.84089475 C28.8838565,3.28824651 28.3458973,3.81388483 27.7859805,4.30597176 C27.3687877,4.66385317 27.0504037,5.06646976 26.9515948,5.64802705 C26.896701,5.93880569 26.6771258,6.22958434 26.4685294,6.46444401 C25.7000163,7.29204477 24.7338854,7.86241827 23.7567758,8.41042418 C23.6360095,8.47752694 23.5152431,8.5558135 23.4274131,8.65646765 C23.383498,8.70120282 23.3725193,8.80185697 23.383498,8.86895973 C23.383498,8.89132732 23.4932856,8.91369491 23.5591582,8.91369491 C24.4594164,8.86895973 24.9863969,9.57353876 24.6899704,10.4570585 C24.6131191,10.6919182 24.4923527,10.9267778 24.3276713,11.1057185 C23.9653723,11.4971513 23.9104785,11.8997679 24.0751599,12.4030386 C24.1849475,12.7161849 24.2288625,13.0516987 24.2398413,13.3872125 C24.2617988,14.1365267 23.7787334,14.6397975 23.0321777,14.6062461 C22.6808574,14.5950623 22.4393247,14.6733488 22.1868132,14.9082085 C21.9782168,15.098333 21.7037478,15.2325385 21.4731939,15.4002954 C21.3414488,15.5009496 21.1767674,15.5904199 21.0999161,15.7246255 C20.8583833,16.2167124 20.4411905,16.3397341 19.9471463,16.3956531 C19.6507198,16.4292045 19.3652721,16.5298586 19.0798243,16.6305128 C18.5308863,16.8206373 17.9819484,16.9101076 17.3890954,16.8318211 C16.7303698,16.7423507 16.0496867,16.7423507 15.4129187,17.0219456 C14.8639807,17.2568053 14.3809153,17.1002321 13.9088286,16.7535345 C13.6014234,16.5298586 13.2501031,16.3285504 12.8987828,16.2614476 C12.1522271,16.1160583 11.427629,15.8923824 10.6371583,16.0154041 C9.96745399,16.1272421 9.26481338,15.9371176 8.59510906,16.0601393 C7.66191451,16.2278962 6.75067747,16.5410424 5.83944044,16.8206373 C5.74063161,16.8541887 5.63084401,17.0443132 5.64182277,17.1449673 C5.65280153,17.3127242 5.71867409,17.5364001 5.82846168,17.6146867 C6.45425097,17.9837519 6.57501732,18.2745305 6.48718725,19.0238447 C6.45425097,19.3258072 6.49816601,19.6725048 6.6079536,19.9520996 C6.94829514,20.8244356 6.82752879,21.3053387 6.01510059,21.7750581 C5.59790773,22.0211015 5.31245999,22.3454315 5.037991,22.7480481 C4.79645829,23.1059295 4.40122295,23.3743406 4.04990265,23.6539354 C3.62173103,24.0006331 3.18258066,24.3249631 2.73245152,24.6381093 C2.27134362,24.9624394 1.81023573,25.2867694 1.32717031,25.5663642 C1.05270133,25.7229373 0.898998695,25.8683267 0.931934973,26.2038405 C0.964871251,26.5617219 0.942913732,26.9307871 0.942913732,27.2886685 C0.942913732,27.5123444 1.03074381,27.5682634 1.23934024,27.5682634 C8.01323481,27.5570796 14.7981081,27.5458958 21.5720027,27.5458958 C23.701882,27.5458958 25.8207826,27.5458958 27.9506619,27.5794472 C28.7740689,27.5906309 29.5974759,27.6912851 30.1683713,28.4405993 C30.2452227,28.5412534 30.3879465,28.5971724 30.5196916,28.6419076 C31.3430986,28.9326862 31.6724614,29.5589787 31.6395251,30.3865795 C31.6065888,31.0799747 31.7163764,31.7062672 32.2762932,32.1536189 C32.4409745,32.2766407 32.649571,32.3996624 32.8471886,32.4108462 C33.3302541,32.4443976 33.6157018,32.7016248 33.835277,33.1154252 C33.9560434,33.3391011 34.1207247,33.562777 34.3293212,33.6857987 C35.6028573,34.4686643 36.8983509,35.2403461 38.1938445,36.0008441 C38.7866975,36.3587255 39.2038904,36.7501583 39.2807417,37.4547373 Z M49.4580517,37.0073855 C48.8432411,36.5376662 48.2723457,36.4593796 47.6136201,36.7501583 C46.5377017,37.2310614 45.3959107,37.3764507 44.2102047,37.3876345 C42.7500297,37.3988183 41.3337697,37.7790673 40.0492548,38.5060139 C39.7198921,38.6961384 39.4234655,38.8527115 38.9843152,38.5060139 C38.9513789,38.9981009 38.9184426,39.3783499 38.8855063,39.8257016 C39.5442319,39.7026799 40.1041486,39.6243933 40.6640654,39.4901878 C41.1141945,39.3895337 41.5533449,39.2329605 42.003474,39.1211226 C42.870796,38.9086305 43.7490968,38.7073222 44.6164188,38.5060139 C44.7042488,38.4836463 44.8140364,38.5171977 44.9018665,38.4948301 C45.4178682,38.3606246 45.9338699,38.2487867 46.4388928,38.0810298 C46.9548945,37.9132728 47.4489387,37.6672294 47.9649404,37.4771049 C48.437027,37.3205318 48.9310712,37.1751424 49.4580517,37.0073855 Z" id="Shape"></path>
                    <path d="M155.595817,26.6431147 C156.259778,25.9219075 156.991261,25.5002786 157.925309,25.5224696 C158.848103,25.5446606 159.6246,25.86643 160.176026,26.6874966 C160.311069,26.5765417 160.423604,26.4766822 160.524887,26.3768228 C161.458934,25.5335651 162.561785,25.3449417 163.743412,25.6445201 C164.677459,25.8775255 165.251392,26.5321597 165.341421,27.4752768 C165.431449,28.4294894 165.420196,29.383702 165.431449,30.3379146 C165.442703,30.8594029 165.442703,31.3919867 165.431449,31.913475 C165.431449,32.1908624 165.532732,32.3461993 165.802818,32.4349633 C166.129172,32.5348227 166.2192,32.9342606 166.005382,33.2005524 C165.476464,33.8329957 163.912216,33.8995687 163.349536,33.2782209 C163.248254,33.167266 163.20324,32.9564516 163.20324,32.7900191 C163.191986,31.4363687 163.20324,30.0716227 163.191986,28.7179723 C163.191986,28.5293489 163.169479,28.32963 163.135718,28.1410065 C163.023182,27.5307543 162.753096,27.2200804 162.269192,27.1535075 C161.627738,27.0647435 160.783719,27.4087038 160.581155,27.8636192 C160.524887,27.9856696 160.53614,28.129911 160.53614,28.2741525 C160.53614,29.8497128 160.524887,31.4363687 160.547394,33.011929 C160.547394,33.3780804 160.389844,33.5334173 160.074743,33.5445128 C159.635854,33.5667038 159.208217,33.5667038 158.769328,33.5445128 C158.454227,33.5223218 158.285423,33.3891759 158.296677,33.011929 C158.319184,31.5251326 158.307931,30.0494318 158.307931,28.5626354 C158.307931,27.7637597 158.071605,27.3310354 157.55394,27.1756984 C156.9575,26.9981705 156.079721,27.2755579 155.742113,27.7859507 C155.663338,27.8969056 155.652085,28.0744336 155.652085,28.218675 C155.640831,29.8275218 155.640831,31.4363687 155.652085,33.0452155 C155.652085,33.3447939 155.550802,33.5223218 155.269463,33.5223218 C154.751798,33.5445128 154.234133,33.5223218 153.727722,33.5001308 C153.491396,33.4890353 153.412621,33.3447939 153.412621,33.100693 C153.423875,30.7817345 153.423875,28.4738714 153.412621,26.1549129 C153.412621,25.8553345 153.547664,25.733284 153.795243,25.7221885 C154.234133,25.6889021 154.684276,25.6999976 155.13442,25.7110931 C155.44952,25.7221885 155.618324,25.8775255 155.57331,26.2214858 C155.550802,26.3102498 155.584563,26.4323003 155.595817,26.6431147 Z" id="Shape"></path>
                    <path d="M111.112341,11.1951027 C111.786661,10.4272266 112.517175,10.0265955 113.449984,10.0488528 C114.371555,10.0711101 115.135785,10.4049693 115.686479,11.1951027 C115.821343,11.0726877 115.944969,10.9725299 116.057356,10.8723721 C117.023881,9.9932096 118.158987,9.85966592 119.361525,10.1823965 C120.260618,10.4272266 120.777597,11.0949449 120.856268,12.0074934 C120.934938,13.0201996 120.9237,14.0329058 120.946177,15.045612 C120.957416,15.4907576 120.957416,15.9359032 120.946177,16.3810488 C120.946177,16.6592648 121.00237,16.8484517 121.317053,16.9374808 C121.665452,17.0376386 121.744123,17.4716555 121.496872,17.7387429 C120.934938,18.350818 119.428957,18.3953326 118.867023,17.7943861 C118.765875,17.6830997 118.72092,17.4716555 118.72092,17.3047259 C118.709682,15.9470319 118.72092,14.5782092 118.709682,13.2205151 C118.709682,13.0535855 118.709682,12.8866559 118.675966,12.7197263 C118.563579,12.0297507 118.282612,11.7181488 117.70944,11.6291196 C117.181223,11.5400905 116.3608,11.8850784 116.136026,12.3190953 C116.068594,12.4415103 116.057356,12.6084399 116.057356,12.7642409 C116.057356,14.3222505 116.034878,15.88026 116.068594,17.4382696 C116.079833,17.8389006 115.978685,18.0614734 115.562854,18.0614734 C115.102069,18.0614734 114.641283,18.0503448 114.191736,18.0280875 C113.922008,18.0169588 113.832099,17.8500293 113.832099,17.5829419 C113.843338,16.0583183 113.843338,14.522566 113.832099,12.9979423 C113.832099,12.2634521 113.596087,11.8405638 113.090347,11.6958915 C112.460981,11.5067046 111.573126,11.7960492 111.247205,12.3079667 C111.179773,12.4303817 111.168534,12.5973113 111.168534,12.7419836 C111.168534,14.3445077 111.157295,15.9359032 111.168534,17.5384273 C111.168534,17.8389006 111.089863,18.0280875 110.763942,18.0392161 C110.269441,18.0503448 109.7637,18.0503448 109.269199,18.0280875 C109.01071,18.0169588 108.932039,17.8500293 108.932039,17.6051992 C108.943278,15.3015708 108.943278,12.9868137 108.932039,10.6831853 C108.932039,10.4049693 109.01071,10.2491683 109.291676,10.2380397 C109.718746,10.2157824 110.157054,10.1823965 110.584123,10.1935251 C110.943761,10.2046538 111.157295,10.3715834 111.078625,10.7722144 C111.067386,10.8612435 111.101102,10.9614013 111.112341,11.1951027 Z" id="Shape"></path>
                    <path d="M100.780475,28.2675959 C100.780475,26.7271241 100.790954,25.1977349 100.769995,23.6572631 C100.769995,23.3137047 100.853829,23.1363842 101.189165,23.069889 C102.666739,22.7706607 104.144313,22.6487529 105.621888,22.9590637 C107.235692,23.3026222 108.283617,24.322215 108.681828,26.0178422 C109.038123,27.5472314 109.017164,29.0877032 108.597994,30.6060099 C108.115949,32.3459672 106.743167,33.4542202 104.961695,33.6537058 C103.672747,33.7977787 102.415237,33.6537058 101.147248,33.4098901 C100.853829,33.3544774 100.728078,33.2214871 100.769995,32.9222588 C100.769995,32.9111762 100.769995,32.9000937 100.769995,32.8779286 C100.780475,31.3374569 100.780475,29.8080676 100.780475,28.2675959 Z M102.970638,31.9026659 C104.993133,32.4124623 106.187767,31.5812725 106.585978,29.7415725 C106.816522,28.6776495 106.806043,27.602644 106.533582,26.5498036 C106.313518,25.6853663 105.883869,24.9317542 105.03505,24.6657734 C104.511087,24.4995355 103.934729,24.5438656 103.379328,24.5217005 C103.07543,24.510618 102.960158,24.6657734 102.960158,24.9982494 C102.970638,27.0152699 102.970638,29.043373 102.970638,31.0603936 C102.970638,31.3263743 102.970638,31.6034376 102.970638,31.9026659 Z" id="Shape"></path>
                    <path d="M146.469401,33.2732505 C146.469401,33.7369606 146.469401,34.2006707 146.469401,34.6643808 C146.469401,35.4041089 146.458732,36.1548776 146.469401,36.8946056 C146.480071,37.1816643 146.394717,37.347275 146.09598,37.347275 C145.658543,37.3583157 145.221106,37.3583157 144.794338,37.347275 C144.452924,37.347275 144.324894,37.1816643 144.335563,36.8062799 C144.346232,33.3836577 144.346232,29.9610355 144.346232,26.5384133 C144.346232,25.887011 144.815676,25.4895452 145.43449,25.6882781 C145.711889,25.7766039 145.925273,26.0305403 146.181333,26.2071918 C146.159995,26.240314 146.149326,26.2734361 146.127987,26.317599 C146.170664,26.2955175 146.234679,26.2955175 146.266687,26.2623954 C147.333606,25.3239345 148.528556,25.3680973 149.723505,25.8318074 C150.875778,26.2844768 151.334553,27.3223042 151.505261,28.5147016 C151.64396,29.4531625 151.633291,30.3805827 151.419907,31.3080029 C150.971801,33.2290877 149.552798,33.8252864 147.920412,33.6596756 C147.450967,33.6265535 147.002861,33.4278206 146.469401,33.2732505 Z M146.469401,29.6408547 C146.469401,30.2039313 146.458732,30.7670078 146.480071,31.3300844 C146.480071,31.462573 146.533417,31.6392245 146.61877,31.7275502 C147.429629,32.5224818 148.976662,32.1139753 149.318076,31.0209443 C149.563467,30.214972 149.542129,29.3869182 149.39276,28.5699052 C149.1367,27.2229377 147.888404,26.6929833 146.778808,27.4547928 C146.629439,27.5541592 146.512078,27.797055 146.49074,27.9737065 C146.448063,28.536783 146.469401,29.0888189 146.469401,29.6408547 Z" id="Shape"></path>
                    <path d="M123.477328,10.8233161 C124.308786,9.96043854 125.367006,9.92725094 126.414427,10.115314 C127.839785,10.3808148 128.757628,11.464943 128.876408,13.102198 C128.941197,14.0425133 128.887206,15.0160162 128.714436,15.9342064 C128.45528,17.294898 127.364666,18.1135255 126.014896,18.1577756 C125.269822,18.1799007 124.535548,18.1467131 123.822869,17.6599616 C123.812071,17.8701497 123.801273,18.0139627 123.801273,18.1577756 C123.801273,19.2308413 123.790474,20.3149695 123.801273,21.3880353 C123.801273,21.6645986 123.714887,21.8194741 123.455732,21.8305366 C123.002209,21.8526617 122.537888,21.8747867 122.084365,21.8637242 C121.771218,21.8526617 121.641641,21.6867237 121.641641,21.3327226 C121.652439,18.1356505 121.652439,14.949641 121.652439,11.7525689 C121.652439,11.4096304 121.620044,11.0556293 121.663237,10.7126908 C121.684833,10.5578153 121.803613,10.3586897 121.933191,10.281252 C122.52709,9.97150108 122.948218,10.1263765 123.477328,10.8233161 Z M123.801273,14.1310135 C123.801273,14.6952027 123.790474,15.2593919 123.812071,15.8235811 C123.812071,15.9563315 123.855263,16.133332 123.941649,16.2218323 C124.773107,17.0072721 126.371235,16.5537083 126.673583,15.4363924 C126.900345,14.617765 126.911143,13.7770125 126.705978,12.9473225 C126.392831,11.6751312 125.129446,11.1883797 124.071227,11.9295694 C123.930851,12.0291322 123.822869,12.2503829 123.812071,12.4273834 C123.779676,13.0026352 123.801273,13.5668243 123.801273,14.1310135 Z" id="Shape"></path>
                    <path d="M152.742486,18.123419 C151.499816,18.1453753 150.323129,17.8928781 149.234418,17.2671242 C148.882511,17.0695177 148.816529,16.7731079 148.915503,16.4766982 C149.03647,16.1363759 149.278406,15.828988 149.487351,15.5216001 C149.509345,15.4996438 149.685298,15.5545345 149.773275,15.6094252 C150.642044,16.1034415 151.576795,16.4108293 152.57753,16.4876763 C152.995419,16.5206107 153.424305,16.4547419 153.831196,16.3449605 C154.392047,16.1912666 154.699966,15.7850754 154.710963,15.2910592 C154.732957,14.7421523 154.414042,14.4128081 153.952164,14.2371579 C153.061401,13.9187919 152.159641,13.6333602 151.268877,13.3479286 C150.257146,13.0185845 149.388377,12.502612 149.091456,11.4157762 C148.673567,9.90079309 149.179432,8.18820345 151.081927,7.59538396 C152.643512,7.11234586 154.1941,7.2111491 155.711697,7.81494673 C156.008618,7.93570626 156.283545,8.07842206 156.217562,8.49559133 C156.15158,8.94569502 156.019615,9.36286429 155.590729,9.58242706 C155.502752,9.62633962 155.337796,9.54949265 155.227825,9.49460195 C154.304071,9.05547641 153.347325,8.82493549 152.324597,9.06645454 C152.115652,9.1103671 151.906708,9.20917035 151.730755,9.32992987 C151.059933,9.7910117 151.081927,10.6253502 151.818731,10.9766507 C152.445565,11.2840386 153.116386,11.4926232 153.765214,11.7341422 C154.227091,11.9097925 154.699966,12.0415301 155.150846,12.2281585 C156.503486,12.7880436 157.075334,13.6333602 157.042343,14.9946494 C157.009352,16.3010479 156.261551,17.3659274 154.98589,17.7721185 C154.282077,18.0026594 153.523278,18.0795064 152.786474,18.2222222 C152.753483,18.1892878 152.753483,18.1563534 152.742486,18.123419 Z" id="Shape"></path>
                    <path d="M100.772514,18.2222222 C100.772514,18.0300126 100.772514,17.9056417 100.772514,17.7812708 C100.772514,14.4458692 100.772514,11.1104677 100.762136,7.77506607 C100.762136,7.4132598 100.845164,7.28888889 101.187657,7.28888889 C102.88974,7.31150178 104.581445,7.31150178 106.283528,7.28888889 C106.62602,7.28888889 106.812834,7.40195335 106.823213,7.76375962 C106.833591,8.03511433 106.812834,8.31777548 106.802456,8.60043663 C106.781699,8.89440423 106.62602,8.99616224 106.356178,8.9848558 C105.359836,8.97354935 104.363495,8.99616224 103.356775,8.97354935 C103.03504,8.9622429 102.910497,9.07530737 102.920876,9.42580719 C102.941633,10.0024359 102.931254,10.5790647 102.920876,11.1669999 C102.920876,11.4609675 103.024661,11.5627255 103.294504,11.5627255 C104.04176,11.5514191 104.799394,11.5514191 105.54665,11.5627255 C105.671193,11.5627255 105.9099,11.67579 105.9099,11.7436286 C105.941036,12.1732736 105.941036,12.6029185 105.9099,13.021257 C105.899521,13.1004022 105.681572,13.2247731 105.54665,13.2247731 C104.83053,13.247386 104.124788,13.247386 103.408668,13.2247731 C103.045418,13.2134666 102.900119,13.3265311 102.910497,13.7448696 C102.941633,14.5024015 102.931254,15.2712398 102.910497,16.0287717 C102.900119,16.390578 103.003904,16.5262553 103.356775,16.5149489 C104.415388,16.492336 105.484379,16.5036424 106.542992,16.5149489 C107.010027,16.5149489 107.072298,16.5714811 107.103434,17.0915776 C107.103434,17.1481098 107.113812,17.2046421 107.113812,17.2611743 C107.13457,18.0978513 107.051541,18.1996093 106.283528,18.1996093 C104.61258,18.1996093 102.941633,18.1996093 101.260307,18.1996093 C101.135764,18.2222222 100.980086,18.2222222 100.772514,18.2222222 Z" id="Shape"></path>
                    <path d="M94.4032563,20.5446137 C94.4032563,27.0582155 94.4032563,33.5606638 94.4032563,40.0742655 C94.4032563,40.2304135 94.4134053,40.3865615 94.4032563,40.531556 C94.3829585,40.8215452 94.2205753,41 93.9567026,41 C93.69283,41 93.5304468,40.8326986 93.5101489,40.531556 C93.5,40.3754081 93.5,40.2304135 93.5,40.0742655 C93.5,27.0247552 93.5,13.9752448 93.5,0.925734494 C93.5,0.769586507 93.5,0.61343852 93.5101489,0.468443961 C93.5304468,0.178454842 93.6826811,0 93.9465537,0 C94.2307242,0 94.3829585,0.18960827 94.4032563,0.501904244 C94.4134053,0.635745375 94.4032563,0.780739935 94.4032563,0.914581066 C94.4032563,7.47279652 94.4032563,14.0087051 94.4032563,20.5446137 Z" id="Shape"></path>
                    <path d="M167.294276,17.4036509 C166.533718,17.9380302 165.741024,18.2497515 164.830497,18.2052199 C163.1487,18.1161567 162.013219,16.4350884 162.68808,14.6760898 C163.030867,13.7631918 163.855697,13.4848692 164.712664,13.4180718 C165.430374,13.3624073 166.148083,13.4069389 166.887217,13.4069389 C167.208579,12.371579 166.683687,11.57001 165.591055,11.6368074 C165.023314,11.6702061 164.455574,11.8928641 163.91997,12.1155222 C163.587895,12.249117 163.395078,12.1934525 163.20226,11.9262629 C162.805913,11.3807506 162.913034,10.87977 163.480774,10.6014474 C164.734088,9.97800491 166.051674,9.85554298 167.379973,10.2451946 C168.440469,10.5569158 169.040346,11.4141493 169.06177,12.5608383 C169.083194,13.7854576 169.072482,15.0100769 169.072482,16.2346961 C169.072482,16.5686832 169.104618,16.8581387 169.500966,16.9694677 C169.77948,17.047398 169.83304,17.4815812 169.629511,17.7265051 C169.093906,18.4056121 168.001274,18.3833463 167.487094,17.6819735 C167.433533,17.6040432 167.379973,17.5261128 167.294276,17.4036509 Z M166.940777,15.4887917 C166.940777,14.6315582 166.908641,14.6092924 166.073099,14.5981595 C165.848145,14.5981595 165.612479,14.5870266 165.398237,14.6315582 C164.894769,14.7317543 164.669816,14.9766782 164.648391,15.3997285 C164.605543,16.1678987 165.044738,16.6354806 165.826721,16.6354806 C166.597991,16.6466135 166.940777,16.3014936 166.940777,15.4887917 Z" id="Shape"></path>
                    <path d="M136.165049,29.5606035 C136.259332,28.9935941 136.29076,28.404349 136.447898,27.8595753 C136.866935,26.4031394 137.966906,25.5581842 139.485913,25.5137129 C139.967805,25.5025951 140.460173,25.5248307 140.921113,25.6248912 C142.377265,25.9584262 143.351525,27.1925054 143.414381,28.7823553 C143.435332,29.5050143 143.445808,30.2610268 143.320097,30.972568 C143.0582,32.3845326 142.230602,33.2628412 140.889685,33.5852583 C140.08304,33.7742615 139.276395,33.7520258 138.490701,33.5074335 C137.16026,33.0960738 136.311711,31.8619945 136.23838,30.2943803 C136.227904,30.0609059 136.23838,29.8274314 136.23838,29.5828391 C136.217428,29.5717213 136.196476,29.5717213 136.165049,29.5606035 Z M141.497288,29.5939569 C141.371577,29.0269476 141.298246,28.471056 141.120156,27.9596358 C140.921113,27.3926264 140.491601,27.1146806 139.894474,27.1035628 C139.276395,27.0924449 138.804979,27.3370372 138.574509,27.9374001 C138.155472,29.0491832 138.144996,30.183202 138.59546,31.2838673 C138.836406,31.8619945 139.297347,32.1065868 139.894474,32.0843511 C140.460173,32.0732333 140.910637,31.8175232 141.099204,31.2616316 C141.28777,30.7390936 141.371577,30.1609663 141.497288,29.5939569 Z" id="Shape"></path>
                    <path d="M175.444373,26.4380614 C175.507091,26.3826155 175.56981,26.3382587 175.622076,26.2939019 C176.510589,25.4511236 177.534993,25.3402317 178.622115,25.7172641 C179.479269,26.0166722 179.88694,26.7374695 179.928753,27.646783 C179.981018,28.9442182 179.960112,30.2527425 179.981018,31.5501777 C179.991471,31.9382993 179.88694,32.3707777 180.461861,32.4705804 C180.681376,32.503848 180.702282,32.9806831 180.535032,33.1913777 C180.043737,33.8234615 178.643021,33.9010858 178.09946,33.3022696 C177.994929,33.1802885 177.942664,32.9585048 177.942664,32.7810777 C177.932211,31.4614642 177.932211,30.1529398 177.932211,28.8333263 C177.932211,28.6448101 177.921758,28.4452047 177.890398,28.2566885 C177.79632,27.5691587 177.566352,27.2586614 177.106416,27.1588587 C176.521042,27.0368776 175.716153,27.3584641 175.486185,27.8352993 C175.413014,27.9794587 175.423467,28.1901533 175.423467,28.3564912 C175.423467,29.8757101 175.423467,31.4060182 175.423467,32.9252372 C175.423467,33.4464291 175.360748,33.5240534 174.858999,33.5462318 C174.461782,33.557321 174.054111,33.5351426 173.656893,33.4796967 C173.552362,33.4686075 173.395565,33.2468237 173.395565,33.1248426 C173.374659,30.7850236 173.385112,28.4452047 173.395565,26.1053857 C173.395565,25.9834046 173.531456,25.8059776 173.635987,25.7616209 C174.127282,25.5731046 174.629031,25.6174614 175.13078,25.7505317 C175.538451,25.8392452 175.308483,26.2051884 175.444373,26.4380614 Z" id="Shape"></path>
                    <path d="M53.7105017,11.4265027 C53.9643251,10.3087136 54.2291843,9.19092453 54.4830077,8.07313543 C54.6375089,7.38616087 55.3879433,7.06013905 55.9397333,7.46766633 C56.0500913,7.54917179 56.1163061,7.74711361 56.1494135,7.91012452 C56.4142727,9.07448817 56.6680961,10.2504955 57.0102059,11.4265027 C57.0543491,11.32171 57.0984923,11.2169173 57.1315997,11.1004809 C57.4295663,10.0176227 57.7385687,8.93476453 58.0254995,7.8402627 C58.1027501,7.56081542 58.2351797,7.38616087 58.4890031,7.3628736 C58.9304351,7.33958633 59.382903,7.35122997 59.9126214,7.35122997 C59.8464066,7.63067724 59.8132992,7.78204452 59.769156,7.93341179 C59.2063301,9.98269181 58.6435043,12.0203282 58.0917143,14.0696082 C58.0144637,14.3490555 57.8820341,14.4887791 57.6171749,14.52371 C57.5068169,14.5353537 57.3964589,14.558641 57.2861009,14.558641 C56.3811653,14.6285028 56.2597715,14.5469973 56.0390555,13.62715 C55.8404111,12.8004518 55.6528025,11.96211 55.4651939,11.1354118 C55.4320865,11.0189755 55.3879433,10.9025391 55.3106927,10.6696664 C55.0568693,11.7525246 54.8471891,12.7189464 54.5933657,13.6853682 C54.5271509,13.9648155 54.4057571,14.4072737 54.2512559,14.4305609 C53.7656807,14.5120664 53.2580338,14.4538482 52.750387,14.4189173 C52.6841722,14.4189173 52.6069216,14.2209755 52.5738142,14.1045391 C51.9999526,12.0203282 51.4371268,9.92447363 50.8632652,7.8402627 C50.7860146,7.53752815 50.8632652,7.37451724 51.1391602,7.3628736 C51.4923058,7.33958633 51.8564872,7.30465542 52.2096328,7.37451724 C52.3751698,7.40944815 52.5738142,7.63067724 52.6289932,7.80533179 C52.9490314,8.86490271 53.2249264,9.9477609 53.5118573,11.0189755 C53.5449647,11.1586991 53.5891079,11.2867791 53.6332511,11.4265027 C53.6553227,11.4265027 53.6884301,11.4265027 53.7105017,11.4265027 Z" id="Shape"></path>
                    <path d="M182.461165,14.7543605 C181.563957,14.7543605 180.755362,14.7543605 179.935691,14.7543605 C179.127096,14.7543605 178.307425,14.7543605 177.49883,14.7543605 C177.343757,15.5568319 177.964049,16.3927397 178.772644,16.5599212 C179.614469,16.7271028 180.389833,16.4819032 181.120892,16.1029583 C181.497497,15.9023405 181.674724,16.0249403 181.840873,16.3370125 C182.184249,16.9611569 182.051329,17.4181198 181.397808,17.7190466 C180.168301,18.2874639 178.894487,18.3654819 177.59852,17.9976825 C176.557316,17.6967557 175.848411,16.9834478 175.505035,15.9692131 C175.095199,14.7543605 175.095199,13.5060716 175.516112,12.2912191 C176.036714,10.7754397 177.454524,9.939532 179.237863,10.0286955 C181.087662,10.117859 182.128866,11.0986574 182.339322,12.9487998 C182.405782,13.5172171 182.416858,14.0967798 182.461165,14.7543605 Z M177.487754,13.539508 C178.152352,13.539508 178.805874,13.539508 179.448319,13.539508 C180.279067,13.539508 180.290144,13.539508 180.123994,12.7036002 C180.024304,12.2243465 179.813848,11.8119653 179.293246,11.6559292 C178.196659,11.343857 177.288374,12.2466373 177.487754,13.539508 Z" id="Shape"></path>
                    <path d="M145.228105,14.7844633 C143.561046,14.7844633 141.927551,14.7844633 140.305245,14.7844633 C140.148609,15.5624899 140.775155,16.4072046 141.591902,16.5739245 C142.442214,16.7517592 143.225396,16.4961219 143.963825,16.1182232 C144.344228,15.9292739 144.523241,16.0404206 144.691066,16.3516312 C145.015527,16.9407085 144.881267,17.4297538 144.277098,17.7076205 C143.024006,18.2855831 141.714973,18.3745004 140.394752,17.9854871 C139.298297,17.6631618 138.582244,16.9184792 138.246595,15.8292419 C137.899757,14.7511193 137.899757,13.6729967 138.201841,12.5948742 C138.626997,11.0721649 139.846524,10.1607623 141.446454,10.038501 C143.762435,9.871781 144.981962,10.9943623 145.205728,13.0061168 C145.272858,13.5840794 145.228105,14.1509274 145.228105,14.7844633 Z M141.625467,13.5618501 C141.983493,13.5618501 142.352707,13.5729648 142.710734,13.5507354 C142.822617,13.5396208 142.990442,13.4618181 143.024006,13.3729008 C143.225396,12.7393648 142.66598,11.8057329 142.00587,11.6501275 C141.032486,11.4167196 140.025537,12.3836955 140.249304,13.3506714 C140.27168,13.4395888 140.439505,13.5396208 140.5402,13.5396208 C140.898226,13.5840794 141.256252,13.5618501 141.625467,13.5618501 Z" id="Shape"></path>
                    <path d="M127.521784,30.2445098 C127.465484,31.2992853 128.186127,32.0542826 129.16575,32.0986942 C129.953954,32.1320029 130.663336,31.9099448 131.338939,31.5435491 C131.5754,31.4214172 131.688,31.4769317 131.834381,31.6434752 C132.363603,32.2430319 132.228483,32.8870001 131.50784,33.2089842 C130.314275,33.7419234 129.07567,33.8529524 127.803285,33.5309683 C126.395779,33.1645726 125.371115,31.9432536 125.292295,30.4332591 C125.258515,29.6893648 125.247255,28.9232646 125.416156,28.212679 C125.798997,26.5472439 127.127682,25.5701887 128.861729,25.5146742 C129.965214,25.4813655 131.001138,25.6701148 131.744301,26.5694497 C132.341083,27.2911383 132.498724,28.1571645 132.521244,29.0564994 C132.566284,30.2445098 132.555024,30.2334069 131.372719,30.2334069 C130.257975,30.2334069 129.15449,30.2334069 128.039746,30.2334069 C127.882105,30.2445098 127.713205,30.2445098 127.521784,30.2445098 Z M127.510524,28.9787791 C128.445108,28.9787791 129.345911,28.9787791 130.246715,28.9787791 C130.359315,27.8684891 129.875133,27.1468006 129.03063,27.1245948 C127.994706,27.102389 127.442964,27.768563 127.510524,28.9787791 Z" id="Shape"></path>
                    <path d="M168.415239,30.2770425 C168.348286,31.2642167 169.051296,32.0406458 169.999803,32.096105 C170.780926,32.1404724 171.495096,31.9297273 172.153471,31.5636965 C172.410125,31.4305943 172.544032,31.4749617 172.711416,31.6746149 C173.191248,32.2846663 173.079659,32.8725341 172.387808,33.1941976 C171.171487,33.7487898 169.899373,33.8708 168.60494,33.4936773 C167.377461,33.1387383 166.618656,32.2957582 166.306207,31.0867472 C166.049552,30.0552057 166.049552,29.0014805 166.37316,27.969939 C166.998059,25.9955907 168.772324,25.33008 170.568907,25.5519169 C172.298536,25.7737538 173.258202,26.9051219 173.336314,28.6465414 C173.358632,29.034756 173.347473,29.4229705 173.38095,29.8111851 C173.403268,30.1328486 173.28052,30.2548588 172.945753,30.243767 C171.606685,30.2326752 170.267617,30.2326752 168.928549,30.243767 C168.761165,30.243767 168.582623,30.2659507 168.415239,30.2770425 Z M171.14917,28.9903886 C171.126852,28.2583269 171.104534,27.5706326 170.379206,27.2267854 C169.888214,26.9938567 169.352587,27.0493159 168.928549,27.4153467 C168.459875,27.825745 168.325968,28.3803372 168.40408,28.9903886 C169.330269,28.9903886 170.211822,28.9903886 171.14917,28.9903886 Z" id="Shape"></path>
                    <path d="M112.077842,30.273597 C112.010264,31.2497485 112.719838,32.0484179 113.665938,32.0927884 C114.465618,32.1371589 115.197719,31.9263989 115.884767,31.5492495 C116.132555,31.4161379 116.267712,31.4826937 116.414132,31.6601758 C116.920972,32.2702705 116.797078,32.8803652 116.087503,33.2020514 C114.871089,33.7455903 113.59836,33.8676093 112.314367,33.5015525 C110.917744,33.1133104 109.937855,31.9042137 109.859013,30.4510791 C109.825224,29.763336 109.825224,29.0645003 109.949118,28.3878499 C110.275748,26.6573995 111.627319,25.5814144 113.41815,25.5148586 C114.206566,25.4926733 114.961194,25.5592291 115.648242,25.9807491 C116.560553,26.5353806 116.920972,27.422791 117.056129,28.4211277 C117.112444,28.8870182 117.078655,29.3640013 117.101181,29.8298918 C117.112444,30.1404855 116.999813,30.2403191 116.684447,30.2403191 C115.321613,30.2292265 113.958778,30.2403191 112.595944,30.2403191 C112.404472,30.2514118 112.235525,30.2625044 112.077842,30.273597 Z M114.8373,29.0090372 C114.826037,28.3323867 114.780984,27.7111994 114.206566,27.3007721 C113.812358,27.0234563 113.057731,27.0567342 112.663523,27.3673279 C112.134158,27.7888478 112.021527,28.354572 112.055316,28.9979445 C112.990153,29.0090372 113.879937,29.0090372 114.8373,29.0090372 Z" id="Shape"></path>
                    <path d="M125.271845,25.7720961 C124.845308,26.8711219 124.441221,27.9238729 124.037134,28.9766239 C123.475902,30.4227104 122.925895,31.8687969 122.353438,33.3148834 C122.297315,33.4652764 122.14017,33.6850816 122.005474,33.6850816 C121.444242,33.7197876 120.871785,33.7197876 120.310553,33.6850816 C120.187082,33.6735129 120.029937,33.4999825 119.973814,33.3611582 C119.030944,30.9433015 118.099299,28.5138762 117.156429,26.0960195 C117.055407,25.8415083 117.077857,25.6564092 117.369697,25.6448405 C117.90848,25.6217031 118.447263,25.5985658 118.986046,25.6332718 C119.131966,25.6448405 119.322785,25.8762144 119.390133,26.0497447 C120.007488,27.6462243 120.602394,29.2658412 121.208525,30.8623207 C121.219749,30.8391833 121.264648,30.7466338 121.298322,30.6540842 C121.859554,29.0923108 122.409561,27.5189686 122.993243,25.9571952 C123.049366,25.8068022 123.251409,25.6448405 123.408554,25.5985658 C124.014685,25.4481728 124.620815,25.4828788 125.271845,25.7720961 Z" id="Shape"></path>
                    <path d="M40.9485132,10.589863 C40.9485132,11.7087068 40.925022,12.8275507 40.9602588,13.9463945 C40.9720044,14.3892702 40.7840748,14.5174711 40.4082156,14.5291257 C40.39647,14.5291257 40.3847244,14.5291257 40.3612332,14.5291257 C39.1514366,14.6573266 39.0457262,14.5757442 39.0457262,13.4102819 C39.0457262,11.5571967 39.0574718,9.7157662 39.0339806,7.86268106 C39.0339806,7.47807848 39.1866734,7.32656838 39.5272957,7.31491375 C39.8209357,7.30325913 40.1263213,7.25664063 40.4082156,7.32656838 C40.6548732,7.38484149 40.9367676,7.54800622 41.0659692,7.74613482 C41.7589595,8.78339632 42.416713,9.85562168 43.0862122,10.9161924 C43.1801769,11.0560479 43.2741417,11.1959034 43.4738169,11.3241042 C43.4855625,11.1725941 43.5090537,11.0327387 43.5090537,10.8812286 C43.5090537,9.87893093 43.5325449,8.8766333 43.5090537,7.87433568 C43.4973081,7.46642386 43.6852377,7.32656838 44.0493513,7.31491375 C44.0728425,7.31491375 44.1080792,7.31491375 44.1315704,7.31491375 C45.3531127,7.24498601 45.3883495,7.27994988 45.3883495,8.4803761 C45.3883495,10.2868428 45.3883495,12.0933094 45.3883495,13.899776 C45.3883495,14.4941618 45.3883495,14.4941618 44.7775784,14.552435 C44.6483768,14.5640896 44.5191752,14.5640896 44.378228,14.5757442 C43.8614217,14.5990535 43.4855625,14.4242341 43.2036681,13.9347399 C42.6163882,12.9324423 41.9703803,11.9651085 41.3361179,10.9744655 C41.2421532,10.8346101 41.1481884,10.6947546 41.0542236,10.5548991 C41.0189868,10.5665537 40.98375,10.5782083 40.9485132,10.589863 Z" id="Shape"></path>
                    <path d="M185.00133,25.7318098 C185.430046,25.7318098 185.79107,25.7536487 186.12953,25.7208904 C186.456708,25.6990515 186.659783,25.808246 186.671065,26.1249099 C186.682347,26.3651377 186.682347,26.6053655 186.659783,26.8455933 C186.637219,27.0749016 186.501836,27.1731767 186.253632,27.1622572 C185.949018,27.1513378 185.633122,27.1731767 185.328508,27.1513378 C185.091586,27.1404183 185.00133,27.2386933 185.00133,27.4680017 C185.023894,28.7892546 185.012612,30.1105075 185.05774,31.4317605 C185.080304,32.1196855 185.644404,32.3380745 186.197222,31.9122161 C186.434144,31.7375049 186.569528,31.7921022 186.716193,31.9777327 C187.223883,32.5783023 187.032089,33.2989857 186.287478,33.528294 C185.587994,33.7466829 184.877228,33.7794413 184.166463,33.5719718 C183.309031,33.331744 182.812624,32.6547384 182.801342,31.6392299 C182.778778,30.317977 182.778778,28.9967241 182.801342,27.6754712 C182.801342,27.3151295 182.744932,27.1404183 182.304934,27.1404183 C182.045448,27.1404183 181.650578,26.9438683 181.582886,26.7582377 C181.49263,26.4852516 181.628014,26.1249099 181.740834,25.8191654 C181.763398,25.7536487 182.045448,25.7427293 182.203396,25.7427293 C182.801342,25.7318098 182.801342,25.7427293 182.801342,25.1639987 C182.801342,24.8145764 182.812624,24.4542347 182.79006,24.1048124 C182.778778,23.8645846 182.880316,23.7226318 183.105955,23.7117124 C183.624927,23.6898735 184.132617,23.678954 184.651589,23.7007929 C184.88851,23.7117124 185.00133,23.8645846 184.990048,24.1266513 C184.990048,24.6398653 185.00133,25.1530792 185.00133,25.7318098 Z" id="Shape"></path>
                    <path d="M174.625983,16.2557178 C175.091131,16.5618134 175.318033,17.1193445 175.136511,17.5784879 C175.091131,17.6987397 174.95499,17.8299235 174.818849,17.8845834 C173.854518,18.3218627 172.867496,18.3437267 171.91451,17.8955154 C171.267841,17.5894198 171.040939,16.9662968 171.018249,16.3213097 C170.972869,14.9329478 170.984214,13.5336539 170.984214,12.145292 C170.984214,11.7954685 170.893453,11.6424207 170.496376,11.6205568 C170.246784,11.6096248 169.861051,11.445645 169.792981,11.2707333 C169.690875,11.0083657 169.804326,10.6585422 169.883741,10.3633786 C169.906432,10.2977867 170.156023,10.2649908 170.292164,10.2649908 C170.972869,10.2431268 170.972869,10.2540588 170.972869,9.5872078 C170.972869,9.25924829 170.984214,8.93128878 170.972869,8.60332927 C170.972869,8.3846896 171.040939,8.22070985 171.290531,8.20977786 C171.823749,8.19884588 172.356968,8.1879139 172.890186,8.23164183 C172.992292,8.24257381 173.162468,8.4502815 173.173813,8.58146531 C173.207849,8.9859487 173.207849,9.40136408 173.185158,9.80584748 C173.162468,10.1775349 173.309954,10.2977867 173.672997,10.2649908 C173.922588,10.2431268 174.183525,10.2759228 174.433117,10.2540588 C174.728089,10.2431268 174.852885,10.3852426 174.875575,10.6366782 C174.88692,10.8553179 174.88692,11.0739576 174.875575,11.2925973 C174.852885,11.5331009 174.728089,11.6533527 174.455807,11.6533527 C174.160835,11.6424207 173.865863,11.6533527 173.559546,11.6533527 C173.298609,11.6424207 173.173813,11.7408086 173.173813,12.0141082 C173.185158,13.2275584 173.173813,14.4410085 173.185158,15.6544587 C173.185158,15.8075065 173.219194,15.9496223 173.253229,16.1026701 C173.38937,16.6383373 173.831828,16.802317 174.319666,16.4962215 C174.444462,16.4087656 174.535222,16.3322417 174.625983,16.2557178 Z" id="Shape"></path>
                    <path d="M161.919046,16.2569239 C162.396747,16.5626066 162.601476,17.0866342 162.430868,17.5779101 C162.385373,17.6870825 162.271635,17.8071721 162.157896,17.8617583 C161.179747,18.3311997 160.17885,18.3421169 159.212075,17.89451 C158.552392,17.5779101 158.33629,16.9337928 158.313542,16.2787584 C158.268047,14.9250205 158.268047,13.5821998 158.279421,12.2284619 C158.279421,11.8354413 158.222551,11.6280137 157.733477,11.6280137 C157.506,11.6280137 157.130664,11.4424206 157.073795,11.2677447 C156.994178,10.9948137 157.085168,10.645462 157.198907,10.3616137 C157.233028,10.2742758 157.551495,10.2524413 157.733477,10.2633586 C158.142935,10.2961103 158.302168,10.1541861 158.268047,9.76116547 C158.233925,9.36814479 158.233925,8.96420687 158.279421,8.5711862 C158.290794,8.4401793 158.461402,8.23275172 158.57514,8.22183448 C159.10971,8.18908276 159.64428,8.2 160.17885,8.21091724 C160.440448,8.21091724 160.497317,8.3855931 160.485943,8.60393792 C160.47457,9.04062756 160.485943,9.4773172 160.485943,9.91400684 C160.485943,10.1541861 160.576934,10.2633586 160.838532,10.2524413 C161.122878,10.2415241 161.407224,10.2633586 161.691569,10.2524413 C162.02141,10.2306068 162.16927,10.372531 162.192018,10.6672965 C162.203392,10.8310551 162.203392,10.9948137 162.203392,11.1585723 C162.192018,11.4970068 162.044158,11.6825999 161.646074,11.6498482 C161.361728,11.6280137 161.077383,11.6280137 160.793037,11.6607654 C160.679299,11.6716826 160.508691,11.824524 160.508691,11.911862 C160.508691,13.2328481 160.47457,14.5538343 160.554186,15.8748204 C160.599682,16.6936135 161.134252,16.8464549 161.793934,16.3442618 C161.839429,16.3115101 161.884925,16.2896756 161.919046,16.2569239 Z" id="Shape"></path>
                    <path d="M74.4368932,10.96679 C74.3533006,11.4967624 74.3219534,12.0497771 74.1756664,12.5682285 C73.8308471,13.7894693 72.8799817,14.5498645 71.7096858,14.5729068 C71.2081304,14.584428 70.6856769,14.584428 70.1945706,14.4692166 C69.1183164,14.2272726 68.470474,13.432314 68.2196963,12.2801999 C68.031613,11.4045933 68.0420621,10.5059444 68.2196963,9.63033774 C68.4913721,8.2362798 69.504932,7.33763087 70.8737602,7.29154631 C71.3544174,7.28002517 71.8455237,7.30306745 72.3052828,7.41827885 C73.517375,7.74087077 74.2383609,8.74320996 74.3533006,10.1372679 C74.3741988,10.4137753 74.3846479,10.6787615 74.3950969,10.9552688 C74.405546,10.9552688 74.4159951,10.9552688 74.4368932,10.96679 Z M72.775491,10.9091843 C72.6710003,10.4483387 72.5978568,9.92988738 72.4202226,9.46904178 C72.2112412,8.91602706 71.7828293,8.60495628 71.2185795,8.61647742 C70.6752278,8.62799856 70.2677141,8.9275482 70.0482836,9.46904178 C69.661668,10.4022541 69.6512189,11.3585087 69.9960383,12.3032422 C70.2154688,12.9138627 70.6334316,13.271018 71.2603758,13.2594969 C71.88732,13.2479757 72.2948338,12.8792992 72.4933661,12.2571577 C72.629204,11.8539178 72.6710003,11.4045933 72.775491,10.9091843 Z" id="Shape"></path>
                    <path d="M80.7912621,14.4145024 C80.4213791,14.4722974 80.1602852,14.5300925 79.8991913,14.5647695 C79.3117301,14.6225645 78.822179,14.5069745 78.5502062,13.824993 C78.332628,13.2701606 78.0171395,12.7500052 77.7016511,12.2529679 C77.592862,12.0795828 77.3752837,11.9986697 77.2121,11.8715206 C77.1577055,11.9061976 77.1033109,11.9408747 77.0597953,11.9639927 C77.0597953,12.403235 77.0597953,12.8424773 77.0597953,13.2817196 C77.0597953,13.3973097 77.0706742,13.5128998 77.0597953,13.6284898 C77.0162796,13.917465 77.0054007,14.4260614 76.9074905,14.4376204 C76.4396973,14.5185335 75.9501462,14.4838564 75.4714741,14.4491794 C75.4279584,14.4491794 75.3518061,14.2411173 75.3518061,14.1370862 C75.3409271,12.0680238 75.3409271,10.0105203 75.362685,7.94145787 C75.362685,7.81430878 75.5149897,7.60624663 75.6346578,7.5600106 C76.722549,7.22479937 77.832198,7.19012234 78.9200892,7.51377457 C79.7468866,7.75651374 80.2581954,8.33446414 80.3561056,9.24762578 C80.4431369,10.1376694 80.1711641,10.9005639 79.4531559,11.4322783 C79.3878825,11.4785143 79.322609,11.5247504 79.2138199,11.6056634 C79.7142498,12.5188251 80.2255587,13.4204277 80.7912621,14.4145024 Z M77.0597953,9.58283702 C77.0597953,9.68686809 77.0597953,9.77934015 77.0597953,9.88337123 C77.0597953,10.6000297 77.1903422,10.7156198 77.8430769,10.5422347 C78.332628,10.4150856 78.6372375,10.0105203 78.6154797,9.53660098 C78.582843,9.06268165 78.2564756,8.72747042 77.7669246,8.64655736 C77.2012211,8.5540853 77.0597953,8.68123439 77.0597953,9.28230281 C77.0597953,9.38633388 77.0597953,9.49036495 77.0597953,9.58283702 Z" id="Shape"></path>
                    <path d="M87.7732231,7.57076885 C87.0335611,8.62730051 86.2938991,9.67222194 85.5430301,10.7287536 C86.3835551,11.9362184 87.2016661,13.1204626 88.0533981,14.3395376 C87.3921851,14.5833526 86.7758001,14.6297936 86.1594151,14.4672502 C86.0137241,14.4324195 85.8792401,14.2930967 85.7783771,14.1537738 C85.1507851,13.2946162 84.5456071,12.4354586 83.9292221,11.5646907 C83.8283591,11.4253679 83.7274961,11.2976553 83.5705981,11.0770607 C83.5481841,11.2976553 83.5257701,11.4137576 83.5257701,11.52986 C83.5257701,12.3541869 83.5145631,13.1785138 83.5369771,14.014451 C83.5481841,14.3511479 83.4137001,14.4904707 83.1111111,14.5136912 C83.0999041,14.5136912 83.0886971,14.5136912 83.0662831,14.5136912 C81.8447201,14.6878448 81.7102361,14.5717424 81.7102361,13.3410572 C81.7102361,11.52986 81.7214431,9.71866289 81.6990291,7.90746576 C81.6990291,7.50110742 81.8559271,7.36178457 82.2033441,7.33856409 C82.2145511,7.33856409 82.2257581,7.33856409 82.2481721,7.33856409 C83.4473211,7.24568219 83.5257701,7.31534362 83.5257701,8.54602885 C83.5257701,9.20781242 83.5257701,9.88120622 83.5369771,10.5429898 C83.5369771,10.5662103 83.5593911,10.5894307 83.6154261,10.6707024 C83.9852571,10.1482417 84.3438811,9.63739122 84.7025051,9.13815099 C84.9714731,8.76662337 85.2292341,8.39509575 85.4982021,8.0119579 C86.0361381,7.24568219 86.9102841,7.07152862 87.7732231,7.57076885 Z" id="Shape"></path>
                    <path d="M133.452102,27.5487282 C133.452102,25.835584 133.462457,24.1224399 133.441748,22.4092957 C133.441748,22.0916266 133.534942,21.9101014 133.814524,21.8987561 C134.239076,21.8760654 134.663627,21.8533748 135.088178,21.8760654 C135.40918,21.8874108 135.523084,22.0802813 135.523084,22.4660224 C135.502374,25.5065696 135.512729,28.5584622 135.512729,31.5990094 C135.512729,31.9847505 135.502374,32.3364556 135.9787,32.4272182 C136.196153,32.4725995 136.227218,32.9717938 136.051184,33.1987003 C135.533439,33.8567292 134.145881,33.8907652 133.617781,33.2440816 C133.524587,33.1306283 133.483167,32.9150672 133.472812,32.7448873 C133.452102,31.0090525 133.452102,29.284563 133.452102,27.5487282 Z" id="Shape"></path>
                    <path d="M46.3517304,7.28888889 C47.4306399,7.28888889 48.4984266,7.28888889 49.5662133,7.28888889 C49.6885638,7.28888889 49.8109144,7.28888889 49.9443877,7.28888889 C50.5783861,7.28888889 50.6673683,7.37078597 50.6228772,8.0376622 C50.5895089,8.64604051 50.5227722,8.66943968 50.0111244,8.6577401 C49.4883538,8.64604051 48.9544605,8.6577401 48.4316899,8.64604051 C48.2092343,8.64604051 48.1202521,8.71623801 48.0980066,8.97362884 C48.0423927,10.0265913 48.0312699,10.0265913 49.0323199,10.0265913 C49.1435477,10.0265913 49.2547755,10.0031921 49.3660033,10.0265913 C49.5662133,10.0733896 49.9221422,10.0967888 49.9332649,10.1903855 C50.0000016,10.5296734 49.9666333,10.8923604 49.9221422,11.2550475 C49.9221422,11.3018458 49.7219322,11.3720433 49.6107044,11.3720433 C49.2214071,11.3837429 48.8321099,11.3954425 48.4428127,11.3720433 C48.1536204,11.3603438 48.0868838,11.5007388 48.0868838,11.7698292 C48.0980066,12.1208167 48.0980066,12.4718041 48.0868838,12.8227916 C48.075761,13.1269808 48.1869888,13.2439766 48.476181,13.2439766 C49.0879338,13.232277 49.6996866,13.2439766 50.3114394,13.2439766 C50.734105,13.2439766 50.8453327,13.3843716 50.83421,13.9225524 C50.83421,14.4256345 50.7229822,14.5777291 50.3225622,14.5777291 C49.1101794,14.5777291 47.9089193,14.5777291 46.6965365,14.5777291 C46.474081,14.5777291 46.2961165,14.5894287 46.2961165,14.2501408 C46.3072393,11.9804217 46.3072393,9.72240215 46.3072393,7.45268305 C46.3072393,7.4175843 46.3294848,7.39418514 46.3517304,7.28888889 Z" id="Shape"></path>
                    <path d="M135.712167,10.9447684 C136.358294,10.217023 137.052282,9.93274747 137.90182,10.0464577 C138.296676,10.1033128 138.691531,10.205652 138.82315,10.6150088 C138.954768,11.0357366 138.894941,11.4678354 138.571878,11.808966 C138.500086,11.8885632 138.296676,11.8771922 138.153092,11.8885632 C138.10523,11.8885632 138.045404,11.8317081 137.997543,11.808966 C136.824941,11.3086411 135.783959,11.9226763 135.771993,13.1393756 C135.748063,14.6176084 135.748063,16.0958412 135.771993,17.574074 C135.783959,18.0061728 135.62841,18.2222222 135.185693,18.2222222 C134.695115,18.2222222 134.204537,18.2108512 133.725924,18.1653671 C133.618236,18.1539961 133.450722,17.9379467 133.450722,17.8242365 C133.438756,15.4135799 133.438756,12.9915523 133.450722,10.5808957 C133.450722,10.4671855 133.618236,10.2511361 133.725924,10.2397651 C134.180606,10.1829099 134.647253,10.1487969 135.101936,10.1601679 C135.496791,10.1829099 135.855751,10.3079912 135.712167,10.9447684 Z" id="Shape"></path>
                    <path d="M61.7281553,7.51742382 C62.3016543,7.22668962 62.8636834,7.23831899 63.4142424,7.41275951 C63.5289422,7.44764761 63.643642,7.58720003 63.7009919,7.71512308 C64.0680313,8.43614392 64.4236006,9.15716475 64.79064,9.87818558 C64.81358,9.92470305 64.8594599,9.97122053 64.8709299,9.98284989 C65.2609092,9.26182906 65.6623585,8.54080823 66.0293978,7.8197874 C66.2243875,7.44764761 66.499667,7.29646583 66.8896463,7.31972456 C67.2681557,7.3429833 67.6351951,7.3778714 68.0825243,7.42438888 C68.0022344,7.61045877 67.9792945,7.70349372 67.9219446,7.78489929 C67.2910957,8.88968928 66.6487768,9.98284989 66.0408678,11.1108986 C65.8917581,11.3783741 65.8114682,11.7039964 65.7999982,12.00636 C65.7655883,12.6924927 65.7770583,13.3669961 65.7999982,14.0531288 C65.8114682,14.3787511 65.6738285,14.4950448 65.387079,14.5183035 C65.375609,14.5183035 65.364139,14.5183035 65.341199,14.5183035 C64.1024412,14.6811147 63.9189215,14.5764504 64.0106814,13.3437373 C64.1024412,12.0528774 63.8042217,10.9364581 63.081613,9.87818558 C62.5884038,9.12227664 62.1984245,8.31985023 61.7281553,7.51742382 Z" id="Shape"></path>
                    <path d="M129.811973,14.1432718 C129.811973,12.9291382 129.821277,11.726679 129.811973,10.5125454 C129.811973,10.209012 129.886403,10.0222222 130.128302,10.0222222 C130.537669,10.0222222 130.95634,10.0222222 131.365707,10.0455709 C131.570391,10.0572453 131.626214,10.2323607 131.626214,10.465848 C131.626214,12.9174639 131.626214,15.3574054 131.61691,17.8090213 C131.61691,17.9491136 131.477353,18.1942752 131.384315,18.1942752 C130.937733,18.2292983 130.49115,18.2292983 130.044568,18.2059496 C129.839884,18.1942752 129.802669,17.9958111 129.811973,17.7623239 C129.821277,16.5598646 129.811973,15.345731 129.811973,14.1432718 Z" id="Shape"></path>
                    <path d="M69.8398875,24.3338757 C69.8398875,25.1786298 69.8182081,26.0122687 69.8507272,26.8570228 C69.8615669,27.2238239 69.7098109,27.3127454 69.395459,27.3127454 C69.1136264,27.3127454 68.9835497,27.2127087 68.9943895,26.9014835 C69.0052292,25.7121587 68.9943895,24.5117187 69.0052292,23.3223938 C69.0052292,23.1334357 68.9076717,22.8777864 69.2111838,22.8110953 C69.5038562,22.7444042 69.7640095,22.7555194 69.9591244,23.0556294 C70.4577514,23.8670379 70.9672182,24.6673313 71.476685,25.4676246 C71.552563,25.5898917 71.6392807,25.7010435 71.8127162,25.7788498 C71.8127162,25.5009702 71.8127162,25.2119753 71.8127162,24.9340957 C71.8127162,24.3561061 71.823556,23.7670012 71.8127162,23.1890116 C71.8018765,22.8666712 71.9644723,22.7777497 72.2354652,22.7888649 C72.4847788,22.7999801 72.6256951,22.8777864 72.6148554,23.1890116 C72.6040157,24.3783364 72.6148554,25.5787765 72.6040157,26.7681013 C72.6040157,26.9681746 72.7124129,27.2571695 72.3872213,27.3127454 C72.0945489,27.3683213 71.8343957,27.3238606 71.6501205,27.0237506 C71.1948523,26.267918 70.707065,25.5343157 70.2301173,24.7895983 C70.1325599,24.6339857 70.0350024,24.4894883 69.937445,24.3449909 C69.9049258,24.3227605 69.8724066,24.3227605 69.8398875,24.3338757 Z" id="Shape"></path>
                    <path d="M56.2815534,25.0752675 C56.1983954,25.45645 56.1508766,25.8488438 56.0320794,26.2188151 C55.8776431,26.7008989 55.5450112,27.104504 55.0341835,27.2054053 C54.4401978,27.3175178 53.7868136,27.3847853 53.2047076,27.283884 C51.9810972,27.059659 51.6722246,25.9609563 51.7553826,24.7837749 C51.779142,24.4586486 51.8741797,24.1223111 51.9929769,23.808396 C52.194932,23.3038897 52.5988423,22.9563409 53.1571888,22.8666509 C53.6323773,22.7881721 54.1313253,22.7433271 54.6065138,22.8105946 C55.5687706,22.9451297 56.1627563,23.673861 56.2221548,24.6492399 C56.2340345,24.7837749 56.2221548,24.9295212 56.2221548,25.0640562 C56.2340345,25.0640562 56.257794,25.0752675 56.2815534,25.0752675 Z M52.5869625,25.052845 C52.6820002,25.411605 52.7295191,25.7591538 52.8601959,26.0842801 C53.0621511,26.5551527 53.4898208,26.790589 54.0125281,26.7793777 C54.5233558,26.7681665 54.9153864,26.5327302 55.1173415,26.0730689 C55.426214,25.3779713 55.4143343,24.6828737 55.0935821,24.0101986 C54.8916269,23.5729597 54.4877167,23.3487347 54.0006484,23.3487347 C53.4898208,23.3375235 53.0740308,23.5617485 52.8720757,24.0214098 C52.7413988,24.3465361 52.6820002,24.7052962 52.5869625,25.052845 Z" id="Shape"></path>
                    <path d="M59.0054528,19.5974892 C59.0417587,19.311289 59.0417587,19.0140811 59.1143705,18.7388886 C59.4290216,17.627111 60.2761591,17.186803 61.7768026,17.3409108 C62.8417754,17.4509878 63.5436893,18.1554805 63.5436893,19.201212 C63.5436893,19.7185739 63.4952815,20.2359358 63.3621599,20.74229 C63.2290383,21.2706596 62.7812656,21.6118983 62.2003713,21.7439907 C60.5908101,22.1182525 58.969147,21.6999599 59.0054528,19.5974892 Z M59.8525903,19.5424507 C59.949406,19.9167125 59.9857119,20.2249281 60.1067316,20.522136 C60.288261,20.9844594 60.6755239,21.2486442 61.2322142,21.2706596 C61.7889045,21.292675 62.2003713,21.0835287 62.4303086,20.6212053 C62.7812656,19.9167125 62.7691636,19.2122197 62.4061047,18.5187346 C62.1882694,18.1114497 61.8010065,17.9133111 61.316928,17.9023034 C60.8328494,17.9023034 60.4213826,18.0894343 60.2156492,18.4967192 C60.0462217,18.8379579 59.961508,19.2122197 59.8525903,19.5424507 Z" id="Shape"></path>
                    <path d="M43.5728155,25.1820574 C43.5363897,25.371788 43.5242478,25.695446 43.4392543,26.0079434 C43.1964157,26.8338294 42.5528935,27.2914148 41.6301068,27.3248967 C41.265849,27.3360573 40.9015911,27.3472179 40.5494751,27.2802542 C39.6995401,27.1128449 39.189579,26.5882957 39.0803017,25.8182128 C38.9953082,25.2378605 39.0317339,24.6240263 39.1531532,24.043674 C39.2867145,23.3851974 39.7966755,22.9164513 40.5373332,22.8271663 C41.0958619,22.7602026 41.6908165,22.749042 42.2372033,22.8718088 C43.0385706,23.0615394 43.4028285,23.6642129 43.5242478,24.3896533 C43.5606736,24.6128657 43.5606736,24.8360782 43.5728155,25.1820574 Z M42.7228805,25.04813 C42.637887,24.7244719 42.5893193,24.3896533 42.4679,24.0771559 C42.285771,23.5972492 41.8729454,23.3405549 41.3265586,23.3182337 C40.7801718,23.307073 40.3552042,23.5414461 40.1366495,24.0101922 C39.8088174,24.6798295 39.8088174,25.3606274 40.1245076,26.0302646 C40.3430623,26.4990107 40.7558879,26.7445444 41.3022747,26.7445444 C41.8608035,26.7445444 42.2979129,26.4878501 42.4800419,25.9856221 C42.5893193,25.695446 42.637887,25.371788 42.7228805,25.04813 Z" id="Shape"></path>
                    <path d="M58.7103614,25.4536847 C59.1232588,26.0483279 59.5240121,26.609312 59.9126214,27.1702961 C59.3539955,27.4507882 59.0382505,27.3722504 58.7225054,26.9122434 C58.4674806,26.5419939 58.2367438,26.1605247 57.9452869,25.8239342 C57.8238465,25.689298 57.5809657,25.6444193 57.386661,25.5546619 C57.3137968,25.7005177 57.2045004,25.8463736 57.1923564,26.0034491 C57.1559243,26.3176002 57.1802124,26.642971 57.1802124,26.9683418 C57.1802124,27.2937126 56.9616196,27.316152 56.6944508,27.316152 C56.4151378,27.316152 56.2815534,27.2376142 56.2815534,26.9571221 C56.2936974,25.7005177 56.2815534,24.4326936 56.2936974,23.1760892 C56.2936974,23.0526727 56.463714,22.8507184 56.5730104,22.8394988 C57.2166445,22.79462 57.8724226,22.7385216 58.5039127,22.8170594 C59.2446992,22.9068168 59.6333084,23.3219451 59.6940286,23.9053686 C59.7547488,24.5224511 59.5361561,25.0385565 58.904666,25.3414879 C58.8560899,25.3527076 58.8075137,25.3863666 58.7103614,25.4536847 Z M57.665974,24.9263597 C58.5160568,24.9263597 58.904666,24.5336708 58.7467935,23.9053686 C58.6374972,23.4902403 58.1638796,23.2658467 57.5931097,23.3219451 C57.058772,23.3668238 57.2287885,23.7258537 57.1923564,24.0063457 C57.1802124,24.1409819 57.2045004,24.2868378 57.1923564,24.421474 C57.1437802,24.7917235 57.2409326,25.0385565 57.665974,24.9263597 Z" id="Shape"></path>
                    <path d="M50.8349515,21.7755013 C50.1243258,21.9437572 50.0097087,21.910106 49.7919364,21.3043848 C49.6543959,20.9230047 49.4366235,20.7323147 49.0125405,20.799617 C48.875,20.8220511 48.7259978,20.8220511 48.5884574,20.799617 C47.9122168,20.7210976 47.3849784,20.799617 47.1901294,21.5960283 C47.0869741,22.0334937 46.6514293,21.8091525 46.2961165,21.8091525 C46.3419633,21.6633307 46.3648867,21.539943 46.4107335,21.4389895 C46.937972,20.2051128 47.4652104,18.9712361 47.9809871,17.7261424 C48.0956041,17.4457158 48.256068,17.3111111 48.5769957,17.3111111 C48.8979234,17.3111111 49.0240022,17.46815 49.1386192,17.7261424 C49.6658576,18.9824532 50.2045577,20.2275469 50.7317961,21.4726407 C50.7661812,21.5623772 50.7891046,21.6521136 50.8349515,21.7755013 Z M49.2876214,20.1490275 C49.0354639,19.5657403 48.8176915,19.0497555 48.5540723,18.4328172 C48.2904531,19.0721897 48.0726807,19.5881745 47.8319849,20.1490275 C48.3248382,20.1490275 48.7718447,20.1490275 49.2876214,20.1490275 Z" id="Shape"></path>
                    <path d="M64.451932,24.4492694 C64.451932,24.0146815 64.463272,23.5800937 64.451932,23.1566492 C64.4405921,22.8334942 64.6333713,22.7889211 64.8828504,22.7777778 C65.1436695,22.7777778 65.3137688,22.8446374 65.3137688,23.1566492 C65.3137688,24.0481114 65.3137688,24.9395736 65.3591287,25.8310357 C65.3931485,26.4327727 65.7220073,26.7559277 66.2323054,26.767071 C66.7199236,26.7782143 67.0941422,26.4996324 67.1395021,25.9090387 C67.2075418,25.0064332 67.1848619,24.1038278 67.1848619,23.2012223 C67.1848619,22.8892106 67.3209414,22.7777778 67.6044403,22.7777778 C67.9106192,22.7777778 68.1033985,22.8557807 68.0807186,23.2235089 C68.0353588,24.1261143 68.0466987,25.0287198 67.9899989,25.9313252 C67.9332991,26.8227874 67.423001,27.2796618 66.5158044,27.3242349 C66.2209655,27.3353782 65.9147866,27.3465214 65.6312877,27.2908051 C64.9168703,27.1459424 64.5086318,26.5999219 64.4746119,25.7418895 C64.451932,25.3073017 64.4746119,24.8838572 64.4746119,24.4492694 C64.463272,24.4492694 64.463272,24.4492694 64.451932,24.4492694 Z" id="Shape"></path>
                    <path d="M40.7210213,21.8666667 C40.2507053,21.7457561 39.7683299,21.6358375 39.3100733,21.5039351 C39.0085887,21.4160002 38.9844699,21.185171 39.0930044,20.9653337 C39.2135982,20.7125208 39.4065484,20.8883906 39.5874392,20.9323581 C40.0939333,21.0312849 40.6004275,21.1302117 41.118981,21.1631873 C41.4566438,21.185171 41.7219503,20.9653337 41.7701878,20.6355777 C41.8184254,20.3168136 41.5531189,20.1629275 41.2757531,20.0749926 C40.865734,19.9320983 40.4436555,19.8331716 40.0336364,19.7012692 C39.2980139,19.4594481 38.9965293,19.0197735 39.0688856,18.3492697 C39.1291825,17.7996765 39.6236173,17.34901 40.335121,17.3160344 C40.865734,17.2940506 41.4084063,17.34901 41.9390192,17.4149612 C42.2043257,17.4479368 42.3610977,17.6238066 42.2525632,17.8986032 C42.1440288,18.1514161 41.9510786,18.0524894 41.7340097,18.0195138 C41.33605,17.9535626 40.9019121,17.8876114 40.5039524,17.9425707 C40.2989429,17.9645544 40.0336364,18.2283592 39.9853989,18.4152209 C39.9612801,18.5471233 40.2265866,18.7999362 40.4195367,18.898863 C40.7692589,19.0747328 41.179278,19.1626678 41.5531189,19.2945702 C42.4816915,19.5913505 42.7590574,19.9760658 42.6384635,20.7564883 C42.5540479,21.3280653 41.9149005,21.7677399 41.1069217,21.8007155 C40.9863278,21.8007155 40.865734,21.8007155 40.7451401,21.8007155 C40.7330807,21.8117073 40.7210213,21.8336911 40.7210213,21.8666667 Z" id="Shape"></path>
                    <path d="M45.2462081,25.6091974 C45.2462081,26.0824896 45.2365166,26.5219753 45.2462081,26.9727297 C45.2558995,27.3107956 45.0717617,27.3333333 44.868241,27.3333333 C44.6647203,27.3333333 44.4805825,27.3220645 44.4805825,26.9839986 C44.490274,25.721886 44.4805825,24.4485046 44.490274,23.1863921 C44.490274,23.0624346 44.6259545,22.8483262 44.7034862,22.8370573 C45.2365166,22.8032507 45.78893,22.7356376 46.3122689,22.8145196 C46.9228311,22.9159394 47.2038835,23.4005004 47.2038835,24.087901 C47.2038835,24.7978393 46.8743738,25.316207 46.292886,25.4627022 C45.9730678,25.5528531 45.6338666,25.564122 45.2462081,25.6091974 Z M45.2462081,24.9330657 C45.4594202,24.9330657 45.6144836,24.9330657 45.769547,24.9330657 C46.0990568,24.9330657 46.3413433,24.7753016 46.4479494,24.414698 C46.544864,24.0766322 46.5157897,23.7272974 46.2541202,23.4906513 C45.9827592,23.2540052 45.6726324,23.2427364 45.3625056,23.3666938 C45.3140483,23.3892316 45.265591,23.5244579 45.265591,23.60334 C45.2365166,24.0315567 45.2462081,24.4485046 45.2462081,24.9330657 Z" id="Shape"></path>
                    <path d="M48.8481382,25.6017815 C48.8481382,26.0290475 48.8384476,26.4563136 48.8481382,26.8948234 C48.8578289,27.2321387 48.7221601,27.3333333 48.4508225,27.3333333 C48.1697943,27.3333333 48.1116505,27.1759195 48.1116505,26.8835796 C48.1213411,25.6804884 48.1213411,24.4773971 48.1116505,23.2630621 C48.1116505,22.9707221 48.1891755,22.8020645 48.4508225,22.8020645 C48.9547352,22.8020645 49.4683385,22.7346014 49.9528699,22.8245522 C50.5536888,22.9369906 50.8444077,23.4429635 50.834717,24.1063503 C50.8250264,24.7584932 50.4761638,25.3094415 49.9334886,25.4556115 C49.6136979,25.5455622 49.2551446,25.5568061 48.8481382,25.6017815 Z M48.8675195,24.915907 C49.1291665,24.915907 49.3326697,24.9383947 49.5264822,24.9046632 C49.8172011,24.8596878 50.0207043,24.6685425 50.078848,24.3312272 C50.1369918,23.982668 50.1176105,23.6003774 49.8075104,23.4542074 C49.5458635,23.341769 49.2357634,23.3867443 48.9450445,23.3755005 C48.9256633,23.3755005 48.8772101,23.4879389 48.8772101,23.5441581 C48.8578289,24.0051557 48.8675195,24.4436656 48.8675195,24.915907 Z" id="Shape"></path>
                    <path d="M54.4660194,17.3111111 C55.3379063,17.3111111 56.1344449,17.3111111 56.9417476,17.3111111 C57.1032081,17.8543823 57.060152,17.9222912 56.5650063,17.9222912 C56.2205572,17.9222912 55.865344,17.8996549 55.5208949,17.9336094 C55.4240186,17.9449275 55.3379063,18.1033816 55.251794,18.1939268 C55.24103,18.205245 55.251794,18.2165631 55.251794,18.2391994 C55.1872098,19.1559696 55.1872098,19.1559696 56.0590967,19.1559696 C56.1882651,19.1559696 56.3389616,19.1220152 56.457366,19.1672878 C56.5542423,19.2012422 56.6834107,19.33706 56.6834107,19.4162871 C56.6726467,19.5294686 56.5542423,19.6992409 56.46813,19.7218772 C56.2205572,19.7671498 55.9622203,19.7558316 55.7038835,19.7331953 C55.3486703,19.6992409 55.2195019,19.8690131 55.251794,20.2311939 C55.2733221,20.4236025 55.2733221,20.6273292 55.251794,20.8197378 C55.2195019,21.1592823 55.3271423,21.3064182 55.6823554,21.2837819 C56.0806247,21.2611456 56.4896581,21.2611456 56.8879274,21.2951001 C56.9955678,21.3064182 57.08168,21.4761905 57.1893204,21.5667357 C57.0924441,21.668599 56.9955678,21.8496894 56.8986914,21.8496894 C56.1882651,21.8723257 55.4778388,21.8723257 54.7566484,21.8496894 C54.6597721,21.8496894 54.4983115,21.6799172 54.4983115,21.589372 C54.4660194,20.1859213 54.4660194,18.7711525 54.4660194,17.3111111 Z" id="Shape"></path>
                    <path d="M64.4514563,17.3139284 C65.3100971,17.3139284 66.1122483,17.3026592 66.9143996,17.3251976 C67.0047828,17.3251976 67.1855493,17.5280423 67.1742514,17.6069264 C67.1516556,17.7308871 67.0047828,17.9111936 66.9031017,17.9224627 C66.4059939,17.9562702 65.8975882,17.9337319 65.4117782,17.9337319 C65.3778845,18.0013468 65.3552887,18.0238851 65.3552887,18.0576926 C65.2762034,19.1395314 65.2875013,19.1395314 66.394696,19.1620697 C66.5867604,19.1620697 66.8014205,19.1169931 66.8127185,19.4325294 C66.8127185,19.7480657 66.6206541,19.7480657 66.394696,19.7480657 C66.0557588,19.7480657 65.7281196,19.7480657 65.3439908,19.7480657 C65.3439908,20.3678692 65.321395,20.9087886 65.3552887,21.4609771 C65.3778845,21.8441284 65.1745222,21.8666667 64.8920746,21.8666667 C64.6209249,21.8666667 64.4514563,21.8103209 64.4627542,21.4722463 C64.4627542,20.1086786 64.4514563,18.745111 64.4514563,17.3139284 Z" id="Shape"></path>
                    <path d="M78.9757282,22.915258 C79.5036876,22.669188 79.7191812,22.747483 79.9777736,23.217253 C80.2471407,23.709393 80.5057331,24.2015331 80.7858748,24.7160431 C81.0660165,24.2015331 81.3353836,23.709393 81.6047507,23.217253 C81.863343,22.747483 82.0572873,22.680373 82.6067961,22.892888 C82.3589784,23.340288 82.1542595,23.8100581 81.863343,24.2127181 C81.3138342,25.0068532 81.0552419,25.8569132 81.184538,26.8300083 C81.2276368,27.1320033 81.152214,27.3333333 80.7858748,27.3333333 C80.4087609,27.3333333 80.3548875,27.1096333 80.3979862,26.8188233 C80.5380571,25.8009882 80.2255913,24.9397431 79.6653078,24.1232381 C79.4067155,23.7653181 79.2127712,23.351473 78.9757282,22.915258 Z" id="Shape"></path>
                    <path d="M44.0352629,21.7878135 C44.0352629,21.1241818 44.0352629,20.494294 44.0352629,19.8644062 C44.0352629,19.2457664 44.0352629,18.6271266 44.0352629,17.9409989 C43.6927093,17.9409989 43.3729926,17.9297509 43.0532759,17.9409989 C42.8134884,17.9522469 42.6650485,17.8847589 42.6650485,17.614807 C42.6650485,17.3785991 42.80207,17.3111111 43.0190206,17.3111111 C44.0010075,17.3223591 44.9829944,17.3223591 45.9649814,17.3111111 C46.1933504,17.3111111 46.2961165,17.3898471 46.2961165,17.626055 C46.2961165,17.8622629 46.181932,17.9409989 45.9535629,17.9409989 C45.6338462,17.9297509 45.3027111,17.9409989 44.9259022,17.9409989 C44.9259022,18.4584067 44.9259022,18.9308225 44.9259022,19.4032384 C44.9259022,20.0331261 44.9259022,20.6630139 44.9259022,21.2929017 C44.9259022,21.8553015 44.8573915,21.9115415 44.2864688,21.8440535 C44.2179581,21.8440535 44.1494474,21.8215575 44.0352629,21.7878135 Z" id="Shape"></path>
                    <path d="M62.1997625,23.3815196 C62.1882113,23.6382758 62.1651088,23.8615422 62.1651088,24.0848085 C62.1651088,24.989037 62.1535576,25.8932656 62.1651088,26.7974942 C62.1651088,27.110067 62.1420064,27.3333333 61.7146113,27.3333333 C61.3103187,27.3333333 61.2872163,27.110067 61.2987675,26.8198208 C61.3103187,25.8151224 61.2872163,24.810424 61.3103187,23.8168889 C61.3103187,23.4931527 61.2063578,23.359193 60.8598212,23.3926829 C60.6634505,23.4150095 60.4555286,23.3815196 60.2591579,23.3926829 C60.0281335,23.4038462 59.9126214,23.325703 59.9126214,23.0912734 C59.9126214,22.8568437 60.0050311,22.7675372 60.2476067,22.7787005 C61.2410114,22.7898639 62.2344161,22.7898639 63.2278209,22.7787005 C63.4819477,22.7787005 63.5859086,22.901497 63.5281525,23.1024367 C63.4934989,23.2140698 63.343333,23.3703563 63.2278209,23.3815196 C62.9043868,23.4150095 62.5694015,23.3815196 62.1997625,23.3815196 Z" id="Shape"></path>
                    <path d="M76.7410002,25.3482932 C76.7410002,24.8241534 76.7294853,24.2888617 76.7410002,23.7647219 C76.752515,23.497076 76.6373665,23.3855569 76.36101,23.4078607 C76.130713,23.4190126 75.9004159,23.3967088 75.6701189,23.4078607 C75.4167921,23.4190126 75.3016436,23.2963416 75.3592178,23.0844553 C75.3937624,22.9729362 75.5549703,22.8056576 75.658604,22.7945056 C76.6603962,22.7722018 77.6737032,22.7722018 78.6754954,22.7945056 C78.7791291,22.7945056 78.9288222,22.9729362 78.9633668,23.0844553 C79.0094262,23.2628859 78.9288222,23.4190126 78.6870103,23.3967088 C78.629436,23.3967088 78.5718618,23.3967088 78.5142875,23.3967088 C77.5700696,23.4078607 77.5700696,23.4078607 77.5700696,24.3000136 C77.5700696,25.1587107 77.5585547,26.0285598 77.5700696,26.8872569 C77.5700696,27.2106623 77.4664359,27.3333333 77.1209903,27.3333333 C76.7755447,27.3333333 76.7179705,27.1660547 76.7179705,26.8872569 C76.752515,26.374269 76.7410002,25.8612811 76.7410002,25.3482932 Z" id="Shape"></path>
                    <path d="M52.1698202,17.9312029 C52.1584396,18.1566908 52.1356785,18.3370811 52.1356785,18.5174714 C52.1356785,19.4870694 52.1242979,20.4566674 52.1356785,21.4262654 C52.1356785,21.7532229 52.0104919,21.8772412 51.6918354,21.8659668 C51.3845594,21.8546924 51.2821341,21.7532229 51.2821341,21.4375398 C51.3048953,20.4115698 51.2821341,19.3855999 51.2935147,18.3596299 C51.2935147,18.0439468 51.2252311,17.8861053 50.8724328,17.9312029 C50.6789627,17.9537516 50.4741121,17.9312029 50.280642,17.9424773 C50.0644108,17.9537516 49.9392242,17.8973797 49.9278437,17.6380686 C49.9164631,17.3674831 50.0530302,17.3111111 50.2920226,17.3111111 C51.2593729,17.3223855 52.2267232,17.3223855 53.1940735,17.3111111 C53.4103047,17.3111111 53.5582524,17.3449343 53.5582524,17.6042454 C53.5582524,17.8635565 53.4330659,17.9537516 53.1826929,17.9424773 C52.8526557,17.9199285 52.5226186,17.9312029 52.1698202,17.9312029 Z" id="Shape"></path>
                    <path d="M132.504759,8.1985777 C132.504759,9.05586941 132.43954,9.12098018 131.382995,9.11012838 C130.978639,9.11012838 130.574282,9.05586941 130.182969,9.02331403 C129.90905,9.00161044 129.8047,8.86053712 129.830787,8.63264945 C129.843831,8.41561358 129.869919,8.1985777 129.830787,7.98154182 C129.726437,7.50406289 130.039487,7.33043419 130.509063,7.29787881 C130.991682,7.27617522 131.474302,7.29787881 131.956921,7.3195824 C132.387365,7.34128598 132.596066,7.53661827 132.517803,7.90557927 C132.478672,8.0140972 132.504759,8.11176335 132.504759,8.1985777 Z" id="Shape"></path>
                    <path d="M73.5410924,25.0220588 C73.5410924,24.4079521 73.5640616,23.7938453 73.5296077,23.1797386 C73.5181231,22.8336057 73.7133618,22.7777778 73.9775082,22.7777778 C74.2416546,22.7777778 74.4368932,22.8224401 74.4368932,23.168573 C74.4254086,24.4191176 74.4254086,25.6808279 74.4368932,26.9313725 C74.4368932,27.2663399 74.2761084,27.3333333 73.9889928,27.3333333 C73.7133618,27.3333333 73.5181231,27.288671 73.5296077,26.9425381 C73.552577,26.3061002 73.5410924,25.6584967 73.5410924,25.0220588 Z" id="Shape"></path>
                    <path d="M82.7364771,26.4222222 C82.8307906,26.5978581 82.925104,26.773494 83.0665742,27.0149933 C83.2080444,26.7844712 83.3259362,26.6088353 83.4320388,26.4222222 C83.4556172,26.4222222 83.4909847,26.4331995 83.5145631,26.4331995 C83.5145631,26.7186078 83.5145631,27.0040161 83.5145631,27.2894244 C83.5027739,27.2894244 83.4909847,27.3004016 83.4909847,27.3004016 C83.4674064,27.135743 83.443828,26.9820616 83.4084605,26.729585 C83.2787795,26.9710843 83.184466,27.1247657 83.0783634,27.3333333 C82.9722607,27.1467202 82.8779473,26.9710843 82.7364771,26.7186078 C82.7011096,26.9710843 82.6893204,27.135743 82.665742,27.2894244 C82.6421637,27.2894244 82.6303745,27.2894244 82.6067961,27.2894244 C82.6067961,27.0040161 82.6067961,26.7186078 82.6067961,26.4222222 C82.6539528,26.4331995 82.7011096,26.4222222 82.7364771,26.4222222 Z" id="Shape"></path>
                    <path d="M81.911787,27.3333333 C81.8550516,27.1164021 81.7841323,26.7837743 81.6990291,26.4222222 C81.7983161,26.4222222 82.0394417,26.4222222 82.1529126,26.4222222 C82.0819933,26.7259259 81.9827063,27.0730159 81.911787,27.3333333 Z" id="Shape"></path>
                </g>
            </g>
        </g>
    </g>
</svg>