<?xml version="1.0" encoding="UTF-8"?>
<svg width="137px" height="18px" viewBox="0 0 137 18" version="1.1" xmlns="http://www.w3.org/2000/svg" xmlns:xlink="http://www.w3.org/1999/xlink">
    <!-- Generator: Sketch 51.3 (57544) - http://www.bohemiancoding.com/sketch -->
    <title>techcrunch</title>
    <desc>Created with Sketch.</desc>
    <defs></defs>
    <g id="Page-1" stroke="none" stroke-width="1" fill="none" fill-rule="evenodd">
        <g id="hi-fi-v6" transform="translate(-802.000000, -1011.000000)" fill="#A8D5D4" fill-rule="nonzero">
            <g id="Press-Bar-5-up-2" transform="translate(62.000000, 970.000000)">
                <g id="techcrunch" transform="translate(740.000000, 41.000000)">
                    <polygon id="Shape" points="9.36 4.8 9.36 17.52 4.68 17.52 4.68 4.8 0 4.8 0 0.72 14.04 0.72 14.04 4.8"></polygon>
                    <path d="M24.96,12.48 L17.52,12.48 C17.64,13.92 18.48,14.52 19.68,14.52 C20.76,14.52 21.72,14.28 22.92,13.68 L24.6,16.44 C23.04,17.4 21.48,17.88 19.44,17.88 C15.6,17.88 13.56,15.24 13.56,11.28 C13.56,6.96 15.96,4.68 19.32,4.68 C22.8,4.68 24.96,6.96 24.96,11.64 C24.96,12 24.96,12.24 24.96,12.48 Z M19.2,7.8 C18.24,7.8 17.64,8.52 17.52,9.72 L21.12,9.72 C20.88,8.52 20.52,7.8 19.2,7.8 Z" id="Shape"></path>
                    <path d="M33,17.76 C29.28,17.76 27.12,15.36 27.12,11.16 C27.12,7.32 29.04,4.68 33.12,4.68 C35.52,4.68 36.84,5.76 37.92,7.56 L34.92,9.84 C34.32,8.76 33.96,8.16 33,8.16 C31.92,8.16 31.32,9.24 31.32,11.28 C31.32,13.32 31.92,14.28 33.12,14.28 C33.96,14.28 34.56,13.8 35.28,12.6 L38.04,14.76 C36.6,16.92 35.16,17.76 33,17.76 Z" id="Shape"></path>
                    <path d="M47.76,17.52 L47.76,10.32 C47.76,8.64 47.16,8.28 46.32,8.28 C45.36,8.28 44.88,8.76 44.88,10.32 L44.88,17.52 L40.56,17.52 L40.56,1.68 L44.76,0 L44.76,5.76 C45.6,5.16 46.44,4.68 48,4.68 C50.76,4.68 52.08,6.48 52.08,9.84 L52.08,17.52 L47.76,17.52 Z" id="Shape"></path>
                    <path d="M62.4,17.76 C57.36,17.76 54.72,14.04 54.72,9.12 C54.72,3.72 57.84,0.48 62.4,0.48 C66.48,0.48 68.16,2.28 69.36,5.4 L65.16,7.08 C64.56,5.52 63.96,4.56 62.4,4.56 C60.48,4.56 59.64,6.48 59.64,9.12 C59.64,11.64 60.48,13.68 62.52,13.68 C63.96,13.68 64.56,12.84 65.52,11.28 L69.48,13.32 C68.28,15.6 66.36,17.76 62.4,17.76 Z" id="Shape"></path>
                    <path d="M80.04,9.6 C79.44,9 78.84,8.52 78,8.52 C76.92,8.52 76.32,9 76.32,10.56 L76.32,17.4 L72,17.4 L72,4.92 L76.32,4.92 L76.32,5.88 C77.04,5.16 77.88,4.68 78.96,4.68 C79.92,4.68 80.52,4.92 81,5.16 L80.04,9.6 Z" id="Shape"></path>
                    <path d="M90.24,17.52 L90.24,16.68 C89.52,17.28 88.56,17.76 87.12,17.76 C84.36,17.76 83.04,15.96 83.04,12.6 L83.04,4.92 L87.36,4.92 L87.36,12.12 C87.36,13.8 87.96,14.16 88.8,14.16 C89.64,14.16 90.24,13.68 90.24,12.12 L90.24,4.92 L94.56,4.92 L94.56,17.52 L90.24,17.52 Z" id="Shape"></path>
                    <path d="M105,17.52 L105,10.32 C105,8.64 104.4,8.28 103.56,8.28 C102.6,8.28 102.12,8.76 102.12,10.32 L102.12,17.52 L97.8,17.52 L97.8,4.92 L102.12,4.92 L102.12,5.76 C102.96,5.16 103.8,4.68 105.24,4.68 C108,4.68 109.32,6.48 109.32,9.84 L109.32,17.52 L105,17.52 Z" id="Shape"></path>
                    <path d="M117.72,17.76 C114,17.76 111.84,15.36 111.84,11.16 C111.84,7.32 113.76,4.68 117.84,4.68 C120.24,4.68 121.56,5.76 122.64,7.56 L119.64,9.84 C119.04,8.76 118.68,8.16 117.72,8.16 C116.64,8.16 116.04,9.24 116.04,11.28 C116.04,13.32 116.64,14.28 117.84,14.28 C118.68,14.28 119.28,13.8 120,12.6 L122.76,14.76 C121.32,16.92 120,17.76 117.72,17.76 Z" id="Shape"></path>
                    <path d="M132.48,17.52 L132.48,10.32 C132.48,8.64 131.88,8.28 131.04,8.28 C130.08,8.28 129.6,8.76 129.6,10.32 L129.6,17.52 L125.28,17.52 L125.28,1.68 L129.6,0 L129.6,5.76 C130.44,5.16 131.28,4.68 132.72,4.68 C135.48,4.68 136.8,6.48 136.8,9.84 L136.8,17.52 L132.48,17.52 Z" id="Shape"></path>
                </g>
            </g>
        </g>
    </g>
</svg>