<?xml version="1.0" encoding="UTF-8"?>
<svg width="117px" height="26px" viewBox="0 0 117 26" version="1.1" xmlns="http://www.w3.org/2000/svg" xmlns:xlink="http://www.w3.org/1999/xlink">
    <!-- Generator: Sketch 51.3 (57544) - http://www.bohemiancoding.com/sketch -->
    <title>verizon-logo</title>
    <desc>Created with Sketch.</desc>
    <defs></defs>
    <g id="Page-1" stroke="none" stroke-width="1" fill="none" fill-rule="evenodd">
        <g id="hi-fi-v6" transform="translate(-546.000000, -578.000000)" fill="#DEF2F2" fill-rule="nonzero">
            <g id="client-bar" transform="translate(62.000000, 573.000000)">
                <g id="verizon-logo" transform="translate(484.000000, 5.000000)">
                    <polygon id="Shape" points="113.544118 0 107.161765 13.5882353 104.794118 8.44117647 102.220588 8.44117647 106.132353 16.8823529 108.191176 16.8823529 116.117647 0 116.117647 0"></polygon>
                    <path d="M86.2647059,25.2205882 L91.4117647,25.2205882 L91.4117647,15.8529412 C91.4117647,13.6911765 92.6470588,12.25 94.5,12.25 C96.25,12.25 97.1764706,13.4852941 97.1764706,15.2352941 L97.1764706,25.2205882 L102.323529,25.2205882 L102.323529,14.2058824 C102.323529,10.5 100.058824,7.92647059 96.4558824,7.92647059 C94.1911765,7.92647059 92.5441176,8.95588235 91.3088235,10.7058824 L91.2058824,10.7058824 L91.2058824,8.44117647 L86.2647059,8.44117647 L86.2647059,25.2205882 Z M76.2794118,7.92647059 C70.9264706,7.92647059 67.3235294,11.7352941 67.3235294,16.7794118 C67.3235294,21.8235294 70.9264706,25.6323529 76.2794118,25.6323529 C81.6323529,25.6323529 85.2352941,21.7205882 85.2352941,16.7794118 C85.2352941,11.8382353 81.6323529,7.92647059 76.2794118,7.92647059 Z M76.2794118,21.9264706 C73.8088235,21.9264706 72.5735294,19.8676471 72.5735294,16.7794118 C72.5735294,13.6911765 73.8088235,11.6323529 76.2794118,11.6323529 C78.75,11.6323529 80.0882353,13.5882353 80.0882353,16.7794118 C79.9852941,19.8676471 78.6470588,21.9264706 76.2794118,21.9264706 Z M52.8088235,25.2205882 L67.1176471,25.2205882 L67.1176471,21.2058824 L58.9852941,21.2058824 L58.9852941,21.1029412 L66.7058824,12.3529412 L66.7058824,8.44117647 L52.8088235,8.44117647 L52.8088235,12.4558824 L60.7352941,12.4558824 L60.7352941,12.5588235 L52.9117647,21.3088235 L52.9117647,25.2205882 L52.8088235,25.2205882 Z M46.3235294,25.2205882 L51.4705882,25.2205882 L51.4705882,8.44117647 L46.3235294,8.44117647 L46.3235294,25.2205882 Z M34.3823529,25.2205882 L39.5294118,25.2205882 L39.5294118,17.5 C39.5294118,14 41.5882353,12.4558824 44.8823529,12.8676471 L44.9852941,12.8676471 L44.9852941,8.44117647 C44.6764706,8.33823529 44.4705882,8.33823529 43.9558824,8.33823529 C42,8.33823529 40.6617647,9.26470588 39.4264706,11.2205882 L39.3235294,11.2205882 L39.3235294,8.44117647 L34.4852941,8.44117647 L34.4852941,25.2205882 L34.3823529,25.2205882 Z M24.9117647,22.0294118 C22.6470588,22.0294118 21.3088235,20.5882353 21,18.3235294 L33.0441176,18.3235294 C33.0441176,14.7205882 32.1176471,11.8382353 30.1617647,10.0882353 C28.7205882,8.75 26.8676471,8.02941176 24.5,8.02941176 C19.4558824,8.02941176 15.9558824,11.8382353 15.9558824,16.8823529 C15.9558824,21.9264706 19.25,25.8382353 24.8088235,25.8382353 C26.8676471,25.8382353 28.6176471,25.3235294 29.9558824,24.2941176 C31.3970588,23.2647059 32.5294118,21.8235294 32.7352941,20.3823529 L27.7941176,20.3823529 C27.4852941,21.3088235 26.4558824,22.0294118 24.9117647,22.0294118 Z M24.7058824,11.6323529 C26.4558824,11.6323529 27.7941176,12.9705882 28,14.9264706 L21.1029412,14.9264706 C21.5147059,12.8676471 22.5441176,11.6323529 24.7058824,11.6323529 Z M5.86764706,25.2205882 L11.2205882,25.2205882 L17.0882353,8.44117647 L11.9411765,8.44117647 L8.64705882,19.1470588 L8.54411765,19.1470588 L5.25,8.44117647 L0,8.44117647 L5.86764706,25.2205882 Z M46.3235294,2.47058824 L51.4705882,2.47058824 L51.4705882,7 L46.3235294,7 L46.3235294,2.47058824 Z" id="Shape"></path>
                </g>
            </g>
        </g>
    </g>
</svg>